<?xml version="1.0" encoding="UTF-8"?>
<!DOCTYPE svg PUBLIC "-//W3C//DTD SVG 1.1//EN" "http://www.w3.org/Graphics/SVG/1.1/DTD/svg11.dtd">
<!-- Creator: CorelDRAW X7 -->
<svg xmlns="http://www.w3.org/2000/svg" xml:space="preserve" width="3508px" height="2480px" version="1.1" style="shape-rendering:geometricPrecision; text-rendering:geometricPrecision; image-rendering:optimizeQuality; fill-rule:evenodd; clip-rule:evenodd"
viewBox="0 0 3508 2480"
 xmlns:xlink="http://www.w3.org/1999/xlink"
 xmlns:dc="http://purl.org/dc/elements/1.1/"
 xmlns:cc="http://creativecommons.org/ns#"
 xmlns:rdf="http://www.w3.org/1999/02/22-rdf-syntax-ns#"
 xmlns:svg="http://www.w3.org/2000/svg"
 xmlns:sodipodi="http://sodipodi.sourceforge.net/DTD/sodipodi-0.dtd"
 xmlns:inkscape="http://www.inkscape.org/namespaces/inkscape"
 inkscape:version="0.91 r13725"
 sodipodi:docname="cirlcelife.svg">
 <defs>
  <style type="text/css">
   <![CDATA[
    .str0 {stroke:#7E7E7E;stroke-width:0.900032}
    .fil0 {fill:#7E7E7E}
    .fil1 {fill:#FEFEFE;fill-rule:nonzero}
   ]]>
  </style>
 </defs>
 <g id="Слой_x0020_1">
  <metadata id="CorelCorpID_0Corel-Layer"/>
  <sodipodi:namedview pagecolor="#ffffff" bordercolor="#666666" borderopacity="1" objecttolerance="10" gridtolerance="10" guidetolerance="10" inkscape:pageopacity="0" inkscape:pageshadow="2" inkscape:window-width="1301" inkscape:window-height="746" id="namedview75" showgrid="false" inkscape:zoom="0.63432804" inkscape:cx="505.35597" inkscape:cy="405.5165" inkscape:window-x="57" inkscape:window-y="-8" inkscape:window-maximized="1" inkscape:current-layer="svg2"/>
  <circle id="circle10" class="fil0" cx="1579" cy="533" r="347"/>
  <circle id="circle12" class="fil0" cx="1530" cy="1227" r="347"/>
  <circle id="circle14" class="fil0" cx="2153" cy="918" r="347"/>
  <circle id="circle16" class="fil0" cx="2157" cy="294" r="316"/>
  <circle id="circle18" class="fil0" cx="2509" cy="1371" r="267"/>
  <circle id="circle20" class="fil0" cx="2729" cy="927" r="229"/>
  <circle id="circle22" class="fil0" cx="2033" cy="1467" r="229"/>
  <circle id="circle24" class="fil0" cx="2563" cy="563" r="187"/>
  <circle id="circle26" class="fil0" cx="1062" cy="844" r="262"/>
  <circle id="circle28" class="fil0" cx="2911" cy="617" r="158"/>
  <circle id="circle30" class="fil0" cx="2948" cy="1251" r="192"/>
  <circle id="circle32" class="fil0" cx="967" cy="1333" r="228"/>
  <circle id="circle34" class="fil0" cx="3196" cy="877" r="243"/>
  <circle id="circle36" class="fil0" cx="712" cy="1057" r="149"/>
  <circle id="circle38" class="fil0" cx="589" cy="708" r="223"/>
  <circle id="circle40" class="fil0 str0" cx="2807" cy="364" r="127"/>
  <path id="path43" class="fil1" d="M1408 477l17 -2c1,3 3,5 5,7 2,2 5,3 9,3 5,0 8,-1 10,-3 2,-1 3,-2 3,-4 0,-2 -1,-3 -2,-4 0,0 -2,-1 -5,-2 -14,-3 -23,-6 -27,-8 -5,-4 -7,-9 -7,-15 0,-6 2,-10 6,-14 5,-4 12,-6 21,-6 9,0 15,2 20,5 4,2 7,7 9,12l-16 3c-1,-2 -2,-4 -4,-5 -2,-2 -5,-2 -9,-2 -4,0 -8,0 -9,1 -2,1 -2,3 -2,4 0,1 0,2 1,3 2,1 7,3 16,5 9,2 16,4 20,8 3,3 5,7 5,12 0,6 -3,11 -7,16 -5,4 -13,6 -23,6 -8,0 -15,-2 -21,-5 -5,-4 -8,-9 -10,-15zm119 19l0 -10c-2,3 -6,6 -9,8 -4,2 -8,3 -13,3 -4,0 -8,-1 -11,-3 -4,-2 -6,-4 -8,-8 -1,-3 -2,-8 -2,-14l0 -41 17 0 0 29c0,10 0,15 1,17 0,2 2,4 3,5 2,1 4,2 7,2 3,0 5,-1 8,-2 2,-2 4,-4 4,-6 1,-3 2,-9 2,-18l0 -27 17 0 0 65 -16 0zm33 -65l16 0 0 9c2,-3 5,-6 8,-8 4,-2 8,-3 12,-3 8,0 14,3 19,9 6,6 8,14 8,25 0,11 -2,19 -8,25 -5,6 -11,9 -19,9 -4,0 -7,-1 -10,-2 -3,-1 -6,-4 -9,-7l0 32 -17 0 0 -89zm17 31c0,7 1,13 4,16 3,4 7,5 11,5 4,0 7,-1 10,-4 2,-4 4,-9 4,-16 0,-7 -2,-12 -4,-15 -3,-4 -7,-5 -11,-5 -4,0 -7,1 -10,5 -3,3 -4,8 -4,14zm97 13l18 3c-3,6 -6,11 -11,14 -5,3 -11,5 -18,5 -11,0 -19,-4 -25,-11 -4,-6 -6,-13 -6,-22 0,-11 3,-20 8,-26 6,-6 13,-9 22,-9 9,0 17,3 23,10 5,6 8,16 7,29l-42 0c0,5 1,9 4,12 2,3 6,4 9,4 3,0 5,-1 7,-2 2,-1 4,-4 4,-7zm1 -17c0,-5 -1,-9 -3,-12 -3,-2 -6,-4 -9,-4 -4,0 -7,2 -10,4 -2,3 -3,7 -3,12l25 0zm48 38l-17 0 0 -65 16 0 0 9c2,-5 5,-7 7,-9 2,-1 5,-2 7,-2 4,0 8,1 12,3l-6 15c-2,-2 -5,-3 -8,-3 -2,0 -4,1 -6,3 -1,1 -3,3 -4,7 -1,3 -1,10 -1,21l0 21zm-296 106l17 6c-2,10 -7,17 -13,22 -6,4 -14,7 -24,7 -12,0 -22,-4 -29,-12 -8,-9 -12,-20 -12,-34 0,-15 4,-26 12,-35 7,-8 17,-12 30,-12 11,0 20,3 27,10 4,4 7,9 9,16l-18 5c-1,-5 -3,-9 -7,-11 -3,-3 -7,-4 -12,-4 -6,0 -12,2 -16,7 -4,4 -6,12 -6,23 0,11 2,19 6,24 4,5 9,7 16,7 5,0 9,-1 12,-4 4,-3 6,-8 8,-15zm33 33l0 -89 38 0c9,0 16,1 21,2 4,2 8,5 10,9 3,4 4,9 4,14 0,6 -2,12 -6,16 -4,5 -10,8 -17,9 3,2 7,5 9,7 3,3 6,8 10,15l11 17 -21 0 -13 -19c-5,-7 -8,-12 -10,-13 -2,-2 -3,-3 -5,-4 -2,-1 -5,-1 -9,-1l-4 0 0 37 -18 0zm18 -51l13 0c9,0 14,-1 17,-2 2,0 3,-2 5,-3 1,-2 1,-4 1,-7 0,-3 0,-5 -2,-7 -2,-2 -4,-3 -7,-4 -1,0 -6,0 -13,0l-14 0 0 23zm153 51l-20 0 -7 -20 -36 0 -8 20 -19 0 35 -89 19 0 36 89zm-33 -35l-13 -33 -12 33 25 0zm35 35l0 -16 47 -58 -42 0 0 -15 66 0 0 14 -49 60 51 0 0 15 -73 0zm107 0l0 -37 -32 -52 21 0 21 35 21 -35 21 0 -33 52 0 37 -19 0z"/>
  <path id="path45" class="fil1" d="M1355 1160l-15 -2c2,-6 5,-11 9,-14 4,-3 10,-4 18,-4 7,0 12,1 16,2 4,2 6,4 8,7 1,3 2,7 2,15l-1 19c0,5 1,9 1,12 1,2 2,5 3,8l-16 0c0,-1 -1,-3 -2,-5 0,-1 0,-2 0,-2 -3,3 -6,5 -9,6 -3,2 -7,2 -10,2 -6,0 -11,-1 -15,-5 -4,-3 -5,-8 -5,-13 0,-3 0,-6 2,-9 2,-3 4,-5 7,-6 3,-2 7,-3 13,-4 7,-2 13,-3 16,-4l0 -2c0,-3 -1,-5 -3,-7 -1,-1 -4,-2 -8,-2 -3,0 -6,1 -7,2 -2,1 -3,3 -4,6zm22 13c-2,1 -6,2 -10,3 -5,1 -8,2 -9,3 -2,1 -3,3 -3,5 0,3 1,5 2,6 2,2 4,3 7,3 3,0 5,-1 8,-3 2,-2 3,-3 4,-6 0,-1 1,-4 1,-7l0 -4zm32 30l0 -85 16 0 0 85 -16 0zm44 0l-19 -62 15 0 12 41 11 -41 15 0 10 41 12 -41 16 0 -20 62 -15 0 -11 -40 -10 40 -16 0zm93 -43l-15 -2c2,-6 5,-11 9,-14 4,-3 10,-4 18,-4 7,0 13,1 16,2 4,2 6,4 8,7 1,3 2,7 2,15l0 19c0,5 0,9 0,12 1,2 2,5 3,8l-16 0c0,-1 -1,-3 -1,-5 -1,-1 -1,-2 -1,-2 -3,3 -6,5 -9,6 -3,2 -6,2 -10,2 -6,0 -11,-1 -15,-5 -4,-3 -5,-8 -5,-13 0,-3 0,-6 2,-9 2,-3 4,-5 7,-6 3,-2 7,-3 13,-4 8,-2 13,-3 16,-4l0 -2c0,-3 -1,-5 -3,-7 -1,-1 -4,-2 -8,-2 -3,0 -5,1 -7,2 -2,1 -3,3 -4,6zm22 13c-2,1 -6,2 -10,3 -5,1 -8,2 -9,3 -2,1 -3,3 -3,5 0,3 1,5 2,6 2,2 4,3 7,3 3,0 6,-1 8,-3 2,-2 4,-3 4,-6 1,-1 1,-4 1,-7l0 -4zm24 -32l17 0 15 44 15 -44 16 0 -21 59 -4 11c-2,4 -3,6 -4,8 -2,2 -3,4 -5,5 -2,1 -4,2 -6,3 -3,0 -5,1 -8,1 -4,0 -7,-1 -10,-1l-1 -13c3,0 5,1 7,1 4,0 7,-1 8,-4 2,-2 3,-5 4,-8l-23 -62zm68 44l16 -2c1,3 2,6 5,7 2,2 5,3 8,3 5,0 8,-1 10,-3 1,-1 2,-2 2,-4 0,-1 0,-2 -1,-3 -1,-1 -3,-2 -5,-2 -14,-3 -22,-6 -25,-8 -5,-4 -8,-8 -8,-14 0,-6 2,-10 7,-14 4,-3 10,-5 19,-5 9,0 15,1 19,4 4,3 7,7 8,12l-15 3c-1,-2 -2,-4 -4,-5 -2,-2 -4,-2 -8,-2 -4,0 -7,0 -9,1 -1,1 -2,2 -2,4 0,1 1,2 2,3 1,1 6,2 15,4 9,2 15,5 18,7 4,3 5,7 5,13 0,5 -2,10 -7,14 -4,4 -11,6 -21,6 -8,0 -15,-1 -19,-5 -5,-3 -9,-8 -10,-14zm-432 150l0 -84 17 0 0 70 43 0 0 14 -60 0zm72 0l0 -85 63 0 0 15 -46 0 0 18 43 0 0 15 -43 0 0 23 48 0 0 14 -65 0zm156 0l-19 0 -7 -19 -34 0 -7 19 -18 0 33 -85 18 0 34 85zm-32 -33l-12 -32 -11 32 23 0zm41 33l0 -85 36 0c9,0 16,1 20,3 4,1 7,4 10,8 2,4 3,8 3,13 0,7 -2,12 -5,16 -4,4 -10,7 -17,8 4,2 7,4 9,7 3,2 6,7 10,14l10 16 -20 0 -12 -18c-5,-7 -8,-11 -10,-13 -1,-2 -3,-3 -5,-3 -2,-1 -5,-1 -8,-1l-4 0 0 35 -17 0zm17 -49l13 0c8,0 13,0 15,-1 2,0 4,-2 5,-3 1,-2 2,-4 2,-7 0,-3 -1,-5 -3,-7 -1,-1 -3,-3 -6,-3 -1,0 -6,0 -12,0l-14 0 0 21zm69 49l0 -85 16 0 35 57 0 -57 16 0 0 85 -17 0 -35 -56 0 56 -15 0zm85 0l0 -85 17 0 0 85 -17 0zm33 0l0 -85 17 0 35 57 0 -57 16 0 0 85 -18 0 -34 -56 0 56 -16 0zm125 -31l0 -14 37 0 0 34c-3,3 -9,6 -16,9 -6,2 -13,4 -20,4 -9,0 -17,-2 -23,-6 -7,-4 -12,-9 -15,-16 -4,-7 -5,-14 -5,-23 0,-8 2,-16 5,-23 4,-7 9,-12 17,-16 5,-3 12,-4 20,-4 11,0 19,2 25,6 6,5 9,11 11,19l-17 3c-1,-4 -3,-7 -7,-10 -3,-2 -7,-3 -12,-3 -8,0 -13,2 -18,7 -4,4 -7,11 -7,21 0,10 3,17 7,23 5,4 11,7 18,7 3,0 7,-1 11,-2 3,-1 6,-3 9,-5l0 -11 -20 0z"/>
  <path id="path47" class="fil1" d="M2013 893l-15 0 0 -9c-3,4 -6,6 -9,8 -4,2 -7,3 -11,3 -7,0 -13,-3 -18,-9 -5,-5 -7,-13 -7,-23 0,-11 2,-19 7,-24 5,-6 11,-9 19,-9 7,0 12,3 18,9l0 -31 16 0 0 85zm-44 -32c0,7 1,12 3,15 3,4 6,6 11,6 4,0 7,-2 10,-5 2,-3 4,-8 4,-14 0,-7 -2,-12 -4,-15 -3,-3 -6,-5 -10,-5 -4,0 -7,1 -10,5 -2,3 -4,7 -4,13zm95 13l17 3c-2,6 -6,10 -10,13 -5,3 -10,5 -17,5 -11,0 -19,-4 -24,-11 -4,-5 -6,-12 -6,-21 0,-10 3,-18 8,-24 5,-6 12,-9 20,-9 9,0 16,4 22,10 5,6 8,15 7,27l-40 0c0,5 1,9 4,12 2,2 5,4 9,4 3,0 5,-1 6,-2 2,-2 3,-4 4,-7zm1 -17c0,-4 -1,-8 -3,-10 -3,-3 -5,-4 -9,-4 -3,0 -6,1 -9,4 -2,2 -3,6 -3,10l24 0zm47 36l-25 -61 17 0 12 31 3 11c1,-3 1,-5 2,-6 0,-1 1,-3 1,-5l12 -31 17 0 -25 61 -14 0zm49 -69l0 -16 16 0 0 16 -16 0zm0 69l0 -61 16 0 0 61 -16 0zm33 0l0 -85 16 0 0 85 -16 0zm65 -69l0 -16 17 0 0 16 -17 0zm0 69l0 -61 17 0 0 61 -17 0zm89 0l-16 0 0 -31c0,-7 0,-11 -1,-13 -1,-2 -2,-3 -3,-4 -2,-2 -4,-2 -6,-2 -3,0 -5,1 -8,2 -2,2 -3,4 -4,6 -1,3 -1,8 -1,14l0 28 -17 0 0 -61 15 0 0 9c6,-7 12,-11 21,-11 3,0 7,1 10,2 3,2 5,3 6,5 2,2 3,5 3,7 1,3 1,6 1,11l0 38zm-436 48l31 0c7,0 12,0 16,2 5,1 9,4 13,7 3,4 6,9 8,14 2,6 3,12 3,20 0,7 -1,13 -3,18 -2,6 -5,11 -9,15 -3,3 -7,5 -12,7 -4,1 -9,2 -15,2l-32 0 0 -85zm17 14l0 56 12 0c5,0 9,0 11,0 3,-1 5,-2 7,-4 2,-2 3,-4 4,-8 1,-4 2,-9 2,-16 0,-6 -1,-11 -2,-15 -1,-3 -3,-6 -5,-8 -2,-2 -4,-3 -8,-4 -2,0 -7,-1 -14,-1l-7 0zm68 71l0 -85 63 0 0 14 -46 0 0 19 43 0 0 14 -43 0 0 23 48 0 0 15 -65 0zm98 0l0 -71 -25 0 0 -14 67 0 0 14 -24 0 0 71 -18 0zm121 0l-18 0 -7 -20 -35 0 -7 20 -18 0 33 -85 18 0 34 85zm-31 -34l-12 -31 -11 31 23 0zm40 34l0 -85 17 0 0 85 -17 0zm34 0l0 -84 17 0 0 69 43 0 0 15 -60 0zm67 -28l17 -1c1,5 3,9 6,12 3,3 7,4 13,4 5,0 9,-1 12,-4 3,-2 4,-5 4,-8 0,-2 0,-3 -2,-5 -1,-1 -3,-3 -6,-4 -2,0 -6,-2 -13,-3 -10,-3 -16,-5 -20,-9 -5,-4 -7,-10 -7,-17 0,-4 1,-8 3,-12 3,-4 6,-7 11,-9 4,-2 10,-3 16,-3 11,0 19,3 24,7 6,5 9,11 9,19l-17 1c-1,-4 -3,-8 -5,-9 -2,-2 -6,-3 -11,-3 -5,0 -9,1 -11,3 -2,1 -3,3 -3,5 0,2 1,4 2,5 3,2 8,4 16,6 9,2 15,4 19,6 4,2 7,5 9,9 2,3 3,8 3,13 0,5 -1,10 -4,14 -2,4 -6,7 -11,9 -5,2 -11,3 -19,3 -10,0 -19,-2 -24,-7 -6,-5 -9,-12 -11,-22z"/>
  <path id="path49" class="fil1" d="M1982 272l0 -77 16 0 0 64 38 0 0 13 -54 0zm65 0l0 -77 16 0 0 77 -16 0zm30 0l0 -77 53 0 0 13 -37 0 0 18 32 0 0 13 -32 0 0 33 -16 0zm66 0l0 -77 57 0 0 13 -41 0 0 17 38 0 0 13 -38 0 0 21 43 0 0 13 -59 0zm102 0l0 -77 15 0 0 77 -15 0zm26 -25l15 -2c1,5 3,9 6,11 2,3 6,4 11,4 5,0 9,-1 11,-3 3,-2 4,-5 4,-8 0,-1 0,-3 -2,-4 -1,-2 -3,-3 -5,-4 -2,0 -6,-1 -13,-3 -8,-2 -14,-5 -17,-8 -5,-4 -7,-9 -7,-15 0,-4 1,-8 3,-11 2,-4 6,-6 10,-8 4,-2 9,-3 15,-3 10,0 17,2 22,7 5,4 7,10 7,17l-15 0c-1,-4 -2,-7 -5,-8 -2,-2 -5,-3 -9,-3 -5,0 -8,1 -11,3 -1,1 -2,3 -2,5 0,2 1,3 2,4 2,2 7,4 14,6 8,1 13,3 17,5 4,2 7,5 9,8 2,3 3,7 3,12 0,5 -1,9 -4,13 -2,4 -6,6 -10,8 -5,2 -11,3 -17,3 -10,0 -17,-2 -23,-7 -5,-4 -8,-11 -9,-19zm-222 145l-18 -56 14 0 11 37 9 -37 15 0 9 37 11 -37 14 0 -18 56 -14 0 -9 -36 -10 36 -14 0zm70 -28c0,-5 1,-10 3,-15 3,-4 6,-8 11,-10 4,-3 9,-4 15,-4 8,0 15,3 20,8 6,6 8,13 8,21 0,9 -2,16 -8,21 -5,6 -12,9 -20,9 -6,0 -10,-2 -15,-4 -5,-2 -8,-6 -11,-10 -2,-5 -3,-10 -3,-16zm15 0c0,6 1,10 4,13 2,3 6,5 10,5 3,0 7,-2 9,-5 3,-3 4,-7 4,-13 0,-5 -1,-10 -4,-12 -2,-3 -6,-5 -9,-5 -4,0 -8,2 -10,5 -3,2 -4,7 -4,12zm68 28l-15 0 0 -56 14 0 0 8c2,-4 5,-6 6,-7 2,-1 4,-2 7,-2 3,0 7,1 10,3l-5 13c-2,-2 -5,-3 -7,-3 -2,0 -4,1 -5,2 -2,1 -3,3 -4,6 0,3 -1,9 -1,19l0 17zm27 0l0 -77 15 0 0 41 18 -20 18 0 -19 21 20 35 -16 0 -14 -25 -7 7 0 18 -15 0z"/>
  <path id="path51" class="fil1" d="M2292 1352l0 -65 45 0 0 11 -32 0 0 16 27 0 0 11 -27 0 0 27 -13 0zm53 -32c0,-7 1,-12 3,-17 1,-3 3,-6 6,-9 2,-2 5,-4 8,-6 4,-1 9,-2 14,-2 10,0 18,3 23,9 6,6 9,14 9,25 0,10 -3,19 -8,25 -6,5 -14,9 -23,9 -10,0 -18,-3 -24,-9 -5,-6 -8,-14 -8,-25zm13 0c0,7 2,13 6,16 3,4 7,6 13,6 5,0 9,-2 13,-5 3,-4 4,-10 4,-18 0,-7 -1,-13 -4,-16 -4,-4 -8,-6 -13,-6 -6,0 -10,2 -14,6 -3,4 -5,9 -5,17zm102 8l13 4c-2,7 -5,13 -10,16 -4,4 -10,5 -17,5 -9,0 -16,-3 -22,-8 -5,-6 -8,-14 -8,-25 0,-11 3,-19 8,-25 6,-6 13,-9 23,-9 8,0 14,2 19,7 3,3 5,7 7,12l-13 3c-1,-3 -3,-6 -5,-8 -3,-2 -6,-3 -9,-3 -5,0 -9,2 -12,5 -3,4 -4,10 -4,17 0,8 1,14 4,18 3,3 7,5 12,5 3,0 6,-1 9,-3 2,-2 4,-6 5,-11zm24 -41l13 0 0 35c0,6 1,10 1,11 1,3 2,5 4,7 2,1 5,2 9,2 3,0 6,-1 8,-2 2,-2 3,-3 3,-6 1,-2 1,-6 1,-11l0 -36 13 0 0 34c0,8 0,14 -1,17 -1,3 -2,6 -4,8 -2,2 -4,4 -8,6 -3,1 -7,2 -12,2 -6,0 -11,-1 -14,-3 -3,-1 -6,-3 -8,-5 -2,-3 -3,-5 -3,-8 -1,-3 -2,-9 -2,-16l0 -35zm63 44l12 -1c1,4 3,7 5,9 2,2 6,3 10,3 4,0 7,0 9,-2 2,-2 3,-4 3,-7 0,-1 0,-2 -1,-4 -1,-1 -2,-2 -5,-2 -1,-1 -5,-2 -10,-3 -7,-2 -12,-4 -15,-7 -4,-3 -6,-8 -6,-13 0,-3 1,-6 3,-9 2,-3 4,-5 8,-7 4,-1 8,-2 13,-2 8,0 14,2 18,5 4,4 7,9 7,15l-13 0c-1,-3 -2,-5 -4,-7 -2,-1 -5,-2 -8,-2 -4,0 -7,1 -9,2 -2,1 -2,3 -2,4 0,2 0,3 2,4 1,2 5,3 12,5 6,1 11,3 14,4 3,2 5,4 7,7 2,3 3,6 3,10 0,4 -1,8 -4,11 -2,3 -4,6 -8,7 -4,2 -9,3 -14,3 -9,0 -15,-2 -19,-6 -5,-4 -8,-10 -8,-17zm64 21l0 -65 48 0 0 11 -35 0 0 15 33 0 0 11 -33 0 0 17 36 0 0 11 -49 0zm61 -65l24 0c5,0 9,1 12,1 4,1 7,3 10,6 3,3 5,7 6,11 2,4 2,9 2,15 0,6 0,10 -2,14 -1,5 -4,9 -7,12 -2,2 -5,4 -9,5 -3,1 -7,1 -12,1l-24 0 0 -65zm13 11l0 43 10 0c3,0 6,0 8,0 2,-1 3,-2 5,-3 1,-1 2,-3 3,-6 1,-3 2,-7 2,-12 0,-5 -1,-9 -2,-12 -1,-3 -2,-5 -3,-6 -2,-2 -4,-3 -7,-3 -1,-1 -5,-1 -10,-1l-6 0zm-386 132c0,-4 1,-8 3,-12 2,-4 5,-7 9,-9 4,-2 8,-3 12,-3 7,0 13,2 18,7 4,4 7,10 7,17 0,8 -3,14 -7,18 -5,5 -11,7 -18,7 -4,0 -8,-1 -12,-3 -4,-2 -7,-4 -9,-8 -2,-4 -3,-9 -3,-14zm13 1c0,4 1,8 3,10 2,3 5,4 8,4 4,0 6,-1 9,-4 2,-2 3,-6 3,-11 0,-4 -1,-8 -3,-10 -3,-3 -5,-4 -9,-4 -3,0 -6,1 -8,4 -2,2 -3,6 -3,11zm89 23l-13 0 0 -24c0,-5 0,-8 -1,-10 0,-1 -1,-3 -2,-3 -2,-1 -3,-2 -5,-2 -2,0 -4,1 -6,2 -1,1 -3,3 -3,5 -1,2 -1,6 -1,11l0 21 -13 0 0 -47 12 0 0 7c4,-6 9,-8 16,-8 2,0 5,0 7,1 2,1 4,3 5,4 2,2 2,3 3,5 0,2 1,5 1,9l0 29zm81 0l-12 0 0 -7c-2,3 -4,5 -7,6 -2,2 -5,2 -7,2 -6,0 -11,-2 -15,-6 -3,-5 -5,-11 -5,-19 0,-8 2,-14 5,-18 4,-4 9,-6 15,-6 5,0 10,2 13,6l0 -23 13 0 0 65zm-33 -24c0,5 0,8 2,11 2,3 4,4 8,4 3,0 5,-1 7,-3 2,-3 3,-6 3,-11 0,-6 -1,-10 -2,-12 -2,-2 -5,-4 -8,-4 -3,0 -5,2 -7,4 -2,2 -3,6 -3,11zm73 9l12 2c-2,5 -4,8 -8,11 -3,2 -7,3 -13,3 -8,0 -14,-2 -18,-8 -3,-4 -4,-9 -4,-16 0,-8 2,-14 6,-18 4,-5 9,-7 15,-7 7,0 13,2 17,7 4,4 6,12 6,21l-32 0c1,4 1,7 3,9 2,2 5,3 8,3 2,0 3,-1 5,-2 1,-1 2,-2 3,-5zm0 -12c0,-4 -1,-7 -3,-9 -1,-2 -3,-3 -6,-3 -3,0 -5,1 -7,3 -2,2 -2,5 -2,9l18 0zm44 -20l0 10 -8 0 0 19c0,4 0,6 0,7 0,0 1,1 1,1 1,1 2,1 2,1 2,0 3,0 5,-1l2 9c-3,2 -7,2 -10,2 -3,0 -5,0 -6,-1 -2,-1 -4,-2 -4,-3 -1,-1 -2,-3 -2,-5 0,-1 -1,-4 -1,-8l0 -21 -5 0 0 -10 5 0 0 -9 13 -8 0 17 8 0zm19 14l-12 -2c1,-4 4,-8 7,-10 3,-2 8,-3 14,-3 5,0 9,0 12,2 3,1 5,3 6,5 1,2 2,6 2,11l-1 15c0,4 1,7 1,9 0,2 1,4 2,6l-12 0c0,-1 -1,-2 -1,-3 -1,-1 -1,-2 -1,-2 -2,2 -4,4 -7,5 -2,1 -5,1 -7,1 -5,0 -9,-1 -12,-4 -3,-2 -4,-6 -4,-10 0,-2 1,-5 2,-7 1,-2 3,-3 5,-5 3,-1 6,-2 10,-2 6,-2 10,-3 12,-4l0 -1c0,-2 0,-4 -1,-5 -2,-1 -4,-2 -7,-2 -2,0 -4,1 -5,2 -2,1 -3,2 -3,4zm16 11c-1,0 -4,1 -7,1 -4,1 -6,2 -7,3 -2,1 -3,2 -3,4 0,2 1,3 2,5 2,1 3,2 5,2 3,0 5,-1 7,-3 1,-1 2,-2 3,-4 0,-1 0,-3 0,-6l0 -2zm25 -32l0 -11 12 0 0 11 -12 0zm0 54l0 -47 12 0 0 47 -12 0zm25 0l0 -65 13 0 0 65 -13 0zm21 -13l13 -2c0,2 1,4 3,5 2,2 4,2 7,2 3,0 5,0 7,-1 1,-1 2,-2 2,-4 0,-1 -1,-2 -1,-2 -1,-1 -2,-1 -4,-2 -10,-2 -17,-4 -19,-6 -4,-3 -6,-6 -6,-11 0,-4 1,-7 5,-10 3,-3 8,-4 15,-4 6,0 11,1 14,3 3,2 6,5 7,9l-12 3c-1,-2 -2,-4 -3,-5 -1,-1 -3,-1 -6,-1 -3,0 -6,0 -7,1 -1,1 -2,2 -2,3 0,1 1,1 2,2 1,1 5,2 11,4 7,1 12,3 14,5 3,2 4,6 4,9 0,5 -2,9 -5,12 -4,3 -9,4 -16,4 -7,0 -12,-1 -15,-4 -4,-2 -7,-6 -8,-10z"/>
  <path id="path53" class="fil1" d="M2628 910l0 -55 11 0 0 46 28 0 0 9 -39 0zm45 -27c0,-6 0,-11 2,-15 1,-3 3,-5 5,-7 3,-3 5,-4 8,-5 3,-2 7,-3 12,-3 8,0 15,3 20,8 5,5 7,12 7,21 0,10 -2,17 -7,22 -5,5 -12,7 -20,7 -8,0 -15,-2 -20,-7 -5,-5 -7,-12 -7,-21zm11 -1c0,7 2,12 5,15 3,3 6,5 11,5 4,0 8,-2 11,-5 3,-3 4,-8 4,-15 0,-6 -1,-11 -4,-14 -3,-3 -6,-5 -11,-5 -5,0 -9,2 -11,5 -3,3 -5,8 -5,14zm66 28l-20 -56 12 0 15 42 13 -42 12 0 -20 56 -12 0zm38 0l0 -56 42 0 0 10 -31 0 0 12 28 0 0 10 -28 0 0 15 32 0 0 9 -43 0zm-205 47l10 0 0 6c2,-2 3,-3 6,-5 2,-1 4,-2 7,-2 5,0 9,2 12,6 3,4 5,9 5,15 0,7 -2,12 -5,16 -3,4 -7,6 -12,6 -2,0 -4,-1 -6,-1 -2,-1 -4,-3 -6,-5l0 20 -11 0 0 -56zm11 20c0,5 1,8 3,10 1,2 3,3 6,3 3,0 5,-1 6,-3 2,-2 3,-5 3,-10 0,-4 -1,-7 -3,-9 -1,-2 -4,-3 -6,-3 -3,0 -5,1 -7,3 -1,2 -2,5 -2,9zm48 21l-11 0 0 -41 10 0 0 6c2,-3 3,-4 4,-5 2,-1 3,-2 5,-2 3,0 5,1 7,2l-3 10c-2,-1 -4,-2 -5,-2 -2,0 -3,0 -4,1 -1,1 -2,3 -2,5 -1,2 -1,6 -1,13l0 13zm17 -21c0,-3 1,-7 3,-10 2,-4 4,-6 7,-8 4,-2 7,-3 11,-3 6,0 11,2 15,6 4,4 6,9 6,16 0,6 -2,11 -6,15 -4,4 -9,6 -15,6 -3,0 -7,-1 -10,-3 -4,-1 -6,-4 -8,-7 -2,-3 -3,-7 -3,-12zm11 1c0,4 1,7 3,9 2,2 4,3 7,3 3,0 5,-1 7,-3 2,-2 3,-5 3,-9 0,-4 -1,-7 -3,-10 -2,-2 -4,-3 -7,-3 -3,0 -5,1 -7,3 -2,3 -3,6 -3,10zm75 -9l-11 2c0,-2 -1,-3 -2,-5 -1,-1 -3,-1 -5,-1 -3,0 -5,1 -6,3 -2,2 -3,5 -3,9 0,5 1,8 3,10 1,2 4,3 6,3 2,0 4,0 5,-2 2,-1 2,-3 3,-6l11 2c-2,5 -4,9 -7,11 -3,3 -7,4 -12,4 -6,0 -11,-2 -14,-6 -4,-4 -6,-9 -6,-15 0,-7 2,-12 6,-16 3,-4 8,-6 14,-6 5,0 9,1 12,4 3,2 5,5 6,9zm32 16l10 2c-1,4 -3,7 -6,9 -3,2 -7,3 -11,3 -7,0 -13,-2 -16,-7 -3,-4 -4,-8 -4,-14 0,-7 2,-12 5,-16 4,-4 8,-6 14,-6 6,0 10,2 14,6 3,4 5,10 5,19l-27 0c0,3 1,5 3,7 1,2 3,3 6,3 2,0 3,-1 4,-2 1,0 2,-2 3,-4zm0 -11c0,-3 -1,-5 -2,-7 -2,-2 -3,-2 -6,-2 -2,0 -4,1 -6,2 -1,2 -2,4 -2,7l16 0zm16 12l11 -1c0,2 1,3 2,4 2,2 4,2 6,2 3,0 5,0 7,-1 1,-1 1,-2 1,-3 0,-1 0,-2 -1,-2 0,-1 -2,-1 -3,-2 -9,-2 -14,-3 -17,-5 -3,-2 -5,-5 -5,-9 0,-4 2,-7 5,-9 2,-2 7,-4 12,-4 6,0 10,1 13,3 3,2 4,5 5,8l-10 2c0,-1 -1,-3 -2,-4 -1,0 -3,-1 -5,-1 -3,0 -5,1 -6,1 -1,1 -2,2 -2,3 0,0 1,1 1,2 1,0 5,1 10,2 6,2 10,3 12,5 3,2 4,5 4,8 0,4 -2,7 -5,10 -3,3 -8,4 -14,4 -5,0 -10,-1 -13,-3 -3,-3 -5,-6 -6,-10zm43 0l11 -1c1,2 2,3 3,4 1,2 3,2 6,2 3,0 5,0 6,-1 1,-1 2,-2 2,-3 0,-1 -1,-2 -1,-2 -1,-1 -2,-1 -4,-2 -8,-2 -14,-3 -16,-5 -4,-2 -5,-5 -5,-9 0,-4 1,-7 4,-9 3,-2 7,-4 13,-4 5,0 10,1 12,3 3,2 5,5 6,8l-10 2c-1,-1 -1,-3 -3,-4 -1,0 -3,-1 -5,-1 -3,0 -5,1 -6,1 -1,1 -1,2 -1,3 0,0 0,1 1,2 1,0 4,1 10,2 6,2 10,3 12,5 2,2 3,5 3,8 0,4 -1,7 -4,10 -3,3 -8,4 -14,4 -6,0 -10,-1 -13,-3 -4,-3 -6,-6 -7,-10z"/>
  <path id="path55" class="fil1" d="M1879 1475l11 3c-1,6 -4,11 -8,14 -4,3 -9,4 -15,4 -8,0 -14,-2 -18,-7 -5,-5 -8,-12 -8,-21 0,-9 3,-17 8,-22 4,-5 11,-8 19,-8 6,0 12,2 16,6 3,3 5,6 6,11l-11 2c-1,-2 -2,-5 -4,-6 -2,-2 -5,-3 -8,-3 -4,0 -8,2 -10,5 -3,3 -4,7 -4,14 0,7 1,12 4,15 2,3 6,5 10,5 3,0 5,-1 8,-3 2,-2 3,-5 4,-9zm21 20l0 -56 24 0c6,0 10,1 13,2 3,1 5,3 6,5 2,3 3,6 3,9 0,4 -1,8 -4,10 -2,3 -6,5 -11,6 3,1 5,3 6,4 2,2 4,5 6,9l7 11 -13 0 -8 -12c-3,-4 -5,-7 -6,-8 -1,-1 -2,-2 -4,-2 -1,-1 -3,-1 -5,-1l-3 0 0 23 -11 0zm11 -32l9 0c5,0 8,0 10,-1 1,0 2,-1 3,-2 1,-1 1,-2 1,-4 0,-2 0,-4 -1,-5 -1,-1 -3,-2 -5,-2 -1,0 -3,0 -8,0l-9 0 0 14zm45 32l0 -56 42 0 0 10 -30 0 0 12 28 0 0 10 -28 0 0 15 31 0 0 9 -43 0zm103 0l-12 0 -5 -12 -22 0 -5 12 -12 0 22 -56 12 0 22 56zm-21 -22l-7 -21 -8 21 15 0zm34 22l0 -46 -17 0 0 -10 45 0 0 10 -17 0 0 46 -11 0zm35 0l0 -56 11 0 0 56 -11 0zm36 0l-20 -56 13 0 14 42 13 -42 12 0 -20 56 -12 0zm38 0l0 -56 42 0 0 10 -31 0 0 12 28 0 0 10 -28 0 0 15 32 0 0 9 -43 0z"/>
  <path id="path57" class="fil1" d="M2504 550l0 -5c-2,1 -3,3 -5,4 -2,1 -4,1 -6,1 -3,0 -4,0 -6,-1 -2,-1 -3,-2 -4,-4 -1,-2 -1,-4 -1,-8l0 -21 8 0 0 16c0,4 1,7 1,8 0,1 1,2 2,3 0,0 2,1 3,1 1,0 3,-1 4,-1 1,-1 2,-2 2,-4 1,-1 1,-4 1,-9l0 -14 9 0 0 34 -8 0zm14 -10l8 -1c1,2 2,3 3,4 1,1 3,1 5,1 2,0 4,0 5,-1 0,-1 1,-2 1,-2 0,-1 0,-2 -1,-2 0,0 -1,-1 -3,-1 -7,-2 -11,-3 -13,-5 -3,-1 -4,-4 -4,-7 0,-3 1,-5 3,-7 3,-2 6,-3 11,-3 4,0 8,1 10,2 2,2 4,4 4,7l-8 1c0,-1 -1,-2 -2,-3 -1,-1 -2,-1 -4,-1 -2,0 -4,0 -5,1 -1,1 -1,1 -1,2 0,1 0,1 1,1 1,1 3,2 8,3 5,1 8,2 10,4 2,1 3,4 3,6 0,3 -2,6 -4,8 -3,2 -7,3 -11,3 -5,0 -9,0 -11,-2 -3,-2 -5,-5 -5,-8zm38 -28l0 -8 9 0 0 8 -9 0zm0 38l0 -34 9 0 0 34 -9 0zm48 0l-9 0 0 -17c0,-4 0,-6 0,-7 -1,-1 -1,-2 -2,-3 -1,0 -2,-1 -3,-1 -2,0 -3,1 -4,2 -1,1 -2,2 -3,3 0,1 0,4 0,8l0 15 -9 0 0 -34 8 0 0 5c3,-3 7,-5 11,-5 2,0 4,0 5,1 2,0 3,1 4,3 1,1 1,2 2,3 0,2 0,3 0,6l0 21zm8 2l10 1c0,1 1,2 1,2 1,1 3,1 4,1 3,0 4,0 5,-1 1,0 2,-1 2,-2 0,-1 1,-2 1,-4l0 -5c-3,4 -6,6 -10,6 -5,0 -8,-2 -11,-6 -2,-3 -3,-7 -3,-11 0,-6 1,-10 4,-13 3,-3 6,-4 10,-4 4,0 7,2 10,5l0 -5 8 0 0 30c0,4 0,7 -1,9 0,2 -1,3 -2,5 -1,1 -3,1 -5,2 -2,1 -4,1 -7,1 -6,0 -10,-1 -12,-3 -3,-2 -4,-4 -4,-7 0,-1 0,-1 0,-1zm8 -20c0,4 1,6 2,8 1,2 3,3 5,3 2,0 4,-1 5,-3 2,-2 3,-4 3,-7 0,-4 -1,-6 -2,-8 -2,-2 -4,-3 -6,-3 -2,0 -4,1 -5,3 -1,2 -2,4 -2,7zm-145 72l0 -8 20 0 0 19c-2,1 -5,3 -9,5 -4,1 -7,2 -11,2 -5,0 -9,-1 -12,-3 -4,-2 -7,-5 -9,-9 -1,-4 -2,-8 -2,-12 0,-5 1,-9 3,-13 2,-3 5,-6 9,-8 3,-2 6,-3 11,-3 5,0 10,2 13,4 3,2 5,6 6,10l-9 2c-1,-3 -2,-4 -4,-6 -2,-1 -4,-2 -6,-2 -4,0 -8,2 -10,4 -2,3 -4,6 -4,12 0,5 2,9 4,12 2,2 6,4 9,4 2,0 4,-1 6,-1 2,-1 4,-2 5,-3l0 -6 -10 0zm28 17l0 -46 20 0c4,0 8,1 10,1 2,1 4,3 5,5 2,2 2,4 2,7 0,3 0,6 -2,9 -2,2 -6,3 -10,4 2,1 4,2 5,4 2,1 3,3 6,7l5 9 -11 0 -6 -10c-3,-4 -4,-6 -5,-7 -1,-1 -2,-1 -3,-2 -1,0 -3,0 -5,0l-2 0 0 19 -9 0zm9 -26l7 0c5,0 7,-1 8,-1 2,0 2,-1 3,-2 1,-1 1,-2 1,-3 0,-2 0,-3 -1,-4 -1,-1 -2,-2 -4,-2 -1,0 -3,0 -6,0l-8 0 0 12zm37 26l0 -46 34 0 0 8 -25 0 0 10 23 0 0 8 -23 0 0 12 26 0 0 8 -35 0zm43 0l0 -46 34 0 0 8 -25 0 0 10 23 0 0 8 -23 0 0 12 25 0 0 8 -34 0zm42 -46l17 0c4,0 7,0 9,1 2,1 5,2 7,4 2,2 3,5 4,8 1,3 2,6 2,11 0,3 -1,6 -2,9 -1,4 -3,6 -5,8 -1,2 -4,3 -6,4 -2,1 -5,1 -8,1l-18 0 0 -46zm10 8l0 30 6 0c3,0 5,0 6,0 2,-1 3,-1 4,-2 1,-1 2,-3 2,-5 1,-2 1,-4 1,-8 0,-3 0,-6 -1,-8 0,-2 -1,-3 -2,-4 -2,-2 -3,-2 -5,-3 -1,0 -3,0 -7,0l-4 0z"/>
  <path id="path59" class="fil1" d="M934 802l13 -2c0,2 2,4 3,5 2,2 4,2 7,2 4,0 6,0 8,-2 1,0 2,-2 2,-3 0,-1 -1,-2 -1,-3 -1,0 -2,-1 -5,-1 -10,-3 -17,-5 -20,-7 -3,-2 -5,-6 -5,-11 0,-4 1,-7 5,-10 3,-3 8,-5 15,-5 7,0 12,1 15,4 3,2 6,5 7,9l-12 3c-1,-2 -2,-4 -3,-5 -2,-1 -4,-1 -7,-1 -3,0 -5,0 -7,1 -1,1 -1,2 -1,3 0,1 0,2 1,2 1,1 5,2 12,4 7,1 12,3 14,6 3,2 5,5 5,9 0,5 -2,9 -6,12 -4,3 -9,5 -17,5 -6,0 -12,-2 -16,-4 -3,-3 -6,-7 -7,-11zm89 13l0 -7c-2,3 -4,5 -7,6 -3,2 -6,3 -9,3 -3,0 -6,-1 -9,-3 -2,-1 -4,-3 -6,-6 -1,-2 -1,-6 -1,-11l0 -31 13 0 0 23c0,7 0,11 0,13 1,1 2,2 3,3 1,1 3,2 5,2 2,0 4,-1 6,-2 2,-1 3,-3 3,-5 1,-2 1,-6 1,-13l0 -21 13 0 0 49 -12 0zm25 -49l12 0 0 8c2,-3 4,-5 7,-6 2,-2 5,-3 8,-3 6,0 11,3 15,7 4,5 6,11 6,19 0,8 -2,14 -6,19 -4,4 -9,7 -15,7 -2,0 -5,-1 -7,-2 -2,-1 -5,-3 -7,-6l0 25 -13 0 0 -68zm13 24c0,6 1,10 3,12 2,3 5,4 8,4 3,0 6,-1 8,-3 2,-3 2,-7 2,-12 0,-5 -1,-9 -3,-12 -2,-2 -4,-3 -7,-3 -3,0 -6,1 -8,3 -2,3 -3,6 -3,11zm73 10l13 2c-1,5 -4,8 -8,11 -3,2 -8,4 -13,4 -9,0 -15,-3 -19,-9 -3,-4 -5,-10 -5,-17 0,-8 2,-14 7,-19 4,-4 9,-7 16,-7 7,0 13,3 17,8 4,4 6,12 6,22l-32 0c0,3 1,7 3,9 2,2 4,3 7,3 2,0 4,-1 5,-2 2,-1 3,-3 3,-5zm1 -13c0,-4 -1,-7 -3,-9 -2,-2 -4,-3 -7,-3 -2,0 -5,1 -7,3 -1,2 -2,5 -2,9l19 0zm36 28l-13 0 0 -49 12 0 0 7c2,-3 4,-5 5,-6 2,-1 4,-2 6,-2 3,0 6,1 8,3l-3 11c-3,-1 -5,-2 -7,-2 -1,0 -3,0 -4,1 -1,1 -2,3 -3,6 -1,2 -1,8 -1,16l0 15zm-223 81l13 4c-2,7 -5,13 -10,16 -5,4 -11,6 -18,6 -9,0 -16,-3 -22,-9 -6,-7 -9,-15 -9,-26 0,-11 3,-20 9,-26 6,-6 13,-9 23,-9 8,0 15,2 20,7 3,3 5,7 7,13l-14 3c0,-4 -2,-6 -5,-8 -2,-2 -5,-3 -9,-3 -5,0 -9,1 -12,5 -3,4 -5,9 -5,17 0,9 2,15 5,19 3,3 7,5 12,5 3,0 7,-1 9,-3 3,-3 5,-6 6,-11zm25 25l0 -68 28 0c8,0 13,1 16,2 3,1 6,3 8,6 2,4 3,7 3,11 0,5 -2,9 -5,13 -3,3 -7,5 -13,6 3,2 6,3 7,6 2,2 5,5 8,11l8 13 -16 0 -10 -15c-3,-5 -6,-9 -7,-10 -1,-1 -3,-2 -4,-3 -2,0 -4,-1 -7,-1l-3 0 0 29 -13 0zm13 -39l10 0c7,0 11,-1 13,-1 1,-1 2,-2 3,-3 1,-1 2,-3 2,-5 0,-2 -1,-4 -2,-6 -1,-1 -3,-2 -5,-2 -1,0 -4,0 -10,0l-11 0 0 17zm115 39l-14 0 -6 -16 -27 0 -6 16 -14 0 26 -68 14 0 27 68zm-24 -27l-10 -25 -9 25 19 0zm26 27l0 -13 35 -43 -31 0 0 -12 49 0 0 11 -37 45 39 0 0 12 -55 0zm81 0l0 -29 -25 -39 16 0 16 27 16 -27 15 0 -24 39 0 29 -14 0z"/>
  <path id="path61" class="fil1" d="M2848 607l8 1c0,1 1,2 1,2 1,1 2,1 4,1 2,0 3,0 4,-1 1,0 1,-1 1,-2 1,0 1,-1 1,-3l0 -4c-2,3 -5,4 -9,4 -3,0 -6,-1 -9,-4 -1,-3 -2,-6 -2,-10 0,-4 1,-8 3,-10 2,-3 5,-4 9,-4 3,0 6,1 8,4l0 -4 7 0 0 26c0,3 0,5 -1,7 0,2 -1,3 -2,4 -1,1 -2,1 -4,2 -2,0 -4,1 -6,1 -5,0 -8,-1 -10,-3 -2,-1 -3,-3 -3,-6 0,0 0,0 0,-1zm6 -16c0,3 1,5 2,6 1,2 3,2 4,2 2,0 4,0 5,-2 1,-1 2,-3 2,-6 0,-3 -1,-5 -2,-6 -1,-2 -3,-3 -4,-3 -2,0 -4,1 -5,3 -1,1 -2,3 -2,6zm26 0c0,-2 0,-5 2,-7 1,-2 2,-4 5,-5 2,-1 4,-2 7,-2 4,0 8,1 11,4 2,3 4,6 4,10 0,5 -2,8 -5,11 -2,3 -6,4 -10,4 -2,0 -5,0 -7,-2 -3,-1 -4,-3 -5,-5 -2,-2 -2,-5 -2,-8zm7 0c0,3 1,5 2,7 2,1 3,2 5,2 2,0 4,-1 5,-2 1,-2 2,-4 2,-7 0,-2 -1,-4 -2,-6 -1,-1 -3,-2 -5,-2 -2,0 -3,1 -5,2 -1,2 -2,4 -2,6zm26 0c0,-2 0,-5 1,-7 2,-2 3,-4 6,-5 2,-1 4,-2 7,-2 4,0 8,1 11,4 2,3 4,6 4,10 0,5 -2,8 -5,11 -2,3 -6,4 -10,4 -2,0 -5,0 -7,-2 -3,-1 -4,-3 -6,-5 -1,-2 -1,-5 -1,-8zm7 0c0,3 1,5 2,7 2,1 3,2 5,2 2,0 4,-1 5,-2 1,-2 2,-4 2,-7 0,-2 -1,-4 -2,-6 -1,-1 -3,-2 -5,-2 -2,0 -3,1 -5,2 -1,2 -2,4 -2,6zm53 14l-7 0 0 -4c-1,2 -2,3 -4,4 -1,1 -3,1 -5,1 -3,0 -6,-1 -8,-4 -2,-2 -3,-6 -3,-11 0,-4 1,-8 3,-10 2,-3 5,-4 8,-4 4,0 6,1 9,4l0 -14 7 0 0 38zm-20 -14c0,3 1,5 2,6 1,2 2,3 4,3 2,0 4,0 5,-2 1,-1 2,-3 2,-6 0,-4 -1,-6 -2,-7 -1,-2 -3,-3 -5,-3 -1,0 -3,1 -4,3 -1,1 -2,3 -2,6zm-110 75l0 -39 16 0c4,0 7,0 9,1 2,1 3,2 4,4 2,2 2,4 2,6 0,3 -1,5 -2,7 -2,2 -5,3 -8,4 2,1 3,2 4,3 1,1 3,3 5,6l4 8 -9 0 -6 -9c-2,-3 -3,-5 -4,-5 -1,-1 -1,-2 -2,-2 -1,0 -2,0 -4,0l-2 0 0 16 -7 0zm7 -23l6 0c4,0 6,0 7,0 1,0 2,-1 2,-2 1,0 1,-1 1,-3 0,-1 0,-2 -1,-3 -1,-1 -2,-1 -3,-1 -1,0 -2,0 -6,0l-6 0 0 9zm32 23l0 -39 28 0 0 7 -21 0 0 8 20 0 0 7 -20 0 0 10 22 0 0 7 -29 0zm33 -13l8 -1c0,3 1,5 3,6 1,1 3,2 5,2 3,0 5,-1 6,-2 1,-1 2,-2 2,-3 0,-1 0,-2 -1,-3 0,0 -1,-1 -3,-1 -1,-1 -3,-1 -6,-2 -4,-1 -7,-3 -9,-4 -2,-2 -3,-5 -3,-8 0,-2 0,-4 2,-5 1,-2 2,-3 4,-4 2,-1 5,-2 8,-2 5,0 8,1 11,4 2,2 4,5 4,8l-8 0c0,-2 -1,-3 -2,-4 -1,-1 -3,-1 -5,-1 -2,0 -4,0 -5,1 -1,1 -2,2 -2,3 0,1 1,1 1,2 1,1 4,2 8,3 3,0 6,1 8,2 2,1 3,3 4,4 1,2 2,4 2,7 0,2 -1,4 -2,6 -1,2 -3,3 -5,4 -2,1 -5,1 -9,1 -5,0 -8,-1 -11,-3 -3,-2 -4,-6 -5,-10zm47 13l0 -32 -11 0 0 -7 30 0 0 7 -11 0 0 32 -8 0z"/>
  <path id="path63" class="fil1" d="M2804 1257l9 3c-1,5 -4,9 -7,12 -3,2 -8,3 -13,3 -6,0 -11,-2 -15,-6 -4,-4 -6,-10 -6,-18 0,-7 2,-13 6,-18 4,-4 9,-6 16,-6 6,0 10,1 14,5 2,2 4,5 5,9l-10 2c0,-3 -1,-5 -3,-6 -2,-1 -4,-2 -7,-2 -3,0 -6,1 -8,4 -2,2 -3,6 -3,12 0,6 1,10 3,13 2,2 5,3 8,3 3,0 5,-1 7,-2 2,-2 3,-4 4,-8zm17 18l0 -47 10 0 0 18 18 0 0 -18 10 0 0 47 -10 0 0 -21 -18 0 0 21 -10 0zm47 0l0 -47 35 0 0 8 -25 0 0 10 24 0 0 8 -24 0 0 13 26 0 0 8 -36 0zm44 0l0 -47 35 0 0 8 -25 0 0 10 23 0 0 8 -23 0 0 13 26 0 0 8 -36 0zm44 0l0 -47 20 0c5,0 9,0 11,1 2,1 4,2 6,4 1,3 2,5 2,8 0,3 -2,6 -4,9 -2,2 -5,3 -9,4 2,1 4,2 5,4 2,1 3,4 6,7l5 10 -11 0 -7 -11c-2,-3 -4,-6 -5,-7 -1,0 -2,-1 -3,-2 -1,0 -2,0 -5,0l-1 0 0 20 -10 0zm10 -28l7 0c4,0 7,0 8,0 1,-1 2,-1 3,-2 0,-1 1,-2 1,-4 0,-1 -1,-2 -1,-3 -1,-1 -3,-2 -4,-2 -1,0 -3,0 -7,0l-7 0 0 11zm37 28l0 -47 33 0 0 8 -23 0 0 11 20 0 0 8 -20 0 0 20 -10 0zm41 -47l9 0 0 25c0,4 0,7 0,8 1,2 2,3 3,5 2,1 4,1 7,1 2,0 4,0 6,-1 1,-1 2,-3 2,-4 0,-2 0,-5 0,-8l0 -26 10 0 0 24c0,6 0,10 -1,12 0,3 -1,5 -3,6 -1,2 -3,3 -5,4 -2,1 -5,1 -9,1 -5,0 -8,0 -10,-1 -3,-1 -5,-2 -6,-4 -1,-2 -2,-4 -3,-5 0,-3 0,-7 0,-12l0 -25zm47 47l0 -47 10 0 0 39 23 0 0 8 -33 0z"/>
  <path id="path65" class="fil1" d="M774 1271l0 -10 10 0 0 10 -10 0zm0 46l0 -40 10 0 0 40 -10 0zm58 0l-11 0 0 -21c0,-4 0,-7 0,-8 -1,-1 -1,-2 -3,-3 0,-1 -2,-1 -3,-1 -2,0 -4,1 -5,1 -2,2 -3,3 -3,4 -1,2 -1,5 -1,10l0 18 -11 0 0 -40 10 0 0 6c4,-5 8,-7 13,-7 3,0 5,0 7,1 2,1 3,2 4,3 1,2 2,3 2,5 1,1 1,4 1,7l0 25zm29 -40l0 8 -7 0 0 17c0,3 0,5 0,5 0,1 1,1 1,2 1,0 1,0 2,0 1,0 2,0 4,-1l1 8c-2,1 -5,2 -8,2 -2,0 -4,0 -5,-1 -2,-1 -3,-1 -4,-2 -1,-1 -1,-3 -1,-5 0,-1 -1,-3 -1,-7l0 -18 -5 0 0 -8 5 0 0 -8 11 -7 0 15 7 0zm31 27l11 2c-1,4 -4,7 -7,9 -3,2 -6,3 -11,3 -7,0 -12,-2 -15,-7 -3,-4 -4,-8 -4,-14 0,-6 2,-12 5,-16 3,-3 8,-5 13,-5 6,0 11,2 14,6 4,4 6,10 5,18l-26 0c0,3 1,6 2,7 2,2 4,3 6,3 2,0 4,0 5,-1 1,-1 2,-3 2,-5zm1 -10c0,-4 -1,-6 -3,-8 -1,-1 -3,-2 -5,-2 -2,0 -4,1 -6,3 -1,1 -2,4 -2,7l16 0zm29 23l-10 0 0 -40 10 0 0 5c1,-2 3,-4 4,-5 2,-1 3,-1 5,-1 2,0 5,0 7,2l-3 9c-2,-1 -4,-2 -5,-2 -2,0 -3,1 -4,2 -1,0 -2,2 -3,4 0,2 -1,7 -1,14l0 12zm44 -13l11 2c-2,4 -4,7 -7,9 -3,2 -7,3 -11,3 -7,0 -12,-2 -16,-7 -2,-4 -4,-8 -4,-14 0,-6 2,-12 6,-16 3,-3 8,-5 13,-5 6,0 11,2 14,6 3,4 5,10 5,18l-27 0c0,3 1,6 3,7 2,2 4,3 6,3 2,0 3,0 4,-1 1,-1 2,-3 3,-5zm0 -10c0,-4 0,-6 -2,-8 -2,-1 -3,-2 -6,-2 -2,0 -4,1 -5,3 -2,1 -2,4 -2,7l15 0zm16 12l11 -2c0,2 1,4 2,5 2,1 4,1 6,1 3,0 5,0 7,-1 1,-1 1,-2 1,-3 0,-1 0,-2 -1,-2 0,-1 -2,-1 -3,-1 -9,-2 -14,-4 -17,-6 -3,-2 -5,-5 -5,-9 0,-3 2,-6 5,-9 2,-2 7,-3 12,-3 6,0 10,1 13,3 2,1 4,4 5,8l-10 1c0,-1 -1,-2 -2,-3 -1,-1 -3,-2 -5,-2 -3,0 -5,1 -7,2 0,0 -1,1 -1,2 0,1 1,1 1,2 1,0 5,2 10,3 6,1 10,3 12,5 3,1 4,4 4,7 0,4 -2,7 -5,10 -3,3 -8,4 -14,4 -5,0 -10,-1 -13,-3 -3,-2 -5,-6 -6,-9zm66 -29l0 8 -8 0 0 17c0,3 0,5 0,5 1,1 1,1 1,2 1,0 1,0 2,0 1,0 3,0 5,-1l0 8c-2,1 -5,2 -8,2 -2,0 -4,0 -5,-1 -2,-1 -3,-1 -4,-2 0,-1 -1,-3 -1,-5 0,-1 0,-3 0,-7l0 -18 -5 0 0 -8 5 0 0 -8 10 -7 0 15 8 0zm7 -6l0 -10 11 0 0 10 -11 0zm0 46l0 -40 11 0 0 40 -11 0zm58 0l-10 0 0 -21c0,-4 -1,-7 -1,-8 -1,-1 -1,-2 -2,-3 -1,-1 -3,-1 -4,-1 -2,0 -3,1 -5,1 -1,2 -3,3 -3,4 -1,2 -1,5 -1,10l0 18 -11 0 0 -40 10 0 0 6c4,-5 8,-7 14,-7 2,0 4,0 6,1 2,1 4,2 5,3 1,2 1,3 2,5 0,1 0,4 0,7l0 25zm10 3l12 1c1,2 1,3 2,3 1,1 2,1 5,1 2,0 4,0 6,-1 1,-1 1,-1 2,-3 0,-1 1,-2 1,-5l0 -5c-4,4 -8,6 -13,6 -5,0 -9,-2 -13,-7 -2,-4 -3,-8 -3,-13 0,-7 1,-12 5,-16 3,-3 7,-5 12,-5 5,0 9,2 12,6l0 -5 10 0 0 36c0,5 0,8 -1,11 -1,2 -2,4 -3,5 -2,1 -4,3 -6,3 -2,1 -5,1 -9,1 -7,0 -12,-1 -15,-3 -2,-2 -4,-5 -4,-9 0,0 0,-1 0,-1zm10 -24c0,4 0,7 2,9 2,2 4,3 6,3 3,0 5,-1 7,-3 2,-2 3,-5 3,-9 0,-4 -1,-7 -3,-9 -2,-2 -4,-3 -6,-3 -3,0 -5,1 -7,3 -2,2 -2,5 -2,9zm-325 108l0 -56 19 0c6,0 11,1 13,1 3,1 6,3 8,6 2,2 3,6 3,10 0,4 -1,7 -2,9 -1,2 -3,4 -5,6 -1,1 -3,2 -5,2 -3,1 -7,1 -12,1l-7 0 0 21 -12 0zm12 -46l0 16 6 0c4,0 7,-1 9,-1 1,-1 2,-2 3,-3 1,-1 2,-3 2,-4 0,-2 -1,-4 -2,-5 -1,-2 -3,-3 -5,-3 -1,0 -4,0 -8,0l-5 0zm40 46l0 -56 42 0 0 10 -30 0 0 12 28 0 0 9 -28 0 0 16 31 0 0 9 -43 0zm52 0l0 -56 24 0c6,0 10,1 13,2 3,1 5,3 7,5 1,3 2,6 2,9 0,4 -1,8 -4,10 -2,3 -6,5 -11,5 3,2 5,3 6,5 2,2 4,5 7,9l6 11 -13 0 -8 -12c-3,-4 -5,-7 -6,-8 -1,-1 -2,-2 -3,-3 -2,0 -4,0 -6,0l-2 0 0 23 -12 0zm12 -32l8 0c5,0 9,0 10,-1 1,0 2,-1 3,-2 1,-1 1,-3 1,-4 0,-2 0,-4 -1,-5 -1,-1 -3,-2 -4,-2 -1,0 -4,0 -9,0l-8 0 0 14zm42 14l11 -1c0,4 2,6 4,8 2,2 4,3 8,3 3,0 6,-1 8,-3 2,-1 3,-3 3,-5 0,-1 -1,-3 -2,-4 0,0 -2,-1 -4,-2 -1,0 -4,-1 -9,-2 -6,-2 -10,-4 -12,-6 -4,-3 -5,-7 -5,-11 0,-3 0,-6 2,-8 2,-3 4,-4 7,-6 3,-1 7,-2 11,-2 7,0 12,2 16,5 3,3 5,7 5,12l-11 1c-1,-3 -2,-5 -3,-7 -2,-1 -4,-1 -7,-1 -3,0 -6,0 -8,2 -1,1 -2,2 -2,3 0,1 1,3 2,4 1,1 5,2 10,3 6,2 10,3 13,4 2,2 4,4 6,6 1,2 2,5 2,9 0,3 -1,6 -3,9 -2,3 -4,5 -7,6 -4,1 -8,2 -12,2 -8,0 -13,-2 -17,-5 -4,-3 -6,-8 -6,-14zm52 -9c0,-6 1,-11 3,-15 1,-3 3,-5 5,-7 2,-3 4,-4 7,-6 4,-1 8,-2 12,-2 8,0 15,3 20,8 5,5 7,12 7,21 0,9 -2,16 -7,21 -5,6 -12,8 -20,8 -8,0 -15,-2 -20,-8 -4,-5 -7,-12 -7,-20zm12 -1c0,6 1,11 4,14 3,4 7,5 11,5 5,0 8,-1 11,-5 3,-3 5,-8 5,-14 0,-6 -2,-11 -5,-14 -2,-4 -6,-5 -11,-5 -4,0 -8,1 -11,5 -3,3 -4,8 -4,14zm51 28l0 -56 11 0 23 38 0 -38 10 0 0 56 -11 0 -23 -37 0 37 -10 0z"/>
  <path id="path67" class="fil1" d="M3005 907l0 -59 25 0c6,0 11,0 14,1 3,1 5,3 7,6 2,3 2,6 2,9 0,5 -1,9 -4,11 -2,3 -6,5 -11,6 2,1 4,3 6,5 2,2 4,5 7,10l7 11 -14 0 -9 -13c-3,-4 -5,-7 -6,-9 -1,-1 -2,-2 -4,-2 -1,0 -3,-1 -6,-1l-2 0 0 25 -12 0zm12 -34l9 0c5,0 9,0 10,-1 2,0 3,-1 4,-2 1,-2 1,-3 1,-5 0,-2 -1,-3 -2,-5 -1,-1 -2,-2 -4,-2 -1,0 -4,0 -9,0l-9 0 0 15zm48 34l0 -59 44 0 0 10 -32 0 0 13 29 0 0 10 -29 0 0 16 33 0 0 10 -45 0zm52 -19l12 -1c0,4 2,7 4,8 2,2 5,3 9,3 3,0 6,-1 8,-2 2,-2 3,-4 3,-6 0,-1 0,-3 -1,-4 -1,-1 -2,-2 -4,-2 -2,-1 -5,-2 -10,-3 -6,-1 -11,-3 -13,-6 -4,-3 -6,-7 -6,-12 0,-3 1,-6 3,-8 2,-3 4,-5 7,-6 3,-2 7,-2 12,-2 7,0 13,1 17,5 3,3 5,7 6,13l-12 0c-1,-3 -2,-5 -4,-6 -1,-2 -4,-2 -7,-2 -4,0 -6,0 -8,2 -2,1 -2,2 -2,3 0,2 0,3 1,4 2,1 6,3 11,4 6,1 11,3 13,4 3,2 5,4 7,6 2,3 2,6 2,10 0,3 -1,7 -3,9 -1,3 -4,6 -8,7 -3,2 -7,2 -12,2 -8,0 -14,-1 -18,-5 -4,-3 -6,-8 -7,-15zm59 19l0 -59 19 0c7,0 12,0 14,1 4,1 6,2 9,5 2,3 3,7 3,12 0,4 -1,7 -2,9 -1,3 -3,5 -5,6 -2,1 -4,2 -6,3 -3,0 -7,1 -13,1l-7 0 0 22 -12 0zm12 -49l0 17 6 0c5,0 8,-1 10,-1 1,-1 3,-2 3,-3 1,-2 2,-3 2,-5 0,-2 -1,-4 -2,-5 -1,-2 -3,-2 -5,-3 -1,0 -4,0 -9,0l-5 0zm43 49l0 -59 44 0 0 10 -32 0 0 13 30 0 0 10 -30 0 0 16 33 0 0 10 -45 0zm94 -22l11 4c-2,6 -5,11 -9,14 -4,4 -9,5 -16,5 -7,0 -14,-2 -19,-8 -5,-5 -8,-13 -8,-22 0,-10 3,-18 8,-23 5,-6 12,-8 20,-8 7,0 13,2 18,6 3,3 5,6 6,11l-12 3c-1,-3 -2,-6 -4,-7 -3,-2 -5,-3 -8,-3 -5,0 -8,2 -11,5 -3,3 -4,8 -4,15 0,7 1,13 4,16 2,3 6,5 10,5 3,0 6,-1 9,-3 2,-2 3,-5 5,-10zm35 22l0 -49 -18 0 0 -10 47 0 0 10 -17 0 0 49 -12 0z"/>
  <path id="path69" class="fil1" d="M606 1024l-6 -2c0,-2 2,-4 3,-5 2,-2 5,-2 8,-2 3,0 6,0 7,1 2,1 3,2 3,3 1,1 1,3 1,6l0 8c0,2 0,4 1,5 0,1 0,3 1,4l-7 0c0,-1 -1,-1 -1,-2 0,-1 0,-1 0,-1 -1,1 -3,2 -4,3 -1,0 -3,0 -4,0 -3,0 -5,0 -7,-2 -1,-1 -2,-3 -2,-5 0,-2 0,-3 1,-4 1,-2 2,-2 3,-3 1,-1 3,-1 6,-2 3,0 5,-1 6,-1l0 -1c0,-1 0,-2 -1,-3 0,-1 -1,-1 -3,-1 -2,0 -3,0 -3,1 -1,0 -1,1 -2,3zm9 5c0,0 -2,1 -4,1 -2,1 -3,1 -4,1 -1,1 -1,2 -1,3 0,1 0,2 1,2 1,1 2,1 3,1 1,0 2,0 3,-1 1,0 2,-1 2,-2 0,-1 0,-2 0,-4l0 -1zm19 13l-8 -27 6 0 5 18 5 -18 7 0 4 18 5 -18 7 0 -8 27 -7 0 -5 -17 -4 17 -7 0zm50 -9l7 2c-1,2 -2,4 -4,5 -2,2 -4,2 -7,2 -5,0 -8,-1 -11,-4 -1,-2 -2,-5 -2,-9 0,-5 1,-8 3,-11 3,-2 5,-3 9,-3 4,0 7,1 9,4 2,2 4,6 4,12l-18 0c0,2 1,3 2,4 1,2 2,2 4,2 1,0 2,0 2,-1 1,0 2,-1 2,-3zm1 -7c-1,-2 -1,-3 -2,-4 -1,-1 -2,-2 -4,-2 -1,0 -2,1 -3,2 -1,1 -2,2 -2,4l11 0zm10 8l7 -1c0,2 1,3 2,3 0,1 2,1 3,1 2,0 4,0 5,-1 0,0 0,-1 0,-1 0,-1 0,-1 0,-2 0,0 -1,0 -2,-1 -6,-1 -10,-2 -11,-3 -2,-2 -3,-4 -3,-6 0,-2 1,-4 2,-6 2,-2 5,-2 9,-2 3,0 6,0 8,2 2,1 3,3 3,5l-6 1c0,-1 -1,-2 -2,-2 -1,-1 -2,-1 -3,-1 -2,0 -3,0 -4,1 -1,0 -1,0 -1,1 0,0 0,1 1,1 0,1 3,1 6,2 4,1 7,2 8,3 2,2 2,3 2,6 0,2 -1,4 -3,6 -2,2 -5,2 -9,2 -3,0 -6,0 -8,-2 -2,-1 -4,-3 -4,-6zm29 -6c0,-2 0,-4 2,-6 1,-3 2,-4 5,-6 2,-1 4,-1 7,-1 4,0 7,1 9,4 3,2 4,6 4,9 0,5 -1,8 -4,11 -2,2 -5,3 -9,3 -3,0 -5,0 -7,-1 -2,-1 -4,-3 -5,-5 -2,-2 -2,-5 -2,-8zm7 1c0,2 1,4 2,6 1,1 3,2 5,2 1,0 3,-1 4,-2 1,-2 2,-4 2,-6 0,-3 -1,-5 -2,-6 -1,-2 -3,-3 -4,-3 -2,0 -4,1 -5,3 -1,1 -2,3 -2,6zm25 -14l7 0 0 4c2,-3 5,-4 8,-4 2,0 3,0 4,1 1,1 3,2 3,3 2,-1 3,-2 4,-3 1,-1 3,-1 4,-1 2,0 4,0 5,1 2,1 3,2 3,3 1,2 1,3 1,6l0 17 -7 0 0 -15c0,-3 0,-5 -1,-5 0,-1 -1,-2 -3,-2 -1,0 -2,0 -2,1 -1,1 -2,1 -2,3 -1,1 -1,3 -1,5l0 13 -7 0 0 -15c0,-2 0,-4 0,-5 0,0 -1,-1 -1,-1 -1,-1 -2,-1 -2,-1 -2,0 -3,0 -3,1 -1,1 -2,1 -2,3 -1,1 -1,2 -1,5l0 13 -7 0 0 -27zm61 18l7 2c-1,2 -2,4 -4,5 -2,2 -4,2 -7,2 -5,0 -8,-1 -10,-4 -2,-2 -3,-5 -3,-9 0,-5 1,-8 3,-11 3,-2 6,-3 9,-3 4,0 7,1 9,4 3,2 4,6 4,12l-18 0c0,2 1,3 2,4 1,2 2,2 4,2 1,0 2,0 3,-1 0,0 1,-1 1,-3zm1 -7c0,-2 -1,-3 -2,-4 -1,-1 -2,-2 -3,-2 -2,0 -3,1 -4,2 -1,1 -2,2 -2,4l11 0zm-197 55c0,-4 0,-7 1,-10 1,-2 2,-3 4,-5 1,-1 3,-2 4,-3 3,-1 5,-1 8,-1 6,0 10,1 13,5 3,3 5,8 5,14 0,5 -2,10 -5,13 -3,4 -7,5 -13,5 -5,0 -9,-1 -12,-5 -4,-3 -5,-7 -5,-13zm7 -1c0,5 1,8 3,10 2,2 4,3 7,3 3,0 6,-1 8,-3 2,-2 3,-5 3,-10 0,-4 -1,-7 -3,-9 -2,-2 -5,-3 -8,-3 -3,0 -5,1 -7,3 -2,2 -3,5 -3,9zm34 19l0 -37 25 0 0 6 -18 0 0 9 16 0 0 6 -16 0 0 16 -7 0zm31 0l0 -37 25 0 0 6 -18 0 0 9 16 0 0 6 -16 0 0 16 -7 0zm31 0l0 -37 7 0 0 37 -7 0zm38 -14l7 2c-1,5 -3,8 -6,9 -2,2 -5,3 -9,3 -5,0 -9,-1 -12,-5 -3,-3 -5,-7 -5,-13 0,-6 2,-11 5,-14 3,-4 7,-5 12,-5 5,0 8,1 11,4 2,1 3,3 4,6l-8 2c0,-2 -1,-3 -2,-4 -2,-2 -3,-2 -5,-2 -3,0 -5,1 -7,3 -2,2 -2,5 -2,9 0,5 0,8 2,10 2,2 4,3 7,3 2,0 3,-1 5,-2 1,-1 2,-3 3,-6zm13 14l0 -37 27 0 0 6 -20 0 0 9 19 0 0 6 -19 0 0 10 21 0 0 6 -28 0z"/>
  <path id="path71" class="fil1" d="M520 693l0 -6c-2,2 -4,3 -6,5 -2,1 -5,1 -7,1 -3,0 -5,0 -8,-1 -2,-1 -3,-3 -4,-5 -1,-2 -1,-5 -1,-9l0 -25 10 0 0 18c0,6 0,9 0,10 1,2 2,3 3,3 1,1 2,2 4,2 1,0 3,-1 4,-2 2,-1 3,-2 3,-4 1,-1 1,-5 1,-10l0 -17 10 0 0 40 -9 0zm16 -12l11 -1c0,2 1,3 3,4 1,1 3,2 5,2 3,0 5,-1 6,-2 1,0 2,-1 2,-2 0,-1 -1,-2 -1,-2 -1,-1 -2,-1 -4,-2 -8,-2 -13,-3 -15,-5 -4,-2 -5,-5 -5,-9 0,-3 1,-6 4,-8 3,-3 7,-4 12,-4 6,0 10,1 12,3 3,2 5,4 6,8l-10 2c0,-2 -1,-3 -2,-4 -2,-1 -3,-1 -5,-1 -3,0 -5,0 -6,1 -1,0 -2,1 -2,2 0,1 1,1 2,2 0,1 4,2 9,3 6,1 10,3 12,4 2,2 3,5 3,8 0,4 -1,7 -4,10 -3,2 -8,3 -14,3 -5,0 -9,-1 -12,-3 -4,-2 -6,-5 -7,-9zm46 -33l0 -10 11 0 0 10 -11 0zm0 45l0 -40 11 0 0 40 -11 0zm57 0l-10 0 0 -21c0,-4 0,-7 -1,-8 0,-1 -1,-2 -2,-3 -1,0 -2,-1 -4,-1 -1,0 -3,1 -4,2 -2,1 -3,2 -3,4 -1,1 -1,4 -1,9l0 18 -11 0 0 -40 10 0 0 6c3,-5 8,-7 13,-7 2,0 5,1 6,1 2,1 4,2 5,4 1,1 1,2 2,4 0,2 0,4 0,7l0 25zm10 2l12 1c0,2 1,3 1,3 1,1 3,1 5,1 3,0 5,0 6,-1 1,0 2,-1 2,-2 1,-1 1,-3 1,-5l0 -6c-3,4 -7,7 -12,7 -5,0 -10,-3 -13,-7 -2,-4 -3,-8 -3,-13 0,-7 1,-12 4,-16 4,-3 8,-5 12,-5 5,0 9,2 12,7l0 -6 10 0 0 35c0,5 0,9 -1,11 -1,2 -2,4 -3,5 -2,2 -4,3 -6,3 -2,1 -5,1 -9,1 -6,0 -11,-1 -14,-3 -3,-2 -4,-5 -4,-9 0,0 0,-1 0,-1zm9 -23c0,4 1,7 3,9 1,2 3,3 6,3 2,0 4,-1 6,-3 2,-2 3,-5 3,-9 0,-4 -1,-7 -3,-9 -1,-2 -4,-3 -6,-3 -3,0 -5,1 -6,3 -2,2 -3,5 -3,9zm-207 105l-19 -54 12 0 13 40 14 -40 12 0 -20 54 -12 0zm37 0l0 -54 40 0 0 9 -29 0 0 12 27 0 0 9 -27 0 0 15 30 0 0 9 -41 0zm86 -20l10 4c-1,6 -4,10 -8,13 -4,3 -9,4 -14,4 -8,0 -14,-2 -18,-7 -5,-5 -7,-12 -7,-20 0,-9 2,-16 7,-22 5,-4 11,-7 18,-7 7,0 12,2 17,6 2,2 4,6 5,10l-11 3c0,-3 -2,-5 -4,-7 -2,-2 -4,-2 -7,-2 -4,0 -8,1 -10,4 -3,3 -4,7 -4,14 0,7 1,12 4,15 2,3 6,4 10,4 2,0 5,-1 7,-3 2,-2 4,-5 5,-9zm32 20l0 -45 -16 0 0 -9 43 0 0 9 -16 0 0 45 -11 0zm31 -26c0,-6 0,-11 2,-14 1,-3 3,-6 5,-8 2,-2 5,-4 7,-5 3,-1 7,-2 12,-2 8,0 14,3 19,7 5,5 7,12 7,21 0,9 -2,16 -7,21 -5,5 -11,7 -19,7 -8,0 -15,-2 -19,-7 -5,-5 -7,-12 -7,-20zm11 -1c0,6 1,11 4,14 3,3 7,5 11,5 4,0 8,-2 11,-5 3,-3 4,-8 4,-14 0,-6 -1,-11 -4,-14 -3,-3 -7,-4 -11,-4 -5,0 -8,1 -11,4 -3,3 -4,8 -4,14zm50 27l0 -54 23 0c6,0 10,0 13,2 2,0 4,2 6,5 2,2 2,5 2,8 0,4 -1,8 -3,10 -3,3 -6,5 -11,5 3,2 4,3 6,5 2,2 4,5 6,9l7 10 -13 0 -8 -11c-3,-5 -5,-7 -6,-8 -1,-1 -2,-2 -3,-3 -1,0 -3,0 -6,0l-2 0 0 22 -11 0zm11 -31l8 0c5,0 9,0 10,-1 1,0 2,-1 3,-2 1,-1 1,-2 1,-4 0,-2 0,-3 -1,-4 -1,-2 -3,-2 -4,-3 -1,0 -4,0 -8,0l-9 0 0 14z"/>
  <path id="path73" class="fil1" d="M2752 369l6 -1c1,1 1,2 2,3 1,0 2,0 3,0 2,0 3,0 4,0 0,-1 0,-1 0,-2 0,0 0,-1 0,-1 0,0 -1,-1 -2,-1 -5,-1 -8,-2 -9,-3 -2,-1 -3,-3 -3,-5 0,-2 1,-4 2,-5 2,-1 4,-2 8,-2 3,0 5,1 7,2 1,1 2,2 3,4l-6 1c0,-1 -1,-1 -1,-2 -1,0 -2,-1 -3,-1 -2,0 -3,1 -4,1 0,0 0,1 0,1 0,1 0,1 0,1 1,1 3,1 6,2 3,1 5,2 7,3 1,1 1,2 1,4 0,2 0,4 -2,6 -2,1 -4,2 -8,2 -3,0 -5,-1 -7,-2 -2,-1 -3,-3 -4,-5zm27 6l0 -31 6 0 0 31 -6 0zm25 -7l6 1c-1,2 -2,4 -4,5 -2,1 -4,2 -6,2 -4,0 -7,-2 -9,-4 -1,-2 -2,-5 -2,-8 0,-4 1,-7 3,-9 2,-2 4,-3 7,-3 4,0 6,1 8,3 2,3 3,6 3,11l-15 0c0,1 1,3 2,4 0,1 2,1 3,1 1,0 2,0 2,-1 1,0 1,-1 2,-2zm0 -6c0,-2 0,-3 -1,-4 -1,-1 -2,-1 -3,-1 -2,0 -3,0 -4,1 0,1 -1,2 -1,4l9 0zm24 6l6 1c-1,2 -2,4 -4,5 -1,1 -3,2 -6,2 -4,0 -7,-2 -9,-4 -1,-2 -2,-5 -2,-8 0,-4 1,-7 3,-9 2,-2 4,-3 8,-3 3,0 5,1 7,3 2,3 3,6 3,11l-15 0c0,1 1,3 2,4 1,1 2,1 3,1 1,0 2,0 2,-1 1,0 2,-1 2,-2zm0 -6c0,-2 0,-3 -1,-4 -1,-1 -2,-1 -3,-1 -1,0 -2,0 -3,1 -1,1 -2,2 -2,4l9 0zm11 -9l5 0 0 3c1,-1 2,-2 3,-3 2,0 3,-1 4,-1 3,0 5,1 7,3 2,2 3,5 3,9 0,4 -1,6 -3,9 -2,2 -4,3 -7,3 -1,0 -2,0 -3,-1 -1,-1 -2,-1 -3,-3l0 12 -6 0 0 -31zm6 10c0,3 0,5 1,6 1,1 2,2 4,2 1,0 2,-1 3,-2 1,-1 2,-3 2,-5 0,-3 -1,-4 -2,-5 -1,-2 -2,-2 -3,-2 -2,0 -3,0 -4,2 -1,1 -1,2 -1,4z"/>
 </g>
</svg>
