<?xml version="1.0" encoding="UTF-8" standalone="no"?>
<!-- Creator: CorelDRAW X7 -->

<svg
   xmlns:dc="http://purl.org/dc/elements/1.1/"
   xmlns:cc="http://creativecommons.org/ns#"
   xmlns:rdf="http://www.w3.org/1999/02/22-rdf-syntax-ns#"
   xmlns:svg="http://www.w3.org/2000/svg"
   xmlns="http://www.w3.org/2000/svg"
   xmlns:sodipodi="http://sodipodi.sourceforge.net/DTD/sodipodi-0.dtd"
   xmlns:inkscape="http://www.inkscape.org/namespaces/inkscape"
   xml:space="preserve"
   width="297mm"
   height="210mm"
   version="1.1"
   style="shape-rendering:geometricPrecision; text-rendering:geometricPrecision; image-rendering:optimizeQuality; fill-rule:evenodd; clip-rule:evenodd"
   viewBox="0 0 29700 21000"
   id="svg2"
   inkscape:version="0.91 r13725"
   sodipodi:docname="cirlcelife.svg"><metadata
   id="metadata77"><rdf:RDF><cc:Work
       rdf:about=""><dc:format>image/svg+xml</dc:format><dc:type
         rdf:resource="http://purl.org/dc/dcmitype/StillImage" /></cc:Work></rdf:RDF></metadata><sodipodi:namedview
   pagecolor="#ffffff"
   bordercolor="#666666"
   borderopacity="1"
   objecttolerance="10"
   gridtolerance="10"
   guidetolerance="10"
   inkscape:pageopacity="0"
   inkscape:pageshadow="2"
   inkscape:window-width="1301"
   inkscape:window-height="746"
   id="namedview75"
   showgrid="false"
   inkscape:zoom="3.5883013"
   inkscape:cx="595.06709"
   inkscape:cy="137.67434"
   inkscape:window-x="57"
   inkscape:window-y="-8"
   inkscape:window-maximized="1"
   inkscape:current-layer="svg2" />
 <defs
   id="defs4">
  <style
   type="text/css"
   id="style6">
   <![CDATA[
    .str0 {stroke:#7E7E7E;stroke-width:7.62}
    .fil0 {fill:#7E7E7E}
    .fil1 {fill:#FEFEFE;fill-rule:nonzero}
   ]]>
  </style>
 
  
  
  
  
  
  
  
  
  
  
  
  
  
  
  
  
  
  
 
   
   
   
   
   
   
   
   
   
   
   
   
   
   
   
   
  </defs>
 <circle
   style="fill:#7e7e7e"
   id="circle10"
   cy="5757.6611"
   cx="17539.83"
   class="fil0"
   r="2940" /><circle
   style="fill:#7e7e7e"
   id="circle12"
   cy="13238.355"
   cx="3642.8975"
   class="fil0"
   r="2940" /><circle
   style="fill:#7e7e7e"
   id="circle14"
   cy="9016.6611"
   cx="22401.832"
   class="fil0"
   r="2940" /><circle
   style="fill:#7e7e7e"
   id="circle18"
   cy="2958.5762"
   cx="4176.4585"
   class="fil0"
   r="2260" /><circle
   style="fill:#7e7e7e"
   id="circle20"
   cy="7978.373"
   cx="27408.307"
   class="fil0"
   r="1941" /><ellipse
   style="fill:#7e7e7e"
   id="circle22"
   cy="13668.661"
   cx="21698.832"
   class="fil0"
   r="1941" /><circle
   style="fill:#7e7e7e"
   id="circle24"
   cy="12328.458"
   cx="16171.68"
   class="fil0"
   r="1583" /><circle
   style="fill:#7e7e7e"
   id="circle32"
   cy="18672.492"
   cx="24243.068"
   class="fil0"
   r="1931" /><circle
   style="fill:#7e7e7e"
   id="circle36"
   cy="1860.8033"
   cx="18986.482"
   class="fil0"
   r="1265" /><ellipse
   style="fill:#7e7e7e"
   id="circle38"
   cy="16136.661"
   cx="18852.832"
   class="fil0"
   r="1886" /><path
   class="fil1"
   d="m 16095.831,5285.661 146,-22 c 7,28 19,49 38,64 19,14 46,22 80,22 37,0 66,-7 85,-21 13,-10 19,-23 19,-39 0,-11 -4,-20 -11,-28 -7,-6 -23,-13 -48,-19 -118,-26 -192,-49 -223,-71 -44,-30 -66,-71 -66,-124 0,-48 19,-88 57,-120 37,-33 96,-49 175,-49 75,0 131,12 167,37 37,25 62,61 76,109 l -137,26 c -5,-22 -17,-38 -33,-50 -17,-11 -40,-17 -71,-17 -38,0 -66,5 -82,16 -12,8 -17,18 -17,30 0,10 5,19 14,26 14,10 59,23 137,41 77,18 132,39 162,65 31,26 46,62 46,108 0,50 -21,94 -63,130 -42,36 -104,54 -187,54 -75,0 -134,-15 -178,-45 -44,-30 -72,-71 -86,-123 z m 1005,155 0,-83 c -20,30 -47,53 -79,70 -33,18 -67,26 -104,26 -37,0 -70,-8 -99,-24 -30,-16 -51,-39 -64,-68 -13,-30 -20,-71 -20,-122 l 0,-349 146,0 0,253 c 0,77 2,125 8,142 5,18 15,32 29,42 14,10 32,15 54,15 25,0 47,-7 67,-20 20,-14 33,-31 40,-51 8,-20 11,-70 11,-149 l 0,-232 145,0 0,550 -134,0 z m 279,-550 136,0 0,80 c 18,-27 41,-49 71,-67 30,-16 64,-25 100,-25 64,0 118,25 163,75 44,50 67,120 67,210 0,92 -23,163 -68,214 -45,51 -99,76 -163,76 -30,0 -58,-6 -82,-18 -25,-12 -51,-32 -78,-62 l 0,275 -146,0 0,-758 z m 144,266 c 0,62 12,108 36,138 25,29 54,44 89,44 34,0 62,-14 85,-41 22,-27 33,-72 33,-134 0,-57 -11,-100 -34,-128 -23,-29 -52,-43 -86,-43 -36,0 -65,14 -88,42 -24,27 -35,68 -35,122 z m 826,110 145,24 c -19,53 -48,94 -88,122 -40,27 -91,41 -151,41 -95,0 -166,-31 -212,-93 -36,-51 -54,-114 -54,-190 0,-91 23,-163 71,-214 47,-52 108,-78 180,-78 82,0 146,27 194,81 47,54 70,137 67,249 l -363,0 c 1,43 13,76 35,100 22,24 50,36 83,36 23,0 42,-6 58,-18 15,-13 27,-33 35,-60 z m 8,-147 c -1,-43 -12,-75 -32,-97 -21,-22 -46,-33 -76,-33 -31,0 -57,12 -78,35 -21,23 -31,55 -30,95 l 216,0 z m 402,321 -145,0 0,-550 134,0 0,78 c 24,-37 44,-61 63,-73 19,-11 40,-17 63,-17 33,0 65,9 96,27 l -45,127 c -25,-16 -47,-24 -68,-24 -21,0 -38,6 -52,17 -14,11 -26,32 -34,61 -8,29 -12,91 -12,184 l 0,170 z m -2508,904 149,45 c -23,84 -61,146 -114,186 -53,41 -120,61 -201,61 -101,0 -184,-34 -249,-103 -65,-69 -97,-163 -97,-283 0,-126 32,-224 97,-294 66,-70 151,-105 258,-105 93,0 168,28 226,82 35,33 60,80 78,140 l -152,37 c -9,-40 -28,-71 -56,-94 -29,-22 -63,-34 -104,-34 -56,0 -102,20 -137,61 -35,40 -53,106 -53,196 0,96 18,164 52,205 35,40 80,61 135,61 41,0 76,-13 105,-39 30,-26 51,-67 63,-122 z m 280,279 0,-758 323,0 c 81,0 140,7 177,20 37,14 66,38 88,73 22,35 33,75 33,119 0,57 -16,104 -50,141 -33,38 -83,61 -149,71 33,19 60,40 81,63 22,23 51,64 87,123 l 93,148 -183,0 -110,-165 c -40,-59 -67,-96 -81,-111 -15,-16 -30,-26 -46,-32 -17,-6 -43,-8 -78,-8 l -31,0 0,316 -154,0 z m 154,-437 113,0 c 74,0 120,-3 138,-10 18,-6 33,-17 43,-32 10,-15 15,-34 15,-57 0,-25 -7,-46 -20,-62 -14,-15 -33,-25 -58,-29 -12,-2 -49,-3 -111,-3 l -120,0 0,193 z m 1295,437 -165,0 -66,-172 -304,0 -63,172 -163,0 295,-758 162,0 304,758 z m -281,-301 -105,-280 -103,280 208,0 z m 296,301 0,-137 400,-493 -354,0 0,-128 555,0 0,118 -416,512 432,0 0,128 -617,0 z m 913,0 0,-319 -278,-439 180,0 179,300 175,-300 176,0 -278,440 0,318 -154,0 z"
   id="path43"
   inkscape:connector-curvature="0"
   style="fill:#fefefe;fill-rule:nonzero" /><path
   class="fil1"
   d="m 2162.8984,12669.356 -124,-22 c 14,-51 38,-88 72,-113 35,-24 86,-36 153,-36 62,0 107,7 138,21 29,15 51,33 63,56 12,22 18,63 18,123 l -2,161 c 0,45 3,79 7,101 4,22 12,45 24,70 l -136,0 c -4,-9 -8,-23 -13,-41 -2,-8 -4,-13 -5,-16 -24,24 -49,41 -75,52 -27,12 -56,18 -86,18 -53,0 -95,-15 -126,-44 -31,-29 -46,-66 -46,-110 0,-30 7,-56 21,-79 14,-23 33,-41 59,-53 25,-12 61,-23 109,-32 64,-12 109,-23 134,-34 l 0,-14 c 0,-26 -7,-45 -20,-57 -13,-11 -38,-17 -74,-17 -25,0 -44,5 -57,15 -14,9 -25,27 -34,51 z m 185,112 c -18,6 -46,13 -84,21 -38,8 -63,16 -75,24 -18,13 -27,29 -27,48 0,20 7,36 22,50 14,14 32,21 55,21 24,0 48,-8 71,-24 16,-13 27,-28 32,-46 4,-12 6,-34 6,-67 l 0,-27 z m 271,249 0,-719 138,0 0,719 -138,0 z m 375,0 -164,-521 134,0 97,341 90,-341 133,0 86,341 100,-341 136,0 -168,521 -132,0 -89,-336 -89,336 -134,0 z m 787,-361 -124,-22 c 14,-51 38,-88 72,-113 35,-24 86,-36 153,-36 62,0 108,7 138,21 30,15 51,33 63,56 12,22 19,63 19,123 l -2,161 c 0,45 2,79 6,101 4,22 13,45 25,70 l -137,0 c -3,-9 -8,-23 -13,-41 -2,-8 -4,-13 -5,-16 -23,24 -48,41 -75,52 -27,12 -55,18 -86,18 -53,0 -95,-15 -126,-44 -31,-29 -46,-66 -46,-110 0,-30 7,-56 21,-79 14,-23 33,-41 59,-53 25,-12 62,-23 109,-32 65,-12 109,-23 134,-34 l 0,-14 c 0,-26 -6,-45 -20,-57 -13,-11 -38,-17 -74,-17 -24,0 -44,5 -57,15 -14,9 -25,27 -34,51 z m 185,112 c -18,6 -45,13 -84,21 -38,8 -63,16 -75,24 -18,13 -27,29 -27,48 0,20 7,36 22,50 14,14 33,21 55,21 25,0 48,-8 71,-24 16,-13 27,-28 33,-46 3,-12 5,-34 5,-67 l 0,-27 z m 205,-272 147,0 125,369 122,-369 142,0 -184,501 -33,91 c -12,30 -23,53 -35,69 -10,16 -23,29 -37,39 -15,10 -32,18 -53,23 -21,6 -44,8 -71,8 -26,0 -52,-2 -78,-8 l -12,-107 c 22,4 41,6 59,6 32,0 56,-9 71,-28 15,-19 27,-43 35,-72 l -198,-522 z m 575,374 139,-21 c 6,27 18,47 36,61 18,13 43,20 75,20 36,0 63,-6 81,-19 12,-9 18,-22 18,-37 0,-11 -4,-19 -10,-26 -7,-7 -22,-13 -46,-18 -111,-25 -182,-47 -212,-68 -41,-28 -61,-67 -61,-117 0,-46 17,-83 53,-114 36,-31 91,-46 166,-46 71,0 124,11 159,35 34,23 58,57 71,103 l -129,24 c -6,-20 -16,-36 -32,-47 -16,-11 -38,-16 -67,-16 -36,0 -62,5 -78,15 -11,7 -16,17 -16,28 0,10 5,18 14,25 12,9 55,22 129,39 74,17 125,37 154,61 29,25 43,59 43,103 0,48 -20,89 -60,123 -39,34 -98,52 -177,52 -71,0 -127,-15 -168,-43 -42,-29 -69,-68 -82,-117 z m -3655,1268 0,-713 146,0 0,592 360,0 0,121 -506,0 z m 609,0 0,-719 532,0 0,122 -386,0 0,159 359,0 0,122 -359,0 0,195 400,0 0,121 -546,0 z m 1317,0 -156,0 -62,-163 -289,0 -60,163 -153,0 279,-719 153,0 288,719 z m -266,-285 -100,-266 -97,266 197,0 z m 344,285 0,-719 306,0 c 76,0 132,7 167,20 35,13 63,36 84,69 21,33 31,70 31,113 0,54 -16,98 -47,134 -32,35 -79,57 -142,66 31,18 57,38 77,60 21,22 48,61 83,117 l 87,140 -173,0 -104,-157 c -38,-55 -63,-91 -77,-105 -14,-15 -28,-25 -44,-30 -15,-5 -40,-8 -73,-8 l -30,0 0,300 -145,0 z m 145,-414 108,0 c 69,0 113,-3 130,-9 17,-6 31,-16 41,-31 10,-14 15,-32 15,-54 0,-24 -7,-43 -20,-59 -13,-14 -31,-24 -54,-28 -12,-1 -48,-2 -106,-2 l -114,0 0,183 z m 580,414 0,-719 141,0 296,482 0,-482 134,0 0,719 -145,0 -292,-472 0,472 -134,0 z m 720,0 0,-719 145,0 0,719 -145,0 z m 284,0 0,-719 141,0 296,482 0,-482 134,0 0,719 -145,0 -292,-472 0,472 -134,0 z m 1059,-264 0,-121 312,0 0,287 c -30,29 -74,55 -132,78 -57,22 -116,33 -175,33 -75,0 -140,-15 -196,-47 -56,-32 -98,-77 -126,-136 -28,-59 -42,-123 -42,-192 0,-75 15,-141 47,-200 31,-58 77,-103 137,-134 47,-24 104,-36 173,-36 89,0 158,19 209,57 50,37 82,89 96,155 l -144,27 c -10,-35 -29,-63 -57,-84 -28,-20 -63,-30 -105,-30 -63,0 -113,20 -151,60 -37,41 -56,100 -56,179 0,86 19,150 57,193 38,42 88,64 149,64 30,0 61,-6 91,-18 31,-12 57,-27 79,-44 l 0,-91 -166,0 z"
   id="path45"
   inkscape:connector-curvature="0"
   style="fill:#d40000;fill-rule:nonzero" /><path
   class="fil1"
   d="m 21213.831,8808.661 -127,0 0,-76 c -21,29 -47,52 -76,67 -29,15 -58,22 -87,22 -60,0 -112,-24 -155,-72 -42,-49 -64,-116 -64,-202 0,-89 21,-156 63,-202 41,-46 94,-69 157,-69 59,0 109,24 152,73 l 0,-260 137,0 0,719 z m -367,-271 c 0,56 8,97 23,121 22,37 53,55 93,55 31,0 58,-14 80,-41 23,-27 34,-67 34,-121 0,-60 -11,-104 -33,-130 -21,-26 -49,-40 -82,-40 -33,0 -60,13 -82,40 -22,26 -33,65 -33,116 z m 804,106 137,24 c -17,50 -45,88 -83,115 -38,26 -86,39 -143,39 -91,0 -158,-30 -201,-89 -34,-47 -51,-107 -51,-180 0,-86 22,-154 67,-203 45,-49 102,-73 171,-73 77,0 138,26 183,77 45,51 66,129 64,235 l -344,0 c 1,41 12,73 33,96 21,22 48,34 79,34 22,0 40,-6 55,-18 14,-12 25,-30 33,-57 z m 8,-139 c -1,-40 -11,-71 -31,-91 -19,-21 -43,-32 -71,-32 -30,0 -55,11 -75,33 -19,22 -29,52 -28,90 l 205,0 z m 392,304 -210,-521 145,0 98,266 28,89 c 8,-23 13,-38 15,-45 4,-15 9,-29 14,-44 l 100,-266 141,0 -207,521 -124,0 z m 415,-591 0,-128 138,0 0,128 -138,0 z m 0,591 0,-521 138,0 0,521 -138,0 z m 279,0 0,-719 138,0 0,719 -138,0 z m 558,-591 0,-128 138,0 0,128 -138,0 z m 0,591 0,-521 138,0 0,521 -138,0 z m 753,0 -138,0 0,-265 c 0,-57 -3,-93 -8,-109 -6,-17 -16,-30 -29,-39 -14,-9 -30,-14 -49,-14 -24,0 -45,7 -64,20 -20,13 -33,30 -40,52 -7,21 -10,61 -10,119 l 0,236 -138,0 0,-521 128,0 0,76 c 45,-58 103,-87 172,-87 31,0 59,5 84,16 25,11 44,25 57,42 13,17 22,37 27,58 5,22 8,52 8,93 l 0,323 z m -3699,403 264,0 c 60,0 106,4 137,14 42,12 78,34 108,66 30,31 53,70 69,116 15,46 23,103 23,170 0,59 -7,110 -22,153 -18,52 -43,95 -77,127 -25,25 -59,44 -102,57 -31,11 -74,16 -128,16 l -272,0 0,-719 z m 145,121 0,476 108,0 c 41,0 70,-2 88,-7 23,-6 43,-16 58,-30 16,-14 28,-37 38,-69 10,-32 15,-76 15,-132 0,-55 -5,-98 -15,-127 -10,-30 -24,-53 -41,-70 -18,-17 -40,-28 -67,-34 -20,-4 -60,-7 -119,-7 l -65,0 z m 580,598 0,-719 532,0 0,121 -387,0 0,160 360,0 0,121 -360,0 0,195 401,0 0,122 -546,0 z m 831,0 0,-598 -213,0 0,-121 570,0 0,121 -211,0 0,598 -146,0 z m 1025,0 -157,0 -62,-164 -288,0 -60,164 -154,0 279,-719 154,0 288,719 z m -266,-285 -100,-267 -97,267 197,0 z m 338,285 0,-719 146,0 0,719 -146,0 z m 288,0 0,-713 146,0 0,591 360,0 0,122 -506,0 z m 571,-233 142,-14 c 8,47 25,82 51,104 26,22 61,33 105,33 47,0 82,-10 106,-29 23,-20 35,-43 35,-70 0,-17 -5,-31 -15,-43 -10,-12 -27,-22 -52,-31 -17,-6 -55,-17 -116,-32 -77,-19 -131,-43 -163,-71 -44,-40 -66,-88 -66,-145 0,-37 11,-71 31,-103 21,-32 51,-56 90,-73 39,-17 86,-25 141,-25 90,0 158,20 203,60 45,40 69,93 71,160 l -145,5 c -6,-37 -20,-64 -40,-80 -20,-17 -50,-25 -91,-25 -42,0 -75,9 -98,26 -15,12 -23,26 -23,45 0,17 7,32 21,44 19,15 63,31 134,48 70,17 122,34 156,52 33,18 60,42 79,73 19,31 29,69 29,114 0,42 -12,80 -35,116 -23,36 -55,63 -97,80 -42,18 -94,27 -156,27 -91,0 -161,-21 -210,-63 -48,-42 -77,-103 -87,-183 z"
   id="path47"
   inkscape:connector-curvature="0"
   style="fill:#fefefe;fill-rule:nonzero" /><path
   class="fil1"
   d="m 21131.831,3056.661 0,-648 133,0 0,537 327,0 0,111 -460,0 z m 550,0 0,-654 132,0 0,654 -132,0 z m 258,0 0,-654 449,0 0,111 -317,0 0,155 274,0 0,110 -274,0 0,278 -132,0 z m 557,0 0,-654 484,0 0,111 -351,0 0,145 326,0 0,110 -326,0 0,177 364,0 0,111 -497,0 z m 858,0 0,-654 133,0 0,654 -133,0 z m 224,-212 128,-13 c 8,43 24,75 47,95 24,20 56,30 96,30 42,0 74,-9 95,-27 22,-18 33,-39 33,-63 0,-15 -5,-28 -14,-39 -9,-11 -25,-21 -47,-28 -16,-6 -51,-15 -105,-29 -71,-18 -120,-39 -149,-65 -40,-36 -60,-80 -60,-132 0,-33 10,-65 28,-94 19,-29 46,-51 82,-66 35,-15 78,-23 128,-23 82,0 143,18 185,55 41,36 63,84 65,145 l -133,5 c -5,-34 -17,-58 -36,-73 -18,-15 -46,-22 -83,-22 -38,0 -67,8 -89,23 -14,11 -21,24 -21,41 0,16 7,29 20,40 16,14 57,29 121,44 64,15 111,31 142,47 30,16 55,38 72,66 17,29 26,63 26,104 0,38 -10,73 -31,106 -21,32 -51,57 -89,73 -38,16 -85,24 -142,24 -82,0 -146,-19 -190,-58 -44,-38 -71,-93 -79,-166 z m -1882,1231 -150,-473 122,0 89,310 81,-310 121,0 79,310 90,-310 124,0 -152,473 -121,0 -81,-304 -80,304 -122,0 z m 593,-242 c 0,-42 10,-82 31,-121 20,-39 49,-69 87,-89 37,-21 79,-31 126,-31 71,0 130,23 176,69 46,47 68,106 68,177 0,72 -23,131 -69,179 -46,47 -104,70 -174,70 -44,0 -85,-10 -125,-29 -39,-20 -69,-49 -89,-87 -21,-38 -31,-84 -31,-138 z m 129,6 c 0,47 11,84 33,108 22,26 50,38 82,38 33,0 60,-12 82,-38 23,-24 34,-61 34,-108 0,-47 -11,-83 -34,-108 -22,-25 -49,-37 -82,-37 -32,0 -60,12 -82,37 -22,25 -33,61 -33,108 z m 577,236 -125,0 0,-473 116,0 0,67 c 20,-32 38,-53 54,-63 16,-9 34,-14 54,-14 29,0 57,8 83,23 l -39,109 c -21,-13 -41,-20 -59,-20 -17,0 -32,5 -44,14 -13,10 -22,27 -29,53 -7,25 -11,78 -11,158 l 0,146 z m 231,0 0,-653 125,0 0,347 147,-167 154,0 -161,173 173,300 -135,0 -120,-213 -58,62 0,151 -125,0 z"
   id="path49"
   inkscape:connector-curvature="0"
   style="fill:#d40000;fill-rule:nonzero" /><path
   class="fil1"
   d="m 2340.4576,2799.5761 0,-553 380,0 0,93 -268,0 0,132 231,0 0,93 -231,0 0,235 -112,0 z m 448,-273 c 0,-57 9,-104 26,-142 12,-28 29,-54 51,-76 22,-23 45,-39 71,-50 35,-15 75,-22 120,-22 81,0 146,25 195,76 49,51 73,121 73,211 0,89 -24,159 -72,210 -49,50 -114,76 -195,76 -82,0 -148,-25 -196,-76 -49,-50 -73,-119 -73,-207 z m 115,-4 c 0,63 15,110 44,142 29,33 65,49 110,49 44,0 81,-16 110,-48 28,-32 42,-80 42,-145 0,-63 -13,-110 -41,-141 -28,-32 -65,-47 -111,-47 -46,0 -83,16 -112,47 -28,32 -42,79 -42,143 z m 862,73 108,33 c -17,61 -44,106 -83,136 -38,29 -87,44 -147,44 -73,0 -133,-25 -181,-75 -47,-51 -71,-119 -71,-206 0,-92 24,-164 72,-215 47,-50 110,-76 187,-76 68,0 123,20 165,60 25,24 44,58 56,102 l -110,26 c -6,-28 -20,-51 -41,-67 -21,-17 -46,-25 -75,-25 -41,0 -75,14 -100,44 -26,29 -39,77 -39,143 0,69 13,119 38,149 25,29 58,44 98,44 30,0 56,-9 77,-28 21,-19 37,-49 46,-89 z m 204,-349 112,0 0,299 c 0,48 1,79 4,93 5,22 16,41 33,54 18,14 43,21 74,21 31,0 54,-7 70,-19 16,-13 26,-29 29,-48 3,-19 5,-50 5,-94 l 0,-306 112,0 0,291 c 0,66 -3,113 -9,140 -6,28 -17,51 -33,70 -17,19 -38,34 -65,45 -27,11 -63,17 -106,17 -53,0 -93,-6 -120,-19 -27,-12 -48,-28 -64,-47 -16,-20 -26,-40 -31,-62 -8,-31 -11,-78 -11,-140 l 0,-295 z m 528,374 109,-11 c 6,36 19,63 39,80 20,17 47,25 81,25 36,0 63,-7 81,-22 18,-15 27,-33 27,-54 0,-13 -4,-24 -12,-33 -7,-9 -20,-17 -40,-24 -13,-4 -42,-12 -88,-24 -60,-15 -102,-33 -126,-55 -34,-30 -50,-68 -50,-111 0,-29 8,-55 23,-80 16,-24 39,-43 69,-56 30,-13 66,-19 109,-19 69,0 121,15 156,46 35,31 53,72 55,123 l -112,4 c -5,-29 -15,-49 -31,-62 -15,-12 -39,-18 -70,-18 -32,0 -57,6 -75,20 -12,8 -18,20 -18,34 0,13 6,24 17,34 14,12 48,24 102,37 54,13 94,26 120,40 26,13 46,32 61,56 14,24 22,53 22,88 0,31 -9,61 -27,89 -17,27 -42,48 -74,61 -32,14 -72,21 -120,21 -70,0 -124,-16 -161,-49 -38,-32 -60,-79 -67,-140 z m 544,179 0,-553 409,0 0,93 -297,0 0,123 276,0 0,94 -276,0 0,149 307,0 0,94 -419,0 z m 514,-553 204,0 c 46,0 81,4 105,11 32,9 60,26 83,51 23,24 41,54 53,89 12,35 18,79 18,131 0,45 -6,84 -17,117 -14,40 -34,73 -59,98 -20,19 -46,33 -79,44 -24,8 -57,12 -98,12 l -210,0 0,-553 z m 112,93 0,366 83,0 c 31,0 54,-2 67,-5 18,-5 33,-12 45,-23 12,-11 22,-29 29,-53 8,-25 12,-59 12,-102 0,-42 -4,-75 -12,-98 -7,-23 -18,-40 -31,-53 -14,-13 -31,-22 -52,-26 -15,-4 -46,-6 -91,-6 l -50,0 z m -3267,1116 c 0,-35 9,-69 26,-102 17,-33 42,-58 74,-75 32,-18 67,-26 106,-26 61,0 110,19 149,59 39,39 58,89 58,149 0,61 -20,111 -59,151 -39,40 -88,60 -147,60 -37,0 -72,-9 -105,-25 -33,-17 -59,-41 -76,-73 -17,-32 -26,-71 -26,-118 z m 109,6 c 0,40 9,70 28,91 19,22 42,32 70,32 27,0 50,-10 69,-32 19,-21 28,-51 28,-92 0,-39 -9,-69 -28,-90 -19,-21 -42,-32 -69,-32 -28,0 -51,11 -70,32 -19,21 -28,51 -28,91 z m 751,200 -105,0 0,-204 c 0,-44 -3,-72 -7,-84 -5,-13 -12,-23 -22,-30 -11,-7 -23,-10 -37,-10 -19,0 -36,5 -50,15 -15,10 -25,23 -30,40 -6,16 -9,47 -9,92 l 0,181 -105,0 0,-401 98,0 0,59 c 35,-45 79,-67 132,-67 24,0 45,4 64,12 20,9 35,19 45,32 10,14 17,28 20,45 4,16 6,40 6,71 l 0,249 z m 689,0 -98,0 0,-59 c -16,23 -36,40 -58,51 -22,12 -45,18 -67,18 -46,0 -86,-19 -119,-56 -33,-37 -49,-89 -49,-155 0,-68 16,-120 48,-155 32,-36 72,-53 121,-53 45,0 84,18 116,55 l 0,-199 106,0 0,553 z m -282,-208 c 0,42 6,73 17,93 17,27 41,41 72,41 24,0 45,-10 62,-31 17,-21 25,-52 25,-93 0,-46 -8,-80 -24,-100 -17,-20 -38,-30 -64,-30 -25,0 -46,10 -63,30 -17,20 -25,50 -25,90 z m 618,81 105,18 c -13,39 -35,68 -64,88 -29,20 -66,31 -110,31 -69,0 -121,-23 -154,-69 -26,-36 -40,-82 -40,-138 0,-66 18,-118 52,-156 35,-38 79,-56 132,-56 59,0 106,19 141,59 34,39 50,99 49,181 l -265,0 c 1,31 9,55 26,73 16,17 36,26 60,26 17,0 31,-4 42,-13 11,-9 20,-24 26,-44 z m 6,-107 c -1,-31 -9,-54 -24,-70 -15,-16 -33,-24 -55,-24 -23,0 -42,8 -57,25 -15,17 -22,40 -22,69 l 158,0 z m 374,-167 0,84 -72,0 0,162 c 0,33 0,53 2,58 1,5 4,10 9,13 5,4 11,6 18,6 10,0 24,-4 43,-10 l 9,82 c -25,10 -53,16 -84,16 -19,0 -36,-4 -51,-10 -16,-6 -27,-15 -34,-25 -7,-10 -12,-24 -15,-41 -2,-13 -3,-38 -3,-75 l 0,-176 -49,0 0,-84 49,0 0,-79 106,-63 0,142 72,0 z m 153,124 -96,-17 c 11,-39 30,-68 56,-87 26,-19 66,-28 118,-28 47,0 82,5 105,16 23,12 40,26 49,43 9,17 14,49 14,95 l -1,123 c 0,35 1,61 5,78 3,17 9,35 19,54 l -105,0 c -3,-7 -7,-18 -11,-31 -1,-7 -3,-11 -3,-13 -18,18 -38,31 -58,40 -21,9 -43,14 -66,14 -41,0 -73,-12 -97,-34 -24,-22 -36,-50 -36,-85 0,-22 6,-42 17,-60 11,-18 26,-31 45,-41 20,-9 48,-17 84,-24 50,-10 84,-18 103,-26 l 0,-11 c 0,-21 -5,-35 -15,-44 -10,-9 -29,-13 -57,-13 -19,0 -34,3 -44,11 -11,7 -19,21 -26,40 z m 142,85 c -14,5 -35,10 -64,16 -30,7 -49,13 -58,19 -14,10 -21,22 -21,37 0,15 6,28 17,39 11,10 25,16 42,16 19,0 37,-7 55,-19 12,-10 21,-21 25,-35 3,-9 4,-26 4,-52 l 0,-21 z m 208,-263 0,-98 106,0 0,98 -106,0 z m 0,455 0,-401 106,0 0,401 -106,0 z m 215,0 0,-553 106,0 0,553 -106,0 z m 176,-113 107,-16 c 4,20 13,36 27,46 14,11 34,16 58,16 28,0 48,-5 62,-15 9,-7 14,-16 14,-28 0,-8 -2,-15 -7,-20 -6,-5 -18,-10 -36,-14 -85,-19 -139,-36 -162,-52 -32,-22 -48,-52 -48,-90 0,-35 14,-64 41,-88 28,-24 70,-35 128,-35 54,0 95,9 122,27 26,18 45,44 55,79 l -100,19 c -4,-16 -12,-28 -24,-36 -12,-9 -29,-13 -52,-13 -28,0 -48,4 -60,12 -8,5 -12,12 -12,21 0,8 4,14 11,20 9,7 42,16 99,29 56,13 96,29 118,48 23,18 34,45 34,78 0,37 -16,69 -46,95 -31,26 -76,40 -137,40 -54,0 -97,-11 -129,-33 -32,-22 -53,-52 -63,-90 z"
   id="path51"
   inkscape:connector-curvature="0"
   style="fill:#fefefe;fill-rule:nonzero" /><path
   class="fil1"
   d="m 26552.306,7841.3729 0,-471 96,0 0,391 238,0 0,80 -334,0 z m 382,-234 c 0,-49 7,-89 22,-122 10,-25 25,-46 44,-66 19,-19 39,-33 61,-42 30,-13 64,-19 103,-19 70,0 125,22 168,65 42,44 62,104 62,181 0,77 -20,137 -62,180 -42,44 -97,65 -167,65 -71,0 -127,-21 -169,-64 -41,-43 -62,-103 -62,-178 z m 99,-4 c 0,54 12,95 37,123 25,27 56,41 95,41 38,0 69,-13 94,-41 25,-28 37,-69 37,-124 0,-54 -12,-95 -36,-122 -24,-27 -56,-40 -95,-40 -40,0 -72,14 -96,41 -24,27 -36,68 -36,122 z m 558,238 -170,-475 104,0 120,352 116,-352 102,0 -169,475 -103,0 z m 320,0 0,-475 351,0 0,81 -255,0 0,105 237,0 0,80 -237,0 0,129 265,0 0,80 -361,0 z m -1734,396 85,0 0,51 c 11,-18 26,-31 45,-42 18,-11 39,-16 62,-16 40,0 74,16 102,47 28,31 41,75 41,131 0,57 -14,102 -42,134 -28,32 -62,48 -102,48 -19,0 -36,-4 -51,-12 -16,-7 -32,-20 -49,-38 l 0,172 -91,0 0,-475 z m 90,167 c 0,39 7,67 23,86 15,18 33,27 55,27 21,0 39,-8 53,-25 14,-17 21,-45 21,-84 0,-36 -7,-63 -22,-80 -14,-18 -32,-27 -53,-27 -22,0 -41,9 -55,26 -15,18 -22,43 -22,77 z m 404,177 -90,0 0,-344 84,0 0,49 c 14,-23 27,-38 39,-45 11,-8 25,-11 39,-11 21,0 41,6 60,17 l -28,79 c -15,-10 -30,-15 -43,-15 -13,0 -23,4 -32,11 -9,7 -16,20 -21,38 -5,18 -8,57 -8,115 l 0,106 z m 150,-176 c 0,-30 8,-60 23,-88 14,-28 36,-50 63,-65 27,-15 57,-22 91,-22 52,0 95,17 128,51 33,34 50,76 50,128 0,52 -17,95 -51,129 -33,35 -75,52 -126,52 -32,0 -62,-7 -90,-22 -29,-14 -51,-35 -65,-62 -15,-28 -23,-62 -23,-101 z m 94,5 c 0,34 8,60 24,78 16,18 36,27 60,27 23,0 43,-9 59,-27 16,-18 24,-44 24,-79 0,-34 -8,-59 -24,-78 -16,-18 -36,-27 -59,-27 -24,0 -44,9 -60,27 -16,19 -24,45 -24,79 z m 632,-71 -90,16 c -3,-18 -10,-31 -20,-40 -11,-9 -25,-14 -42,-14 -23,0 -41,8 -54,24 -14,16 -20,42 -20,79 0,40 7,69 20,86 14,17 32,25 55,25 17,0 32,-4 43,-14 11,-10 18,-27 23,-51 l 89,15 c -9,41 -27,72 -53,93 -26,21 -62,32 -106,32 -50,0 -90,-16 -120,-48 -30,-32 -45,-76 -45,-132 0,-57 15,-101 45,-133 30,-31 71,-47 122,-47 42,0 75,9 100,27 24,18 42,45 53,82 z m 267,133 91,16 c -11,33 -30,58 -55,76 -25,17 -57,26 -94,26 -60,0 -104,-20 -133,-59 -22,-31 -34,-71 -34,-119 0,-57 15,-101 45,-134 29,-32 67,-48 113,-48 51,0 91,17 121,51 29,33 43,85 42,155 l -227,0 c 0,27 8,48 22,63 13,15 31,22 52,22 14,0 26,-3 35,-11 10,-8 17,-20 22,-38 z m 6,-92 c -1,-26 -8,-46 -21,-60 -13,-14 -28,-21 -47,-21 -20,0 -36,8 -49,22 -13,15 -19,34 -19,59 l 136,0 z m 132,104 91,-14 c 4,18 12,31 24,40 12,10 28,14 50,14 23,0 41,-4 53,-13 8,-6 12,-14 12,-24 0,-7 -3,-13 -7,-17 -4,-5 -15,-9 -30,-12 -74,-17 -120,-31 -140,-45 -27,-18 -41,-44 -41,-77 0,-30 12,-55 36,-76 23,-20 60,-30 109,-30 47,0 82,8 105,23 23,15 38,38 47,68 l -85,16 c -4,-13 -11,-24 -21,-31 -11,-7 -25,-10 -44,-10 -25,0 -42,3 -52,10 -7,4 -11,10 -11,18 0,7 3,12 9,17 9,6 37,14 86,25 48,11 82,25 101,41 20,16 29,38 29,67 0,32 -13,59 -40,82 -26,22 -65,34 -116,34 -47,0 -84,-10 -112,-29 -27,-19 -45,-44 -53,-77 z m 368,0 92,-14 c 3,18 11,31 23,40 12,10 29,14 50,14 24,0 41,-4 53,-13 8,-6 12,-14 12,-24 0,-7 -2,-13 -6,-17 -5,-5 -15,-9 -31,-12 -73,-17 -120,-31 -139,-45 -28,-18 -41,-44 -41,-77 0,-30 12,-55 35,-76 24,-20 60,-30 109,-30 47,0 82,8 105,23 23,15 39,38 48,68 l -86,16 c -4,-13 -11,-24 -21,-31 -10,-7 -25,-10 -44,-10 -24,0 -41,3 -52,10 -7,4 -10,10 -10,18 0,7 3,12 9,17 8,6 37,14 85,25 49,11 83,25 102,41 19,16 29,38 29,67 0,32 -14,59 -40,82 -26,22 -65,34 -117,34 -47,0 -84,-10 -111,-29 -28,-19 -45,-44 -54,-77 z"
   id="path53"
   inkscape:connector-curvature="0"
   style="fill:#d40000;fill-rule:nonzero" /><path
   class="fil1"
   d="m 20401.831,13731.661 92,28 c -14,52 -38,91 -71,117 -33,25 -75,38 -126,38 -63,0 -115,-22 -155,-65 -41,-43 -61,-102 -61,-177 0,-79 20,-140 61,-184 41,-44 94,-65 161,-65 58,0 105,17 141,51 22,20 38,50 49,88 l -95,22 c -5,-24 -17,-44 -35,-58 -18,-14 -39,-21 -65,-21 -35,0 -64,12 -86,38 -22,25 -32,66 -32,122 0,60 10,103 32,128 22,26 50,38 84,38 26,0 48,-8 66,-24 18,-16 32,-42 40,-76 z m 175,175 0,-475 201,0 c 51,0 88,5 111,13 23,9 41,24 55,45 14,22 21,47 21,75 0,36 -11,65 -31,88 -21,24 -52,38 -94,44 21,12 38,26 51,40 14,14 32,40 54,77 l 58,93 -114,0 -69,-104 c -25,-37 -41,-60 -51,-70 -9,-9 -18,-16 -28,-19 -11,-4 -27,-6 -49,-6 l -19,0 0,199 -96,0 z m 96,-274 71,0 c 45,0 74,-2 86,-6 11,-4 20,-10 26,-20 7,-9 10,-21 10,-36 0,-16 -4,-28 -13,-38 -8,-10 -20,-16 -36,-19 -8,-1 -31,-2 -70,-2 l -74,0 0,121 z m 382,274 0,-475 351,0 0,80 -255,0 0,106 237,0 0,80 -237,0 0,128 264,0 0,81 -360,0 z m 869,0 -103,0 -41,-108 -190,0 -40,108 -101,0 184,-475 101,0 190,475 z m -175,-189 -66,-175 -64,175 130,0 z m 284,189 0,-395 -140,0 0,-80 376,0 0,80 -140,0 0,395 -96,0 z m 295,0 0,-475 96,0 0,475 -96,0 z m 309,0 -170,-475 104,0 120,351 116,-351 102,0 -169,475 -103,0 z m 320,0 0,-475 351,0 0,80 -255,0 0,106 237,0 0,80 -237,0 0,128 265,0 0,81 -361,0 z"
   id="path55"
   inkscape:connector-curvature="0"
   style="fill:#fefefe;fill-rule:nonzero" /><path
   class="fil1"
   d="m 15670.678,12216.458 0,-42 c -10,15 -23,27 -40,36 -17,9 -34,13 -53,13 -19,0 -35,-4 -50,-12 -15,-9 -26,-20 -33,-35 -7,-15 -10,-36 -10,-63 l 0,-178 74,0 0,130 c 0,39 1,63 4,72 3,9 8,16 15,21 7,6 16,8 28,8 12,0 24,-3 34,-10 10,-7 17,-16 20,-26 4,-11 6,-36 6,-76 l 0,-119 74,0 0,281 -69,0 z m 119,-79 74,-11 c 3,14 10,25 20,32 9,8 23,11 40,11 19,0 34,-3 43,-10 7,-5 10,-12 10,-20 0,-6 -2,-10 -5,-14 -4,-3 -12,-7 -25,-10 -60,-13 -98,-25 -114,-36 -22,-15 -33,-36 -33,-63 0,-25 10,-45 29,-62 19,-16 49,-24 89,-24 38,0 67,6 85,18 19,13 32,31 39,56 l -70,13 c -3,-11 -8,-19 -17,-25 -8,-6 -20,-9 -36,-9 -19,0 -33,3 -42,8 -6,4 -8,9 -8,15 0,6 2,10 7,14 7,5 30,12 69,21 40,9 68,20 83,33 16,13 24,31 24,55 0,26 -11,48 -32,66 -22,19 -54,28 -96,28 -38,0 -68,-8 -91,-23 -22,-16 -37,-36 -43,-63 z m 327,-239 0,-69 74,0 0,69 -74,0 z m 0,318 0,-281 74,0 0,281 -74,0 z m 405,0 -74,0 0,-143 c 0,-30 -2,-50 -5,-59 -3,-9 -8,-15 -15,-20 -8,-5 -16,-8 -26,-8 -13,0 -25,4 -35,11 -11,7 -18,16 -21,28 -4,11 -6,33 -6,64 l 0,127 -74,0 0,-281 68,0 0,42 c 25,-32 56,-47 93,-47 17,0 32,2 45,8 14,6 24,14 31,23 7,9 12,19 15,31 3,12 4,28 4,50 l 0,174 z m 68,18 85,10 c 1,10 4,17 9,21 8,5 19,8 34,8 19,0 34,-3 43,-9 7,-4 12,-10 15,-19 2,-6 4,-17 4,-34 l 0,-41 c -22,31 -51,46 -84,46 -38,0 -68,-16 -90,-48 -17,-25 -26,-56 -26,-94 0,-47 12,-83 34,-107 23,-25 51,-37 85,-37 34,0 63,15 85,45 l 0,-40 70,0 0,252 c 0,33 -3,58 -9,74 -5,16 -13,29 -23,39 -9,9 -23,16 -39,21 -16,6 -37,8 -62,8 -48,0 -82,-8 -102,-24 -19,-16 -29,-37 -29,-62 0,-3 0,-6 0,-9 z m 66,-164 c 0,30 6,51 18,65 11,14 25,21 42,21 18,0 33,-7 46,-21 12,-14 19,-35 19,-63 0,-29 -6,-51 -18,-65 -12,-14 -27,-21 -46,-21 -17,0 -32,7 -43,21 -12,14 -18,35 -18,63 z m -1230,608 0,-66 168,0 0,154 c -16,16 -40,30 -71,43 -31,12 -62,18 -94,18 -41,0 -76,-9 -106,-26 -30,-17 -52,-41 -68,-73 -15,-31 -22,-66 -22,-103 0,-41 8,-76 25,-108 17,-31 42,-55 74,-72 25,-13 56,-19 93,-19 48,0 85,10 112,30 27,20 45,48 52,84 l -77,14 c -6,-19 -16,-34 -31,-45 -15,-11 -34,-16 -56,-16 -34,0 -62,11 -82,32 -20,22 -30,54 -30,97 0,46 10,80 31,103 20,23 47,35 80,35 16,0 33,-4 49,-10 16,-6 31,-14 42,-23 l 0,-49 -89,0 z m 241,142 0,-387 164,0 c 41,0 71,3 90,10 19,7 34,19 45,37 12,18 17,38 17,61 0,29 -8,53 -25,72 -17,19 -43,31 -77,36 17,10 31,20 42,32 11,12 26,33 44,63 l 48,76 -94,0 -56,-85 c -20,-30 -34,-49 -41,-57 -8,-7 -15,-13 -24,-16 -8,-3 -21,-4 -39,-4 l -16,0 0,162 -78,0 z m 78,-224 58,0 c 37,0 61,-1 70,-4 9,-3 17,-9 22,-17 5,-7 8,-17 8,-29 0,-13 -4,-23 -11,-31 -7,-8 -17,-13 -29,-16 -7,0 -26,-1 -57,-1 l -61,0 0,98 z m 312,224 0,-387 286,0 0,65 -208,0 0,86 194,0 0,65 -194,0 0,105 216,0 0,66 -294,0 z m 360,0 0,-387 287,0 0,65 -208,0 0,86 193,0 0,65 -193,0 0,105 215,0 0,66 -294,0 z m 361,-387 142,0 c 32,0 57,2 74,7 22,7 42,19 58,36 16,17 28,38 37,62 8,25 12,56 12,92 0,32 -4,59 -12,82 -9,28 -23,51 -41,69 -13,13 -32,23 -55,30 -17,6 -40,9 -69,9 l -146,0 0,-387 z m 78,65 0,256 58,0 c 22,0 38,-1 47,-3 13,-4 23,-9 32,-17 8,-7 15,-20 20,-37 5,-17 8,-41 8,-71 0,-30 -3,-53 -8,-69 -5,-16 -13,-28 -22,-37 -10,-9 -22,-15 -36,-18 -11,-3 -32,-4 -64,-4 l -35,0 z"
   id="path57"
   inkscape:connector-curvature="0"
   style="fill:#fefefe;fill-rule:nonzero" /><path
   class="fil1"
   d="m 26489.738,15691.246 112.894,13.061 c 1.568,14.693 6.272,22.856 12.544,29.386 9.408,6.53 25.088,9.796 43.904,9.796 26.655,0 45.471,-3.266 58.015,-11.429 9.408,-4.897 15.68,-13.06 20.383,-26.121 3.136,-8.163 4.704,-24.489 4.704,-47.345 l 0,-55.507 c -29.791,42.447 -67.423,62.038 -111.326,62.038 -50.175,0 -89.375,-21.224 -119.166,-65.304 -23.52,-34.284 -34.496,-78.363 -34.496,-128.973 0,-65.304 15.68,-114.281 45.472,-148.565 29.791,-34.285 67.423,-52.243 111.326,-52.243 47.039,0 84.671,21.224 114.462,63.671 l 0,-55.508 90.943,0 0,347.74 c 0,45.712 -3.136,79.996 -10.976,102.852 -6.272,21.224 -17.248,39.182 -29.791,52.243 -12.544,13.061 -29.792,22.856 -51.744,31.019 -21.951,6.53 -50.175,9.795 -83.102,9.795 -62.72,0 -108.191,-11.428 -134.846,-32.651 -25.088,-22.856 -39.2,-52.243 -39.2,-86.527 0,-3.265 0,-8.163 0,-11.428 z m 89.375,-226.929 c 0,40.815 6.272,71.834 21.951,89.792 15.68,19.591 34.496,29.387 56.448,29.387 23.519,0 43.903,-9.796 61.151,-29.387 15.679,-19.591 25.087,-48.977 25.087,-86.527 0,-40.814 -7.84,-70.201 -25.087,-89.792 -15.68,-19.591 -34.496,-29.386 -59.583,-29.386 -23.52,0 -42.336,9.795 -58.016,29.386 -15.679,17.959 -21.951,47.345 -21.951,86.527 z m 335.547,3.265 c 0,-34.284 7.84,-66.935 23.519,-97.954 15.68,-32.652 39.2,-57.141 68.991,-73.467 29.792,-16.325 61.152,-26.121 98.783,-26.121 56.447,0 101.919,19.591 137.982,57.14 36.063,39.182 53.311,86.527 53.311,145.3 0,58.773 -18.816,106.118 -54.879,145.3 -36.063,39.182 -81.535,57.14 -136.414,57.14 -34.495,0 -65.855,-8.163 -97.215,-22.856 -31.359,-16.326 -54.879,-40.815 -70.559,-71.834 -15.679,-31.019 -23.519,-68.568 -23.519,-112.648 z m 100.35,4.898 c 0,39.182 9.408,68.569 26.656,88.159 17.248,21.224 39.199,31.02 64.287,31.02 25.088,0 47.039,-9.796 64.287,-31.02 17.248,-19.59 26.656,-48.977 26.656,-88.159 0,-37.549 -9.408,-66.936 -26.656,-88.159 -17.248,-19.591 -39.199,-29.387 -64.287,-29.387 -25.088,0 -47.039,9.796 -64.287,29.387 -17.248,21.223 -26.656,50.61 -26.656,88.159 z m 337.115,-4.898 c 0,-34.284 7.84,-66.935 23.52,-97.954 15.68,-32.652 39.199,-57.141 68.991,-73.467 29.792,-16.325 61.151,-26.121 98.783,-26.121 56.447,0 101.918,19.591 137.982,57.14 36.063,39.182 53.311,86.527 53.311,145.3 0,58.773 -18.816,106.118 -54.879,145.3 -36.064,39.182 -81.535,57.14 -136.414,57.14 -34.496,0 -65.855,-8.163 -97.215,-22.856 -31.36,-16.326 -54.879,-40.815 -70.559,-71.834 -15.68,-31.019 -23.52,-68.568 -23.52,-112.648 z m 100.351,4.898 c 0,39.182 9.408,68.569 26.656,88.159 17.247,21.224 39.199,31.02 64.287,31.02 25.087,0 47.039,-9.796 64.287,-31.02 17.247,-19.59 26.655,-48.977 26.655,-88.159 0,-37.549 -9.408,-66.936 -26.655,-88.159 -17.248,-19.591 -39.2,-29.387 -64.287,-29.387 -25.088,0 -47.04,9.796 -64.287,29.387 -17.248,21.223 -26.656,50.61 -26.656,88.159 z m 700.886,192.645 -90.943,0 0,-55.508 c -15.68,21.223 -32.928,37.549 -54.879,48.977 -20.384,11.428 -40.768,16.326 -61.151,16.326 -43.904,0 -79.967,-17.958 -111.327,-53.875 -29.791,-35.917 -45.471,-84.894 -45.471,-150.197 0,-65.304 15.68,-114.281 45.471,-148.565 29.792,-34.285 65.855,-52.243 111.327,-52.243 42.335,0 78.399,17.958 108.19,53.875 l 0,-192.644 98.783,0 0,533.854 z m -261.853,-200.808 c 0,42.447 4.704,71.834 15.68,89.792 15.68,27.754 37.632,40.815 65.855,40.815 23.52,0 42.336,-9.796 58.015,-29.387 15.68,-21.223 23.52,-50.61 23.52,-91.424 0,-44.08 -7.84,-76.732 -23.52,-96.323 -14.111,-19.591 -34.495,-29.386 -58.015,-29.386 -23.519,0 -42.335,9.795 -58.015,29.386 -15.68,19.591 -23.52,48.978 -23.52,86.527 z m -1470.762,1035.057 0,-533.854 217.949,0 c 54.879,0 94.079,4.897 119.166,14.693 25.088,8.163 45.471,26.121 59.583,50.61 15.68,24.488 21.952,52.242 21.952,83.261 0,40.815 -10.976,73.467 -32.928,99.588 -23.519,26.121 -56.447,42.447 -101.918,48.977 23.52,14.694 40.767,29.387 56.447,45.713 14.112,16.325 32.928,44.079 58.015,86.526 l 62.719,104.486 -123.87,0 -73.695,-117.546 c -26.655,-40.815 -45.471,-66.936 -54.879,-78.364 -10.976,-9.796 -20.384,-17.959 -31.36,-21.224 -10.975,-4.897 -28.223,-6.53 -53.311,-6.53 l -20.383,0 0,223.664 -103.487,0 z m 103.487,-308.558 76.83,0 c 48.608,0 79.967,-1.633 92.511,-6.531 12.544,-4.897 21.952,-11.428 29.792,-22.856 6.272,-9.795 9.408,-24.488 9.408,-39.182 0,-17.958 -4.704,-32.651 -14.112,-44.079 -7.84,-11.428 -21.952,-17.959 -37.632,-21.224 -9.408,-1.633 -34.495,-1.633 -76.831,-1.633 l -79.966,0 0,135.505 z m 413.945,308.558 0,-533.854 379.451,0 0,89.791 -275.964,0 0,119.179 255.58,0 0,89.792 -255.58,0 0,143.667 285.372,0 0,91.425 -388.859,0 z m 450.01,-173.054 100.35,-11.428 c 6.272,35.917 18.816,62.038 37.632,78.364 17.248,16.326 42.335,24.488 73.695,24.488 34.495,0 59.583,-8.162 75.263,-22.856 17.247,-14.693 25.087,-31.019 25.087,-50.61 0,-13.06 -3.136,-22.856 -9.408,-32.651 -7.839,-8.163 -20.383,-16.326 -37.631,-22.856 -12.544,-4.898 -39.199,-11.428 -83.103,-22.857 -54.879,-14.693 -94.078,-32.651 -116.03,-53.875 -31.36,-29.386 -47.039,-65.303 -47.039,-107.75 0,-26.121 7.839,-52.243 21.951,-76.731 15.68,-22.857 36.064,-40.815 64.287,-53.876 28.224,-11.428 61.151,-17.958 100.351,-17.958 64.287,0 112.894,14.693 144.254,44.08 32.927,29.386 50.175,68.568 51.743,119.178 l -103.487,3.265 c -4.703,-27.754 -14.111,-47.345 -28.223,-58.773 -14.112,-13.06 -36.064,-17.958 -65.855,-17.958 -29.792,0 -53.311,6.53 -68.991,17.958 -10.976,9.796 -17.248,19.591 -17.248,34.285 0,13.06 4.704,22.856 15.68,32.651 12.544,11.428 43.903,22.856 95.647,35.917 50.175,11.428 86.238,24.489 111.326,37.549 23.52,13.061 42.335,31.019 56.447,53.876 12.544,24.488 20.384,52.242 20.384,86.526 0,29.387 -9.408,58.773 -25.088,84.895 -15.68,27.753 -39.199,47.344 -68.991,60.405 -29.791,13.061 -67.423,19.591 -111.326,19.591 -65.855,0 -114.463,-16.326 -148.958,-47.345 -36.064,-31.019 -56.447,-76.731 -62.719,-135.504 z m 619.351,173.054 0,-444.063 -150.526,0 0,-89.791 406.106,0 0,89.791 -150.526,0 0,444.063 -105.054,0 z"
   id="path61"
   inkscape:connector-curvature="0"
   style="fill:#d40000;fill-rule:nonzero" /><path
   class="fil1"
   d="m 22603.069,18147.492 0,-84 91,0 0,84 -91,0 z m 0,388 0,-342 91,0 0,342 -91,0 z m 494,0 -90,0 0,-174 c 0,-37 -2,-61 -6,-71 -4,-11 -10,-20 -19,-26 -8,-6 -19,-9 -31,-9 -16,0 -30,5 -43,13 -12,9 -21,20 -26,34 -4,14 -7,40 -7,79 l 0,154 -90,0 0,-342 84,0 0,50 c 30,-38 67,-57 113,-57 20,0 38,4 55,11 17,7 29,16 38,27 8,11 14,24 17,38 4,14 5,35 5,61 l 0,212 z m 248,-342 0,72 -62,0 0,139 c 0,28 1,44 2,49 1,4 4,8 8,11 4,3 9,5 15,5 9,0 21,-3 37,-9 l 7,70 c -21,9 -44,14 -71,14 -16,0 -31,-3 -44,-8 -13,-6 -22,-13 -28,-22 -7,-8 -11,-20 -13,-35 -2,-11 -3,-32 -3,-64 l 0,-150 -42,0 0,-72 42,0 0,-68 90,-53 0,121 62,0 z m 261,234 90,15 c -11,33 -29,59 -54,76 -25,17 -57,26 -94,26 -60,0 -104,-20 -132,-58 -23,-32 -34,-71 -34,-118 0,-57 15,-102 44,-134 30,-32 67,-48 113,-48 50,0 91,17 120,50 29,34 43,86 42,155 l -226,0 c 1,27 8,48 22,63 14,15 31,22 52,22 14,0 26,-4 35,-11 10,-8 17,-21 22,-38 z m 5,-91 c 0,-27 -7,-47 -20,-60 -13,-14 -28,-21 -47,-21 -19,0 -36,7 -48,22 -13,14 -20,34 -19,59 l 134,0 z m 250,199 -90,0 0,-342 84,0 0,49 c 14,-23 27,-38 39,-45 11,-7 24,-11 39,-11 21,0 40,6 60,17 l -28,79 c -16,-10 -30,-15 -43,-15 -13,0 -23,4 -32,11 -9,7 -16,19 -21,37 -5,19 -8,57 -8,115 l 0,105 z m 368,-108 91,15 c -12,33 -30,59 -55,76 -25,17 -57,26 -94,26 -59,0 -104,-20 -132,-58 -23,-32 -34,-71 -34,-118 0,-57 15,-102 45,-134 29,-32 67,-48 112,-48 51,0 91,17 120,50 29,34 44,86 42,155 l -226,0 c 1,27 8,48 22,63 14,15 31,22 52,22 14,0 26,-4 35,-11 10,-8 17,-21 22,-38 z m 6,-91 c -1,-27 -8,-47 -21,-60 -13,-14 -28,-21 -47,-21 -19,0 -35,7 -48,22 -13,14 -19,34 -19,59 l 135,0 z m 131,103 91,-14 c 4,18 11,31 23,40 12,9 29,14 50,14 23,0 41,-5 53,-13 8,-6 12,-14 12,-24 0,-7 -3,-13 -7,-17 -4,-5 -15,-9 -30,-12 -73,-17 -119,-31 -139,-45 -27,-18 -41,-44 -41,-77 0,-29 12,-54 36,-75 23,-20 59,-30 108,-30 47,0 82,8 105,23 22,15 38,38 47,68 l -85,16 c -4,-14 -11,-24 -21,-31 -10,-7 -25,-11 -44,-11 -24,0 -41,4 -52,10 -7,5 -10,11 -10,19 0,6 3,12 9,16 8,6 37,15 85,26 48,11 82,24 101,40 19,16 28,38 28,67 0,32 -13,59 -39,81 -26,23 -65,34 -116,34 -47,0 -84,-10 -111,-28 -27,-19 -45,-45 -53,-77 z m 555,-246 0,72 -62,0 0,139 c 0,28 1,44 2,49 1,4 4,8 8,11 4,3 9,5 15,5 9,0 21,-3 37,-9 l 7,70 c -21,9 -45,14 -71,14 -16,0 -31,-3 -44,-8 -13,-6 -23,-13 -29,-22 -6,-8 -10,-20 -12,-35 -2,-11 -3,-32 -3,-64 l 0,-150 -42,0 0,-72 42,0 0,-68 90,-53 0,121 62,0 z m 63,-46 0,-84 90,0 0,84 -90,0 z m 0,388 0,-342 90,0 0,342 -90,0 z m 494,0 -90,0 0,-174 c 0,-37 -2,-61 -6,-71 -4,-11 -10,-20 -19,-26 -8,-6 -19,-9 -31,-9 -16,0 -30,5 -43,13 -12,9 -21,20 -26,34 -4,14 -7,40 -7,79 l 0,154 -90,0 0,-342 84,0 0,50 c 30,-38 67,-57 113,-57 20,0 38,4 55,11 17,7 29,16 38,27 8,11 14,24 17,38 4,14 5,35 5,61 l 0,212 z m 83,22 104,13 c 2,12 6,20 12,25 8,6 22,10 40,10 24,0 42,-4 54,-11 7,-5 13,-12 18,-23 2,-7 4,-21 4,-41 l 0,-50 c -27,37 -61,55 -103,55 -46,0 -82,-19 -109,-58 -21,-31 -32,-69 -32,-114 0,-58 14,-101 42,-132 27,-30 62,-45 103,-45 42,0 77,19 105,56 l 0,-49 84,0 0,307 c 0,40 -3,71 -10,90 -7,20 -16,36 -28,47 -12,12 -28,21 -48,27 -20,7 -46,10 -76,10 -58,0 -99,-10 -124,-30 -24,-20 -36,-45 -36,-76 0,-3 0,-7 0,-11 z m 81,-200 c 0,37 7,63 21,80 14,17 32,25 52,25 22,0 41,-8 56,-26 15,-17 23,-42 23,-76 0,-36 -7,-62 -22,-79 -14,-17 -33,-26 -55,-26 -22,0 -40,9 -54,26 -14,16 -21,42 -21,76 z m -2745,915 0,-472 153,0 c 57,0 95,2 113,7 27,7 49,22 68,46 18,24 27,54 27,92 0,29 -5,53 -16,73 -10,20 -24,35 -40,47 -16,11 -32,18 -49,22 -23,4 -56,7 -99,7 l -62,0 0,178 -95,0 z m 95,-392 0,134 52,0 c 38,0 63,-3 75,-7 13,-5 23,-13 30,-24 7,-10 11,-23 11,-37 0,-17 -5,-31 -15,-42 -10,-11 -23,-18 -39,-21 -11,-2 -34,-3 -68,-3 l -46,0 z m 344,392 0,-472 350,0 0,80 -254,0 0,104 236,0 0,80 -236,0 0,128 263,0 0,80 -359,0 z m 440,0 0,-472 201,0 c 50,0 87,4 110,13 23,8 41,23 55,45 13,21 20,46 20,74 0,36 -10,65 -31,88 -21,23 -52,37 -93,43 21,12 38,26 51,40 13,14 31,40 54,77 l 57,92 -113,0 -69,-103 c -24,-37 -41,-60 -50,-70 -9,-9 -19,-16 -29,-19 -10,-4 -26,-5 -48,-5 l -19,0 0,197 -96,0 z m 96,-273 70,0 c 46,0 74,-1 86,-5 11,-4 20,-11 26,-20 7,-10 10,-22 10,-36 0,-16 -4,-28 -13,-38 -8,-10 -20,-16 -35,-19 -8,-1 -31,-1 -70,-1 l -74,0 0,119 z m 355,120 93,-9 c 6,31 17,53 34,68 17,15 40,22 69,22 30,0 53,-7 69,-20 15,-13 23,-28 23,-45 0,-11 -3,-21 -10,-29 -6,-7 -18,-14 -34,-20 -11,-4 -36,-11 -76,-21 -51,-12 -86,-28 -107,-47 -29,-26 -43,-57 -43,-95 0,-24 7,-46 20,-67 14,-21 33,-37 59,-48 25,-11 56,-17 92,-17 59,0 104,13 134,40 30,26 45,61 47,105 l -96,3 c -4,-25 -13,-42 -26,-53 -13,-10 -33,-16 -60,-16 -27,0 -49,6 -64,17 -10,8 -15,18 -15,30 0,11 4,21 14,29 12,10 41,20 87,31 46,11 81,23 103,34 22,12 39,28 52,48 12,21 19,46 19,75 0,27 -8,53 -23,76 -15,24 -36,42 -64,53 -27,12 -61,17 -102,17 -60,0 -106,-13 -138,-41 -32,-27 -51,-68 -57,-120 z m 445,-80 c 0,-49 7,-89 22,-122 10,-24 25,-45 43,-64 19,-20 39,-34 61,-43 30,-13 64,-19 102,-19 70,0 125,22 167,65 42,43 63,103 63,180 0,77 -21,137 -62,180 -42,43 -97,64 -166,64 -71,0 -127,-21 -168,-64 -41,-43 -62,-102 -62,-177 z m 98,-4 c 0,54 12,94 37,122 25,28 56,42 94,42 38,0 70,-14 94,-42 25,-27 37,-68 37,-123 0,-54 -12,-94 -36,-121 -24,-27 -55,-40 -95,-40 -39,0 -71,13 -95,40 -24,27 -36,68 -36,122 z m 434,237 0,-472 93,0 194,316 0,-316 88,0 0,472 -95,0 -191,-311 0,311 -89,0 z"
   id="path65"
   inkscape:connector-curvature="0"
   style="fill:#fefefe;fill-rule:nonzero" /><path
   class="fil1"
   d="m 18090.482,1576.8033 -53,-10 c 6,-22 16,-38 31,-48 14,-11 36,-16 65,-16 27,0 47,3 60,9 12,6 22,14 27,24 5,10 8,27 8,53 l -1,69 c 0,20 1,34 3,44 2,9 5,19 10,30 l -58,0 c -2,-4 -4,-10 -6,-18 -1,-3 -2,-5 -2,-7 -10,10 -21,18 -33,23 -11,5 -23,7 -36,7 -23,0 -41,-6 -55,-19 -13,-12 -20,-28 -20,-47 0,-13 3,-24 10,-34 6,-10 14,-17 25,-23 11,-5 26,-9 47,-13 28,-6 47,-10 57,-15 l 0,-6 c 0,-11 -2,-20 -8,-25 -6,-4 -16,-7 -32,-7 -10,0 -19,2 -25,6 -6,5 -10,12 -14,23 z m 79,48 c -7,2 -19,5 -36,9 -16,3 -27,7 -32,10 -8,5 -11,12 -11,21 0,8 3,15 9,21 6,6 14,9 23,9 11,0 21,-3 31,-10 7,-6 12,-12 14,-20 2,-5 2,-14 2,-29 l 0,-11 z m 159,107 -71,-224 57,0 42,146 39,-146 57,0 37,146 43,-146 58,0 -72,224 -56,0 -39,-144 -38,144 -57,0 z m 423,-71 60,10 c -8,21 -20,38 -36,49 -17,12 -37,17 -62,17 -39,0 -68,-13 -86,-38 -15,-20 -22,-46 -22,-77 0,-37 9,-67 29,-88 19,-21 44,-31 73,-31 33,0 60,11 79,33 19,22 28,56 28,101 l -149,0 c 1,18 6,31 15,41 9,10 20,15 34,15 9,0 17,-3 23,-8 6,-5 11,-13 14,-24 z m 4,-60 c -1,-17 -5,-30 -13,-39 -9,-9 -19,-14 -31,-14 -13,0 -24,5 -32,14 -8,10 -13,23 -12,39 l 88,0 z m 86,68 59,-9 c 3,11 8,20 16,26 7,6 18,8 32,8 16,0 27,-2 35,-8 5,-4 8,-9 8,-16 0,-4 -2,-8 -5,-11 -3,-3 -9,-5 -19,-8 -48,-10 -79,-20 -91,-29 -18,-12 -27,-29 -27,-50 0,-20 8,-36 23,-49 15,-14 39,-20 71,-20 31,0 54,5 69,15 15,10 25,25 30,44 l -55,11 c -3,-9 -7,-16 -14,-20 -7,-5 -16,-7 -29,-7 -15,0 -27,2 -33,6 -5,3 -7,7 -7,12 0,4 2,8 6,11 5,4 24,9 55,17 32,7 54,16 67,26 12,11 18,25 18,44 0,21 -8,38 -26,53 -17,15 -42,22 -76,22 -30,0 -54,-6 -72,-18 -18,-13 -30,-29 -35,-50 z m 247,-52 c 0,-20 5,-39 15,-57 9,-19 23,-33 41,-43 18,-9 38,-14 60,-14 33,0 61,11 83,33 21,22 32,50 32,83 0,34 -11,62 -33,85 -21,22 -49,33 -82,33 -21,0 -40,-4 -59,-14 -18,-9 -33,-23 -42,-41 -10,-18 -15,-39 -15,-65 z m 61,3 c 0,22 5,39 16,51 10,12 23,18 39,18 15,0 28,-6 39,-18 10,-12 15,-29 15,-51 0,-22 -5,-39 -15,-51 -11,-12 -24,-18 -39,-18 -16,0 -29,6 -39,18 -11,12 -16,29 -16,51 z m 212,-112 55,0 0,30 c 19,-23 43,-35 70,-35 14,0 26,3 37,9 10,6 19,14 26,26 10,-12 20,-20 32,-26 11,-6 23,-9 36,-9 16,0 30,3 42,10 11,7 20,16 25,29 4,10 6,25 6,47 l 0,143 -59,0 0,-128 c 0,-22 -2,-37 -6,-43 -5,-9 -14,-13 -25,-13 -8,0 -16,3 -24,8 -7,5 -12,12 -15,22 -4,10 -5,25 -5,46 l 0,108 -59,0 0,-123 c 0,-22 -2,-36 -4,-42 -2,-6 -5,-11 -9,-14 -5,-3 -11,-5 -18,-5 -10,0 -18,3 -25,7 -7,5 -13,13 -16,22 -3,9 -4,24 -4,46 l 0,109 -60,0 0,-224 z m 518,153 59,10 c -7,21 -19,38 -36,49 -16,12 -37,17 -61,17 -39,0 -68,-13 -87,-38 -14,-20 -22,-46 -22,-77 0,-37 10,-67 29,-88 20,-21 44,-31 74,-31 33,0 59,11 79,33 19,22 28,56 27,101 l -148,0 c 1,18 5,31 15,41 9,10 20,15 33,15 10,0 18,-3 24,-8 6,-5 11,-13 14,-24 z m 4,-60 c -1,-17 -5,-30 -14,-39 -8,-9 -18,-14 -30,-14 -13,0 -24,5 -32,14 -9,10 -13,23 -13,39 l 89,0 z m -1669,460 c 0,-31 5,-58 14,-79 7,-16 17,-30 29,-43 12,-12 25,-21 40,-28 19,-8 41,-12 67,-12 45,0 82,14 109,43 27,28 41,67 41,118 0,50 -14,89 -41,117 -27,28 -63,42 -109,42 -46,0 -82,-14 -109,-42 -27,-28 -41,-66 -41,-116 z m 64,-2 c 0,35 8,62 25,80 16,18 36,27 61,27 25,0 46,-9 62,-27 16,-18 24,-45 24,-81 0,-35 -8,-62 -24,-79 -15,-18 -36,-26 -62,-26 -26,0 -46,9 -62,26 -16,18 -24,45 -24,80 z m 285,155 0,-309 212,0 0,52 -150,0 0,73 130,0 0,53 -130,0 0,131 -62,0 z m 263,0 0,-309 213,0 0,52 -150,0 0,73 129,0 0,53 -129,0 0,131 -63,0 z m 262,0 0,-309 62,0 0,309 -62,0 z m 320,-114 60,18 c -9,35 -25,60 -46,76 -22,17 -49,25 -82,25 -41,0 -75,-14 -102,-42 -26,-28 -39,-66 -39,-115 0,-52 13,-92 40,-120 26,-29 61,-43 104,-43 38,0 69,11 93,34 14,13 24,32 31,57 l -61,15 c -4,-16 -12,-29 -23,-38 -12,-10 -26,-14 -43,-14 -23,0 -41,8 -55,24 -15,17 -22,43 -22,80 0,39 7,67 21,84 14,16 33,25 55,25 17,0 31,-6 43,-16 12,-11 21,-27 26,-50 z m 114,114 0,-309 229,0 0,52 -167,0 0,69 155,0 0,52 -155,0 0,84 173,0 0,52 -235,0 z"
   id="path69"
   inkscape:connector-curvature="0"
   style="fill:#fefefe;fill-rule:nonzero" /><path
   class="fil1"
   d="m 18263.831,16003.661 0,-50 c -12,18 -28,32 -48,42 -20,11 -41,16 -63,16 -23,0 -43,-5 -61,-15 -17,-10 -30,-23 -38,-41 -8,-18 -12,-43 -12,-74 l 0,-212 88,0 0,154 c 0,47 2,75 5,86 3,11 9,19 18,25 8,6 19,10 33,10 15,0 28,-5 40,-13 12,-8 20,-18 25,-31 4,-12 6,-42 6,-90 l 0,-141 89,0 0,334 -82,0 z m 141,-94 89,-14 c 3,17 11,30 23,39 11,9 27,13 48,13 23,0 40,-4 52,-12 7,-6 11,-14 11,-24 0,-6 -2,-12 -6,-16 -5,-5 -14,-9 -30,-12 -71,-16 -116,-30 -135,-43 -27,-18 -40,-44 -40,-76 0,-29 11,-53 34,-73 23,-20 59,-29 107,-29 45,0 79,7 102,22 22,15 37,37 45,66 l -83,16 c -3,-13 -10,-23 -20,-30 -10,-7 -24,-11 -43,-11 -23,0 -40,4 -50,10 -7,5 -10,11 -10,18 0,6 3,12 9,16 8,6 35,14 82,25 48,11 81,24 99,39 19,16 28,38 28,66 0,31 -13,57 -38,79 -26,22 -64,33 -114,33 -46,0 -82,-9 -108,-27 -27,-19 -44,-44 -52,-75 z m 389,-285 0,-82 89,0 0,82 -89,0 z m 0,379 0,-334 89,0 0,334 -89,0 z m 483,0 -88,0 0,-171 c 0,-36 -2,-59 -6,-69 -4,-11 -10,-19 -18,-25 -9,-6 -19,-9 -31,-9 -16,0 -29,4 -42,13 -12,8 -20,19 -25,33 -5,14 -7,39 -7,77 l 0,151 -88,0 0,-334 82,0 0,49 c 29,-38 66,-56 110,-56 20,0 38,3 54,10 16,7 29,16 37,27 8,11 14,23 17,37 4,14 5,34 5,59 l 0,208 z m 81,21 101,12 c 2,12 6,20 12,25 8,6 22,9 40,9 23,0 40,-3 51,-10 8,-5 14,-12 18,-22 3,-8 4,-21 4,-41 l 1,-49 c -27,37 -60,55 -101,55 -45,0 -80,-19 -107,-57 -20,-30 -30,-67 -30,-112 0,-56 13,-99 40,-128 27,-30 61,-44 101,-44 41,0 75,18 102,54 l 0,-47 82,0 0,299 c 0,40 -3,69 -9,89 -7,19 -16,34 -28,45 -11,12 -27,20 -47,27 -19,6 -44,9 -74,9 -57,0 -97,-10 -121,-29 -23,-20 -35,-44 -35,-74 0,-3 0,-7 0,-11 z m 79,-195 c 0,35 7,61 21,78 14,16 31,24 51,24 21,0 39,-8 54,-25 15,-17 22,-42 22,-75 0,-34 -7,-60 -21,-77 -14,-16 -32,-25 -54,-25 -21,0 -38,8 -52,25 -14,16 -21,41 -21,75 z m -1753,893 -165,-461 101,0 117,341 113,-341 99,0 -164,461 -101,0 z m 312,0 0,-461 341,0 0,78 -248,0 0,102 231,0 0,78 -231,0 0,125 257,0 0,78 -350,0 z m 724,-170 90,28 c -14,51 -37,88 -69,113 -32,24 -73,37 -122,37 -61,0 -112,-21 -151,-63 -40,-42 -59,-99 -59,-172 0,-76 19,-136 59,-179 40,-42 92,-63 156,-63 57,0 103,16 138,50 21,20 37,48 47,85 l -92,22 c -6,-24 -17,-43 -34,-57 -18,-14 -39,-20 -63,-20 -34,0 -62,12 -84,36 -21,25 -32,65 -32,119 0,59 11,100 32,125 21,25 48,37 82,37 25,0 46,-8 64,-24 18,-15 30,-40 38,-74 z m 274,170 0,-383 -137,0 0,-78 366,0 0,78 -136,0 0,383 -93,0 z m 259,-228 c 0,-47 7,-86 21,-118 10,-24 25,-45 43,-63 18,-19 38,-33 59,-42 29,-12 62,-18 100,-18 68,0 122,21 163,63 41,42 61,101 61,176 0,75 -20,133 -61,175 -40,42 -94,63 -162,63 -69,0 -123,-20 -164,-62 -40,-42 -60,-100 -60,-174 z m 96,-3 c 0,53 12,92 36,119 24,27 55,41 92,41 37,0 68,-14 91,-41 24,-26 36,-66 36,-120 0,-53 -11,-92 -35,-118 -23,-26 -54,-39 -92,-39 -39,0 -70,13 -93,39 -24,26 -35,66 -35,119 z m 424,231 0,-461 196,0 c 49,0 85,4 107,13 23,8 40,22 54,44 13,21 20,45 20,72 0,35 -10,63 -30,86 -21,23 -51,37 -91,43 20,11 36,24 49,38 13,14 31,39 53,75 l 56,90 -111,0 -67,-101 c -24,-35 -40,-58 -49,-67 -9,-9 -18,-16 -28,-19 -10,-4 -26,-5 -47,-5 l -19,0 0,192 -93,0 z m 93,-266 69,0 c 45,0 72,-2 84,-6 11,-3 19,-10 26,-19 6,-9 9,-21 9,-35 0,-15 -4,-28 -12,-37 -9,-10 -20,-16 -35,-18 -8,-1 -31,-2 -68,-2 l -73,0 0,117 z"
   id="path71"
   inkscape:connector-curvature="0"
   style="fill:#d40000;fill-rule:nonzero" /><path
   class="fil1"
   d="m 15665.163,16821.048 78.091,-14.386 c 3.062,17.983 9.187,32.369 19.905,41.36 9.187,8.991 22.968,12.587 41.342,12.587 19.906,0 35.218,-3.596 45.936,-12.587 6.125,-5.395 9.187,-14.386 9.187,-25.176 0,-5.394 -1.531,-10.789 -4.593,-16.184 -4.594,-3.596 -12.25,-8.991 -26.031,-12.588 -62.778,-16.184 -102.589,-30.57 -119.432,-43.157 -22.968,-19.781 -33.687,-44.957 -33.687,-77.325 0,-30.57 9.187,-55.746 29.093,-75.526 19.905,-19.781 52.06,-30.571 93.403,-30.571 39.811,0 70.434,7.193 88.809,23.378 19.905,14.386 33.686,37.763 39.811,68.333 l -71.966,16.184 c -3.063,-14.386 -9.187,-25.175 -18.375,-32.368 -7.656,-7.193 -19.905,-10.79 -36.748,-10.79 -19.906,0 -35.218,3.597 -44.405,10.79 -6.124,5.395 -9.187,10.789 -9.187,17.982 0,7.193 3.063,12.588 9.187,16.184 6.125,7.193 30.624,14.386 71.966,26.974 41.342,10.79 70.435,23.377 85.747,39.562 16.843,16.184 24.499,39.561 24.499,68.333 0,30.57 -10.718,57.544 -33.686,80.921 -21.437,21.579 -55.123,34.167 -99.528,34.167 -39.811,0 -70.434,-10.79 -93.402,-28.772 -24.499,-19.781 -39.811,-44.957 -45.936,-77.325 z m 339.925,97.105 0,-472.938 78.09,0 0,472.938 -78.09,0 z m 326.143,-107.894 76.56,14.386 c -9.187,32.368 -26.03,57.543 -47.467,75.526 -19.905,17.982 -47.467,26.974 -79.622,26.974 -50.529,0 -88.809,-19.781 -111.777,-59.343 -19.905,-30.57 -29.093,-70.131 -29.093,-118.684 0,-55.745 12.25,-100.701 36.749,-133.07 26.03,-32.368 58.185,-48.553 96.465,-48.553 42.873,0 78.091,16.185 102.59,50.351 26.03,34.167 36.749,86.316 36.749,154.649 l -192.931,0 c 0,26.974 6.125,48.553 18.375,62.939 10.718,16.184 26.03,23.377 44.404,23.377 12.25,0 21.437,-3.596 30.624,-12.587 7.656,-7.193 13.781,-19.781 18.374,-35.965 z m 4.594,-93.509 c -1.531,-25.176 -6.125,-44.956 -18.374,-59.342 -10.719,-14.386 -24.499,-19.781 -39.811,-19.781 -16.843,0 -30.624,7.193 -41.343,21.579 -10.718,14.386 -16.843,34.167 -16.843,57.544 l 116.371,0 z m 307.769,93.509 78.091,14.386 c -10.718,32.368 -26.03,57.543 -47.467,75.526 -21.436,17.982 -47.467,26.974 -79.622,26.974 -52.06,0 -88.809,-19.781 -113.308,-59.343 -19.905,-30.57 -29.092,-70.131 -29.092,-118.684 0,-55.745 12.249,-100.701 38.279,-133.07 24.499,-32.368 56.654,-48.553 96.465,-48.553 42.874,0 76.56,16.185 102.59,50.351 24.499,34.167 36.749,86.316 35.218,154.649 l -192.93,0 c 0,26.974 6.124,48.553 18.374,62.939 12.249,16.184 27.561,23.377 44.404,23.377 12.25,0 22.968,-3.596 30.624,-12.587 7.656,-7.193 13.781,-19.781 18.374,-35.965 z m 4.594,-93.509 c 0,-25.176 -6.125,-44.956 -16.843,-59.342 -10.718,-14.386 -24.499,-19.781 -39.811,-19.781 -16.843,0 -30.624,7.193 -42.873,21.579 -10.719,14.386 -15.312,34.167 -15.312,57.544 l 114.839,0 z m 137.807,-142.062 71.966,0 0,50.351 c 9.187,-17.982 21.437,-30.57 38.28,-41.359 15.312,-10.79 33.686,-16.185 52.061,-16.185 33.686,0 62.779,16.185 87.278,46.755 22.967,30.57 35.217,75.526 35.217,131.272 0,57.544 -12.25,100.702 -35.217,133.07 -24.499,32.368 -53.592,48.553 -87.278,48.553 -16.843,0 -30.624,-3.597 -44.405,-12.588 -12.249,-7.193 -26.03,-19.781 -41.342,-37.763 l 0,170.833 -76.56,0 0,-472.939 z m 75.029,165.439 c 0,39.561 7.656,68.333 19.905,86.316 13.781,17.982 29.093,28.772 47.467,28.772 18.374,0 33.686,-8.991 44.405,-26.974 12.249,-16.184 18.374,-44.956 18.374,-82.719 0,-35.965 -6.125,-62.939 -18.374,-80.921 -12.25,-16.184 -27.562,-25.176 -45.936,-25.176 -18.374,0 -33.686,7.193 -45.936,25.176 -12.249,17.982 -19.905,43.158 -19.905,75.526 z"
   id="path73"
   inkscape:connector-curvature="0"
   style="fill:#fefefe;fill-rule:nonzero" />
<ellipse
   style="clip-rule:evenodd;fill:#7e7e7e;fill-rule:evenodd;image-rendering:optimizeQuality;shape-rendering:geometricPrecision;text-rendering:geometricPrecision"
   id="circle20-7"
   cy="8453.3906"
   cx="13436.44"
   class="fil0"
   r="1941" /><text
   xml:space="preserve"
   style="font-style:normal;font-weight:normal;font-size:846.71246338px;line-height:125%;font-family:sans-serif;letter-spacing:0px;word-spacing:0px;fill:#d40000;fill-opacity:1;stroke:none;stroke-width:1px;stroke-linecap:butt;stroke-linejoin:miter;stroke-opacity:1;"
   x="13698.857"
   y="7880.5732"
   id="text3381"
   sodipodi:linespacing="125%"
   transform="scale(0.97860639,1.0218613)"><tspan
     sodipodi:role="line"
     id="tspan3383"
     x="13698.857"
     y="7880.5732"
     style="font-style:normal;font-variant:normal;font-weight:bold;font-stretch:normal;font-family:sans-serif;-inkscape-font-specification:'sans-serif Bold';text-align:center;text-anchor:middle;fill:#d40000;">love</tspan><tspan
     sodipodi:role="line"
     x="13698.857"
     y="8938.9639"
     id="tspan3385"
     style="font-style:normal;font-variant:normal;font-weight:bold;font-stretch:normal;font-family:sans-serif;-inkscape-font-specification:'sans-serif Bold';text-align:center;text-anchor:middle;fill:#d40000;">BORSH</tspan></text>
<circle
   style="clip-rule:evenodd;fill:#7e7e7e;fill-rule:evenodd;image-rendering:optimizeQuality;shape-rendering:geometricPrecision;text-rendering:geometricPrecision"
   id="circle18-7"
   cy="13013.661"
   cx="25843.832"
   class="fil0"
   r="0" /><text
   xml:space="preserve"
   style="font-style:normal;font-weight:normal;font-size:1057.67541504px;line-height:125%;font-family:sans-serif;letter-spacing:0px;word-spacing:0px;clip-rule:evenodd;fill:#ffffff;fill-opacity:1;fill-rule:evenodd;stroke:none;stroke-width:1px;stroke-linecap:butt;stroke-linejoin:miter;stroke-opacity:1;image-rendering:optimizeQuality;shape-rendering:geometricPrecision;text-rendering:geometricPrecision"
   x="8734.8643"
   y="10066.085"
   id="text3381-7"
   sodipodi:linespacing="125%"
   transform="scale(1.0094399,0.99064841)"><tspan
     sodipodi:role="line"
     id="tspan3383-7"
     x="8734.8643"
     y="10066.085"
     style="font-style:normal;font-variant:normal;font-weight:bold;font-stretch:normal;font-family:sans-serif;-inkscape-font-specification:'sans-serif Bold';text-align:center;text-anchor:middle;fill:#ffffff">NONE</tspan><tspan
     sodipodi:role="line"
     x="8734.8643"
     y="11342.603"
     id="tspan3385-8"
     style="font-style:normal;font-variant:normal;font-weight:bold;font-stretch:normal;font-family:sans-serif;-inkscape-font-specification:'sans-serif Bold';text-align:center;text-anchor:middle;fill:#ffffff">stop</tspan></text>
<circle
   style="clip-rule:evenodd;fill:#7e7e7e;fill-rule:evenodd;image-rendering:optimizeQuality;shape-rendering:geometricPrecision;text-rendering:geometricPrecision"
   id="circle18-6"
   cy="2802.9661"
   cx="27184.324"
   class="fil0"
   r="2260" /><path
   class="fil1"
   d="m 25637.289,2904.2542 0,-504 215,0 c 53,0 93,5 117,14 24,9 44,25 59,48 14,23 22,50 22,80 0,37 -11,69 -34,93 -22,25 -55,40 -99,47 22,13 40,27 54,42 15,15 34,43 58,82 l 61,98 -121,0 -73,-110 c -26,-39 -44,-63 -54,-74 -10,-10 -20,-17 -31,-21 -10,-3 -28,-5 -51,-5 l -21,0 0,210 -102,0 z m 102,-290 76,0 c 48,0 79,-3 91,-7 12,-4 22,-11 29,-21 6,-10 10,-23 10,-38 0,-17 -5,-30 -14,-41 -9,-10 -22,-17 -38,-20 -8,-1 -33,-1 -74,-1 l -80,0 0,128 z m 406,290 0,-504 373,0 0,86 -271,0 0,111 252,0 0,86 -252,0 0,136 281,0 0,85 -383,0 z m 443,-163 99,-10 c 6,33 18,58 36,73 18,16 43,23 74,23 32,0 57,-6 74,-20 16,-14 24,-30 24,-49 0,-12 -3,-22 -10,-30 -7,-9 -19,-16 -36,-22 -12,-4 -39,-11 -81,-22 -55,-14 -93,-30 -115,-50 -31,-28 -46,-62 -46,-102 0,-25 7,-50 22,-72 14,-22 35,-39 62,-51 28,-12 61,-18 99,-18 63,0 111,14 142,42 32,28 49,66 51,112 l -102,4 c -5,-26 -14,-45 -28,-56 -14,-12 -36,-17 -64,-17 -29,0 -52,6 -69,18 -11,8 -16,18 -16,31 0,12 5,23 15,31 13,11 44,22 93,34 50,12 86,24 110,36 24,13 42,30 55,51 14,22 20,49 20,81 0,28 -8,56 -24,81 -16,25 -38,44 -68,56 -29,12 -65,18 -109,18 -64,0 -113,-14 -147,-44 -34,-29 -54,-72 -61,-128 z m 496,163 0,-504 163,0 c 62,0 102,3 121,8 29,8 53,24 72,49 20,26 30,58 30,98 0,31 -6,57 -17,78 -11,22 -26,38 -43,50 -17,12 -35,20 -53,24 -24,5 -59,7 -105,7 l -66,0 0,190 -102,0 z m 102,-418 0,143 55,0 c 40,0 67,-3 81,-8 13,-5 24,-13 31,-25 8,-11 12,-24 12,-39 0,-18 -6,-34 -16,-46 -11,-11 -25,-19 -41,-22 -12,-2 -37,-3 -73,-3 l -49,0 z m 367,418 0,-504 373,0 0,86 -271,0 0,111 252,0 0,86 -252,0 0,136 281,0 0,85 -383,0 z m 792,-186 98,31 c -15,55 -40,96 -75,123 -35,27 -80,41 -134,41 -67,0 -122,-23 -165,-69 -43,-46 -65,-108 -65,-188 0,-83 22,-149 65,-195 43,-47 100,-70 171,-70 62,0 112,19 150,55 23,22 40,53 52,93 l -101,24 c -6,-26 -18,-47 -37,-62 -19,-15 -42,-22 -69,-22 -37,0 -68,13 -91,40 -23,26 -35,70 -35,130 0,63 12,109 34,136 23,27 53,40 90,40 27,0 50,-8 70,-25 19,-18 33,-45 42,-82 z m 299,186 0,-418 -149,0 0,-86 399,0 0,86 -148,0 0,418 -102,0 z"
   id="path67"
   inkscape:connector-curvature="0"
   style="fill:#fefefe;fill-rule:nonzero" /><circle
   style="clip-rule:evenodd;fill:#7e7e7e;fill-rule:evenodd;image-rendering:optimizeQuality;shape-rendering:geometricPrecision;text-rendering:geometricPrecision"
   id="circle18-6-2"
   cy="19109.111"
   cx="15460.806"
   class="fil0"
   r="1881.822" /><path
   class="fil1"
   d="m 14273.017,19169.797 78,24 c -12,44 -32,76 -60,98 -28,21 -63,32 -106,32 -53,0 -96,-18 -130,-55 -34,-36 -51,-85 -51,-148 0,-66 17,-117 51,-154 34,-37 79,-55 135,-55 49,0 88,14 119,43 18,17 32,42 41,74 l -80,18 c -5,-20 -14,-36 -29,-48 -15,-12 -34,-18 -55,-18 -29,0 -53,10 -72,32 -18,21 -27,55 -27,102 0,51 9,86 27,108 18,21 42,32 71,32 21,0 39,-7 55,-21 15,-13 26,-35 33,-64 z m 147,147 0,-398 80,0 0,157 157,0 0,-157 81,0 0,398 -81,0 0,-174 -157,0 0,174 -80,0 z m 401,0 0,-398 295,0 0,67 -214,0 0,89 199,0 0,67 -199,0 0,108 221,0 0,67 -302,0 z m 371,0 0,-398 294,0 0,67 -214,0 0,89 199,0 0,67 -199,0 0,108 222,0 0,67 -302,0 z m 370,0 0,-398 170,0 c 42,0 73,4 92,11 20,7 35,20 47,38 11,18 17,39 17,63 0,29 -9,54 -26,74 -18,19 -44,31 -78,36 17,10 31,22 42,34 12,12 27,33 46,64 l 48,78 -96,0 -57,-87 c -21,-31 -35,-50 -43,-58 -7,-8 -15,-14 -24,-17 -9,-3 -22,-4 -41,-4 l -16,0 0,166 -81,0 z m 81,-230 60,0 c 38,0 62,-1 72,-4 9,-4 17,-9 22,-17 6,-8 8,-18 8,-30 0,-14 -3,-24 -10,-33 -8,-8 -18,-13 -31,-15 -6,-1 -26,-2 -58,-2 l -63,0 0,101 z m 321,230 0,-398 273,0 0,67 -193,0 0,95 167,0 0,67 -167,0 0,169 -80,0 z m 339,-398 81,0 0,216 c 0,34 1,56 3,66 3,17 11,30 24,39 13,10 31,15 53,15 22,0 39,-4 51,-14 11,-9 18,-20 20,-34 3,-14 4,-36 4,-68 l 0,-220 81,0 0,209 c 0,48 -3,82 -7,102 -4,19 -12,36 -24,50 -11,13 -27,24 -46,32 -20,8 -45,12 -77,12 -38,0 -66,-4 -86,-13 -19,-9 -35,-20 -46,-34 -12,-14 -19,-29 -23,-44 -5,-23 -8,-57 -8,-101 l 0,-213 z m 404,398 0,-395 81,0 0,328 199,0 0,67 -280,0 z"
   id="path63"
   inkscape:connector-curvature="0"
   style="fill:#fefefe;fill-rule:nonzero" /><text
   xml:space="preserve"
   style="font-style:normal;font-weight:normal;font-size:959.47161865px;line-height:125%;font-family:sans-serif;letter-spacing:0px;word-spacing:0px;clip-rule:evenodd;fill:#d40000;fill-opacity:1;fill-rule:evenodd;stroke:none;stroke-width:1px;stroke-linecap:butt;stroke-linejoin:miter;stroke-opacity:1;image-rendering:optimizeQuality;shape-rendering:geometricPrecision;text-rendering:geometricPrecision;"
   x="5011.1343"
   y="6564.9644"
   id="text3381-7-0"
   sodipodi:linespacing="125%"
   transform="scale(0.97804133,1.0224517)"><tspan
     sodipodi:role="line"
     x="5011.1343"
     y="6564.9644"
     id="tspan3385-8-3"
     style="font-style:normal;font-variant:normal;font-weight:bold;font-stretch:normal;font-family:sans-serif;-inkscape-font-specification:'sans-serif Bold';text-align:center;text-anchor:middle;fill:#d40000;">FAMILY</tspan></text>
<circle
   style="clip-rule:evenodd;fill:#7e7e7e;fill-rule:evenodd;image-rendering:optimizeQuality;shape-rendering:geometricPrecision;text-rendering:geometricPrecision"
   id="circle18-6-6-3"
   cy="16328.391"
   cx="11300.848"
   class="fil0"
   r="2260" /><path
   class="fil1"
   d="m 9776.0593,16674.382 0,-504 215,0 c 53.0007,0 93.0007,5 117.0007,14 24,9 44,25 59,48 14,23 22,50 22,80 0,37 -11,69 -34,93 -22,25 -55,40 -99,47 22,13 40,27 54,42 15,15 34,43 58,82 l 61,98 -121,0 -73.001,-110 c -26.001,-39 -43.9997,-63 -54.0007,-74 -9.999,-10 -19.999,-17 -31,-21 -10,-3 -28,-5 -50.999,-5 l -21.001,0 0,210 -101.999,0 z m 101.999,-290 76,0 c 48.0007,0 79.0017,-3 91.0017,-7 12,-4 22,-11 29,-21 6,-10 10,-23 10,-38 0,-17 -5,-30 -14,-41 -9,-10 -22,-17 -38,-20 -8.001,-1 -33.0007,-1 -74.0007,-1 l -80.001,0 0,128 z m 406.0017,290 0,-504 373,0 0,86 -271,0 0,111 252,0 0,86 -252,0 0,136 281,0 0,85 -383,0 z m 443,-163 99,-10 c 6,33 18,58 36,73 18,16 43,23 74,23 32,0 57,-6 74,-20 16,-14 24,-30 24,-49 0,-12 -3,-22 -10,-30 -7,-9 -19,-16 -36,-22 -12,-4 -39,-11 -81,-22 -55,-14 -93,-30 -115,-50 -31,-28 -46,-62 -46,-102 0,-25 7,-50 22,-72 14,-22 35,-39 62,-51 28,-12 61,-18 99,-18 63,0 111,14 142,42 32,28 49,66 51,112 l -102,4 c -5,-26 -14,-45 -28,-56 -14,-12 -36,-17 -64,-17 -29,0 -52,6 -69,18 -11,8 -16,18 -16,31 0,12 5,23 15,31 13,11 44,22 93,34 50,12 86,24 110,36 24,13 42,30 55,51 14,22 20,49 20,81 0,28 -8,56 -24,81 -16,25 -38,44 -68,56 -29,12 -65,18 -109,18 -64,0 -113,-14 -147,-44 -34,-29 -54,-72 -61,-128 z m 496,163 0,-504 163,0 c 62,0 102,3 121,8 29,8 53,24 72,49 20,26 30,58 30,98 0,31 -6,57 -17,78 -11,22 -26,38 -43,50 -17,12 -35,20 -53,24 -24,5 -59,7 -105,7 l -66,0 0,190 -102,0 z m 102,-418 0,143 55,0 c 40,0 67,-3 81,-8 13,-5 24,-13 31,-25 8,-11 12,-24 12,-39 0,-18 -6,-34 -16,-46 -11,-11 -25,-19 -41,-22 -12,-2 -37,-3 -73,-3 l -49,0 z m 367,418 0,-504 372.999,0 0,86 -270.999,0 0,111 252,0 0,86 -252,0 0,136 281,0 0,85 -383,0 z m 791.999,-186 98,31 c -14.999,55 -40.001,96 -74.999,123 -35.001,27 -80,41 -134.002,41 -66.999,0 -121.998,-23 -164.999,-69 -42.999,-46 -65,-108 -65,-188 0,-83 22.001,-149 65,-195 43.001,-47 100,-70 170.999,-70 62,0 112.001,19 150,55 23,22 40.001,53 52,93 l -101,24 c -6,-26 -17.999,-47 -36.998,-62 -19,-15 -42,-22 -69.001,-22 -37.001,0 -68,13 -91,40 -23,26 -34.999,70 -34.999,130 0,63 11.999,109 33.999,136 23.001,27 53,40 89.999,40 27,0 50.001,-8 70.001,-25 19,-18 33,-45 42,-82 z m 298.999,186 0,-418 -148.998,0 0,-86 399,0 0,86 -148.001,0 0,418 -102.001,0 z"
   id="path67-1-8"
   inkscape:connector-curvature="0"
   style="clip-rule:evenodd;fill:#fefefe;fill-rule:nonzero;image-rendering:optimizeQuality;shape-rendering:geometricPrecision;text-rendering:geometricPrecision" /><circle
   style="clip-rule:evenodd;fill:#7e7e7e;fill-rule:evenodd;image-rendering:optimizeQuality;shape-rendering:geometricPrecision;text-rendering:geometricPrecision"
   id="circle18-6-6-5"
   cy="2802.9658"
   cx="10500"
   class="fil0"
   r="2260" /><path
   class="fil1"
   d="m 8952.966,2904.2541 0,-504 215,0 c 53,0 93,5 117,14 24,9 44,25 59,48 14,23 22,50 22,80 0,37 -11,69 -34,93 -22,25 -55,40 -99,47 22,13 40,27 54,42 15,15 34,43 58,82 l 61,98 -121,0 -73.001,-110 c -26,-39 -43.999,-63 -54,-74 -9.999,-10 -19.999,-17 -31,-21 -10,-3 -28,-5 -50.999,-5 l -21.001,0 0,210 -101.999,0 z m 101.999,-290 76,0 c 48.001,0 79.001,-3 91.001,-7 12,-4 22,-11 29,-21 6,-10 10,-23 10,-38 0,-17 -5,-30 -14,-41 -9,-10 -22,-17 -38,-20 -8.001,-1 -33,-1 -74,-1 l -80.001,0 0,128 z m 406.001,290 0,-504 373,0 0,86 -271,0 0,111 252,0 0,86 -252,0 0,136 281,0 0,85 -383,0 z m 443,-163 99,-10 c 6,33 18,58 36,73 18,16 43,23 74,23 32,0 57,-6 74,-20 16,-14 24,-30 24,-49 0,-12 -3,-22 -10,-30 -7,-9 -19,-16 -36,-22 -12,-4 -39,-11 -81,-22 -55,-14 -93,-30 -115,-50 -31,-28 -46,-62 -46,-102 0,-25 7,-50 22,-72 14,-22 35,-39 62,-51 28,-12 61,-18 99,-18 63,0 111,14 142,42 32,28 49,66 51,112 l -102,4 c -5,-26 -14,-45 -28,-56 -14,-12 -36,-17 -64,-17 -29,0 -52,6 -69,18 -11,8 -16,18 -16,31 0,12 5,23 15,31 13,11 44,22 93,34 50,12 86,24 110,36 24,13 42,30 55,51 14,22 20,49 20,81 0,28 -8,56 -24,81 -16,25 -38,44 -68,56 -29,12 -65,18 -109,18 -64,0 -113,-14 -147,-44 -34,-29 -54,-72 -61,-128 z m 496,163 0,-504 163,0 c 62,0 102,3 121,8 29,8 53,24 72,49 20,26 30,58 30,98 0,31 -6,57 -17,78 -11,22 -26,38 -43,50 -17,12 -35,20 -53,24 -24,5 -59,7 -105,7 l -66,0 0,190 -102,0 z m 102,-418 0,143 55,0 c 40,0 67,-3 81,-8 13,-5 24,-13 31,-25 8,-11 12,-24 12,-39 0,-18 -6,-34 -16,-46 -11,-11 -25,-19 -41,-22 -12,-2 -37,-3 -73,-3 l -49,0 z m 367,418 0,-504 373,0 0,86 -271,0 0,111 252,0 0,86 -252,0 0,136 281,0 0,85 -383,0 z m 791.999,-186 98.001,31 c -15,55 -40.001,96 -75,123 -35,27 -80,41 -134.001,41 -66.999,0 -121.999,-23 -164.999,-69 -43,-46 -65,-108 -65,-188 0,-83 22,-149 65,-195 43,-47 99.999,-70 170.999,-70 62,0 112.001,19 150,55 23,22 40.001,53 52,93 l -101,24 c -6,-26 -17.999,-47 -36.999,-62 -19,-15 -42,-22 -69,-22 -37.001,0 -68,13 -91,40 -23,26 -35,70 -35,130 0,63 12,109 33.999,136 23.001,27 53.001,40 90,40 27,0 50,-8 70.001,-25 18.999,-18 33,-45 41.999,-82 z m 299,186 0,-418 -148.999,0 0,-86 399,0 0,86 -148,0 0,418 -102.001,0 z"
   id="path67-1-7"
   inkscape:connector-curvature="0"
   style="clip-rule:evenodd;fill:#fefefe;fill-rule:nonzero;image-rendering:optimizeQuality;shape-rendering:geometricPrecision;text-rendering:geometricPrecision" /><text
   xml:space="preserve"
   style="font-style:normal;font-weight:normal;font-size:696.6137085px;line-height:125%;font-family:sans-serif;letter-spacing:0px;word-spacing:0px;fill:#ffffff;fill-opacity:1;stroke:none;stroke-width:1px;stroke-linecap:butt;stroke-linejoin:miter;stroke-opacity:1"
   x="683.159"
   y="19082.063"
   id="text3628"
   sodipodi:linespacing="125%"
   transform="scale(1.0075956,0.99246164)"><tspan
     sodipodi:role="line"
     id="tspan3630"
     x="683.159"
     y="19082.063"
     style="font-style:normal;font-variant:normal;font-weight:bold;font-stretch:normal;font-family:sans-serif;-inkscape-font-specification:'sans-serif Bold'">animation</tspan></text>
</svg>