<?xml version="1.0" encoding="UTF-8"?>
<!DOCTYPE svg PUBLIC "-//W3C//DTD SVG 1.1//EN" "http://www.w3.org/Graphics/SVG/1.1/DTD/svg11.dtd">
<!-- Creator: CorelDRAW X7 -->
<svg xmlns="http://www.w3.org/2000/svg" xml:space="preserve" width="297mm" height="210mm" version="1.1" style="shape-rendering:geometricPrecision; text-rendering:geometricPrecision; image-rendering:optimizeQuality; fill-rule:evenodd; clip-rule:evenodd"
viewBox="0 0 29700 21000"
 xmlns:xlink="http://www.w3.org/1999/xlink">
 <defs>
  <style type="text/css">
   <![CDATA[
    .str0 {stroke:#7E7E7E;stroke-width:7.62}
    .fil0 {fill:#7E7E7E}
    .fil1 {fill:#FEFEFE;fill-rule:nonzero}
   ]]>
  </style>
 </defs>
 <g id="Слой_x0020_1">
  <metadata id="CorelCorpID_0Corel-Layer"/>
  <circle class="fil0" cx="11400" cy="6603" r="2940"/>
  <circle class="fil0" cx="10984" cy="12482" r="2940"/>
  <circle class="fil0" cx="16262" cy="9862" r="2940"/>
  <circle class="fil0" cx="16476" cy="4091" r="2673"/>
  <circle class="fil0" cx="19704" cy="13859" r="2260"/>
  <circle class="fil0" cx="21135" cy="9936" r="1941"/>
  <circle class="fil0" cx="15559" cy="14514" r="1941"/>
  <circle class="fil0" cx="19731" cy="6856" r="1583"/>
  <circle class="fil0" cx="7027" cy="9233" r="2214"/>
  <circle class="fil0" cx="17790" cy="16977" r="1338"/>
  <circle class="fil0" cx="23459" cy="12800" r="1628"/>
  <circle class="fil0" cx="6224" cy="13378" r="1931"/>
  <circle class="fil0" cx="23517" cy="6612" r="2061"/>
  <circle class="fil0" cx="12768" cy="2423" r="1265"/>
  <circle class="fil0" cx="12713" cy="16982" r="1886"/>
  <circle class="fil0 str0" cx="15544" cy="17547" r="1077"/>
  <g id="_587675976">
   <path class="fil1" d="M9956 6131l146 -22c7,28 19,49 38,64 19,14 46,22 80,22 37,0 66,-7 85,-21 13,-10 19,-23 19,-39 0,-11 -4,-20 -11,-28 -7,-6 -23,-13 -48,-19 -118,-26 -192,-49 -223,-71 -44,-30 -66,-71 -66,-124 0,-48 19,-88 57,-120 37,-33 96,-49 175,-49 75,0 131,12 167,37 37,25 62,61 76,109l-137 26c-5,-22 -17,-38 -33,-50 -17,-11 -40,-17 -71,-17 -38,0 -66,5 -82,16 -12,8 -17,18 -17,30 0,10 5,19 14,26 14,10 59,23 137,41 77,18 132,39 162,65 31,26 46,62 46,108 0,50 -21,94 -63,130 -42,36 -104,54 -187,54 -75,0 -134,-15 -178,-45 -44,-30 -72,-71 -86,-123zm1005 155l0 -83c-20,30 -47,53 -79,70 -33,18 -67,26 -104,26 -37,0 -70,-8 -99,-24 -30,-16 -51,-39 -64,-68 -13,-30 -20,-71 -20,-122l0 -349 146 0 0 253c0,77 2,125 8,142 5,18 15,32 29,42 14,10 32,15 54,15 25,0 47,-7 67,-20 20,-14 33,-31 40,-51 8,-20 11,-70 11,-149l0 -232 145 0 0 550 -134 0zm279 -550l136 0 0 80c18,-27 41,-49 71,-67 30,-16 64,-25 100,-25 64,0 118,25 163,75 44,50 67,120 67,210 0,92 -23,163 -68,214 -45,51 -99,76 -163,76 -30,0 -58,-6 -82,-18 -25,-12 -51,-32 -78,-62l0 275 -146 0 0 -758zm144 266c0,62 12,108 36,138 25,29 54,44 89,44 34,0 62,-14 85,-41 22,-27 33,-72 33,-134 0,-57 -11,-100 -34,-128 -23,-29 -52,-43 -86,-43 -36,0 -65,14 -88,42 -24,27 -35,68 -35,122zm826 110l145 24c-19,53 -48,94 -88,122 -40,27 -91,41 -151,41 -95,0 -166,-31 -212,-93 -36,-51 -54,-114 -54,-190 0,-91 23,-163 71,-214 47,-52 108,-78 180,-78 82,0 146,27 194,81 47,54 70,137 67,249l-363 0c1,43 13,76 35,100 22,24 50,36 83,36 23,0 42,-6 58,-18 15,-13 27,-33 35,-60zm8 -147c-1,-43 -12,-75 -32,-97 -21,-22 -46,-33 -76,-33 -31,0 -57,12 -78,35 -21,23 -31,55 -30,95l216 0zm402 321l-145 0 0 -550 134 0 0 78c24,-37 44,-61 63,-73 19,-11 40,-17 63,-17 33,0 65,9 96,27l-45 127c-25,-16 -47,-24 -68,-24 -21,0 -38,6 -52,17 -14,11 -26,32 -34,61 -8,29 -12,91 -12,184l0 170zm-2508 904l149 45c-23,84 -61,146 -114,186 -53,41 -120,61 -201,61 -101,0 -184,-34 -249,-103 -65,-69 -97,-163 -97,-283 0,-126 32,-224 97,-294 66,-70 151,-105 258,-105 93,0 168,28 226,82 35,33 60,80 78,140l-152 37c-9,-40 -28,-71 -56,-94 -29,-22 -63,-34 -104,-34 -56,0 -102,20 -137,61 -35,40 -53,106 -53,196 0,96 18,164 52,205 35,40 80,61 135,61 41,0 76,-13 105,-39 30,-26 51,-67 63,-122zm280 279l0 -758 323 0c81,0 140,7 177,20 37,14 66,38 88,73 22,35 33,75 33,119 0,57 -16,104 -50,141 -33,38 -83,61 -149,71 33,19 60,40 81,63 22,23 51,64 87,123l93 148 -183 0 -110 -165c-40,-59 -67,-96 -81,-111 -15,-16 -30,-26 -46,-32 -17,-6 -43,-8 -78,-8l-31 0 0 316 -154 0zm154 -437l113 0c74,0 120,-3 138,-10 18,-6 33,-17 43,-32 10,-15 15,-34 15,-57 0,-25 -7,-46 -20,-62 -14,-15 -33,-25 -58,-29 -12,-2 -49,-3 -111,-3l-120 0 0 193zm1295 437l-165 0 -66 -172 -304 0 -63 172 -163 0 295 -758 162 0 304 758zm-281 -301l-105 -280 -103 280 208 0zm296 301l0 -137 400 -493 -354 0 0 -128 555 0 0 118 -416 512 432 0 0 128 -617 0zm913 0l0 -319 -278 -439 180 0 179 300 175 -300 176 0 -278 440 0 318 -154 0z"/>
   <path class="fil1" d="M9504 11913l-124 -22c14,-51 38,-88 72,-113 35,-24 86,-36 153,-36 62,0 107,7 138,21 29,15 51,33 63,56 12,22 18,63 18,123l-2 161c0,45 3,79 7,101 4,22 12,45 24,70l-136 0c-4,-9 -8,-23 -13,-41 -2,-8 -4,-13 -5,-16 -24,24 -49,41 -75,52 -27,12 -56,18 -86,18 -53,0 -95,-15 -126,-44 -31,-29 -46,-66 -46,-110 0,-30 7,-56 21,-79 14,-23 33,-41 59,-53 25,-12 61,-23 109,-32 64,-12 109,-23 134,-34l0 -14c0,-26 -7,-45 -20,-57 -13,-11 -38,-17 -74,-17 -25,0 -44,5 -57,15 -14,9 -25,27 -34,51zm185 112c-18,6 -46,13 -84,21 -38,8 -63,16 -75,24 -18,13 -27,29 -27,48 0,20 7,36 22,50 14,14 32,21 55,21 24,0 48,-8 71,-24 16,-13 27,-28 32,-46 4,-12 6,-34 6,-67l0 -27zm271 249l0 -719 138 0 0 719 -138 0zm375 0l-164 -521 134 0 97 341 90 -341 133 0 86 341 100 -341 136 0 -168 521 -132 0 -89 -336 -89 336 -134 0zm787 -361l-124 -22c14,-51 38,-88 72,-113 35,-24 86,-36 153,-36 62,0 108,7 138,21 30,15 51,33 63,56 12,22 19,63 19,123l-2 161c0,45 2,79 6,101 4,22 13,45 25,70l-137 0c-3,-9 -8,-23 -13,-41 -2,-8 -4,-13 -5,-16 -23,24 -48,41 -75,52 -27,12 -55,18 -86,18 -53,0 -95,-15 -126,-44 -31,-29 -46,-66 -46,-110 0,-30 7,-56 21,-79 14,-23 33,-41 59,-53 25,-12 62,-23 109,-32 65,-12 109,-23 134,-34l0 -14c0,-26 -6,-45 -20,-57 -13,-11 -38,-17 -74,-17 -24,0 -44,5 -57,15 -14,9 -25,27 -34,51zm185 112c-18,6 -45,13 -84,21 -38,8 -63,16 -75,24 -18,13 -27,29 -27,48 0,20 7,36 22,50 14,14 33,21 55,21 25,0 48,-8 71,-24 16,-13 27,-28 33,-46 3,-12 5,-34 5,-67l0 -27zm205 -272l147 0 125 369 122 -369 142 0 -184 501 -33 91c-12,30 -23,53 -35,69 -10,16 -23,29 -37,39 -15,10 -32,18 -53,23 -21,6 -44,8 -71,8 -26,0 -52,-2 -78,-8l-12 -107c22,4 41,6 59,6 32,0 56,-9 71,-28 15,-19 27,-43 35,-72l-198 -522zm575 374l139 -21c6,27 18,47 36,61 18,13 43,20 75,20 36,0 63,-6 81,-19 12,-9 18,-22 18,-37 0,-11 -4,-19 -10,-26 -7,-7 -22,-13 -46,-18 -111,-25 -182,-47 -212,-68 -41,-28 -61,-67 -61,-117 0,-46 17,-83 53,-114 36,-31 91,-46 166,-46 71,0 124,11 159,35 34,23 58,57 71,103l-129 24c-6,-20 -16,-36 -32,-47 -16,-11 -38,-16 -67,-16 -36,0 -62,5 -78,15 -11,7 -16,17 -16,28 0,10 5,18 14,25 12,9 55,22 129,39 74,17 125,37 154,61 29,25 43,59 43,103 0,48 -20,89 -60,123 -39,34 -98,52 -177,52 -71,0 -127,-15 -168,-43 -42,-29 -69,-68 -82,-117zm-3655 1268l0 -713 146 0 0 592 360 0 0 121 -506 0zm609 0l0 -719 532 0 0 122 -386 0 0 159 359 0 0 122 -359 0 0 195 400 0 0 121 -546 0zm1317 0l-156 0 -62 -163 -289 0 -60 163 -153 0 279 -719 153 0 288 719zm-266 -285l-100 -266 -97 266 197 0zm344 285l0 -719 306 0c76,0 132,7 167,20 35,13 63,36 84,69 21,33 31,70 31,113 0,54 -16,98 -47,134 -32,35 -79,57 -142,66 31,18 57,38 77,60 21,22 48,61 83,117l87 140 -173 0 -104 -157c-38,-55 -63,-91 -77,-105 -14,-15 -28,-25 -44,-30 -15,-5 -40,-8 -73,-8l-30 0 0 300 -145 0zm145 -414l108 0c69,0 113,-3 130,-9 17,-6 31,-16 41,-31 10,-14 15,-32 15,-54 0,-24 -7,-43 -20,-59 -13,-14 -31,-24 -54,-28 -12,-1 -48,-2 -106,-2l-114 0 0 183zm580 414l0 -719 141 0 296 482 0 -482 134 0 0 719 -145 0 -292 -472 0 472 -134 0zm720 0l0 -719 145 0 0 719 -145 0zm284 0l0 -719 141 0 296 482 0 -482 134 0 0 719 -145 0 -292 -472 0 472 -134 0zm1059 -264l0 -121 312 0 0 287c-30,29 -74,55 -132,78 -57,22 -116,33 -175,33 -75,0 -140,-15 -196,-47 -56,-32 -98,-77 -126,-136 -28,-59 -42,-123 -42,-192 0,-75 15,-141 47,-200 31,-58 77,-103 137,-134 47,-24 104,-36 173,-36 89,0 158,19 209,57 50,37 82,89 96,155l-144 27c-10,-35 -29,-63 -57,-84 -28,-20 -63,-30 -105,-30 -63,0 -113,20 -151,60 -37,41 -56,100 -56,179 0,86 19,150 57,193 38,42 88,64 149,64 30,0 61,-6 91,-18 31,-12 57,-27 79,-44l0 -91 -166 0z"/>
   <path class="fil1" d="M15074 9654l-127 0 0 -76c-21,29 -47,52 -76,67 -29,15 -58,22 -87,22 -60,0 -112,-24 -155,-72 -42,-49 -64,-116 -64,-202 0,-89 21,-156 63,-202 41,-46 94,-69 157,-69 59,0 109,24 152,73l0 -260 137 0 0 719zm-367 -271c0,56 8,97 23,121 22,37 53,55 93,55 31,0 58,-14 80,-41 23,-27 34,-67 34,-121 0,-60 -11,-104 -33,-130 -21,-26 -49,-40 -82,-40 -33,0 -60,13 -82,40 -22,26 -33,65 -33,116zm804 106l137 24c-17,50 -45,88 -83,115 -38,26 -86,39 -143,39 -91,0 -158,-30 -201,-89 -34,-47 -51,-107 -51,-180 0,-86 22,-154 67,-203 45,-49 102,-73 171,-73 77,0 138,26 183,77 45,51 66,129 64,235l-344 0c1,41 12,73 33,96 21,22 48,34 79,34 22,0 40,-6 55,-18 14,-12 25,-30 33,-57zm8 -139c-1,-40 -11,-71 -31,-91 -19,-21 -43,-32 -71,-32 -30,0 -55,11 -75,33 -19,22 -29,52 -28,90l205 0zm392 304l-210 -521 145 0 98 266 28 89c8,-23 13,-38 15,-45 4,-15 9,-29 14,-44l100 -266 141 0 -207 521 -124 0zm415 -591l0 -128 138 0 0 128 -138 0zm0 591l0 -521 138 0 0 521 -138 0zm279 0l0 -719 138 0 0 719 -138 0zm558 -591l0 -128 138 0 0 128 -138 0zm0 591l0 -521 138 0 0 521 -138 0zm753 0l-138 0 0 -265c0,-57 -3,-93 -8,-109 -6,-17 -16,-30 -29,-39 -14,-9 -30,-14 -49,-14 -24,0 -45,7 -64,20 -20,13 -33,30 -40,52 -7,21 -10,61 -10,119l0 236 -138 0 0 -521 128 0 0 76c45,-58 103,-87 172,-87 31,0 59,5 84,16 25,11 44,25 57,42 13,17 22,37 27,58 5,22 8,52 8,93l0 323zm-3699 403l264 0c60,0 106,4 137,14 42,12 78,34 108,66 30,31 53,70 69,116 15,46 23,103 23,170 0,59 -7,110 -22,153 -18,52 -43,95 -77,127 -25,25 -59,44 -102,57 -31,11 -74,16 -128,16l-272 0 0 -719zm145 121l0 476 108 0c41,0 70,-2 88,-7 23,-6 43,-16 58,-30 16,-14 28,-37 38,-69 10,-32 15,-76 15,-132 0,-55 -5,-98 -15,-127 -10,-30 -24,-53 -41,-70 -18,-17 -40,-28 -67,-34 -20,-4 -60,-7 -119,-7l-65 0zm580 598l0 -719 532 0 0 121 -387 0 0 160 360 0 0 121 -360 0 0 195 401 0 0 122 -546 0zm831 0l0 -598 -213 0 0 -121 570 0 0 121 -211 0 0 598 -146 0zm1025 0l-157 0 -62 -164 -288 0 -60 164 -154 0 279 -719 154 0 288 719zm-266 -285l-100 -267 -97 267 197 0zm338 285l0 -719 146 0 0 719 -146 0zm288 0l0 -713 146 0 0 591 360 0 0 122 -506 0zm571 -233l142 -14c8,47 25,82 51,104 26,22 61,33 105,33 47,0 82,-10 106,-29 23,-20 35,-43 35,-70 0,-17 -5,-31 -15,-43 -10,-12 -27,-22 -52,-31 -17,-6 -55,-17 -116,-32 -77,-19 -131,-43 -163,-71 -44,-40 -66,-88 -66,-145 0,-37 11,-71 31,-103 21,-32 51,-56 90,-73 39,-17 86,-25 141,-25 90,0 158,20 203,60 45,40 69,93 71,160l-145 5c-6,-37 -20,-64 -40,-80 -20,-17 -50,-25 -91,-25 -42,0 -75,9 -98,26 -15,12 -23,26 -23,45 0,17 7,32 21,44 19,15 63,31 134,48 70,17 122,34 156,52 33,18 60,42 79,73 19,31 29,69 29,114 0,42 -12,80 -35,116 -23,36 -55,63 -97,80 -42,18 -94,27 -156,27 -91,0 -161,-21 -210,-63 -48,-42 -77,-103 -87,-183z"/>
   <path class="fil1" d="M14992 3902l0 -648 133 0 0 537 327 0 0 111 -460 0zm550 0l0 -654 132 0 0 654 -132 0zm258 0l0 -654 449 0 0 111 -317 0 0 155 274 0 0 110 -274 0 0 278 -132 0zm557 0l0 -654 484 0 0 111 -351 0 0 145 326 0 0 110 -326 0 0 177 364 0 0 111 -497 0zm858 0l0 -654 133 0 0 654 -133 0zm224 -212l128 -13c8,43 24,75 47,95 24,20 56,30 96,30 42,0 74,-9 95,-27 22,-18 33,-39 33,-63 0,-15 -5,-28 -14,-39 -9,-11 -25,-21 -47,-28 -16,-6 -51,-15 -105,-29 -71,-18 -120,-39 -149,-65 -40,-36 -60,-80 -60,-132 0,-33 10,-65 28,-94 19,-29 46,-51 82,-66 35,-15 78,-23 128,-23 82,0 143,18 185,55 41,36 63,84 65,145l-133 5c-5,-34 -17,-58 -36,-73 -18,-15 -46,-22 -83,-22 -38,0 -67,8 -89,23 -14,11 -21,24 -21,41 0,16 7,29 20,40 16,14 57,29 121,44 64,15 111,31 142,47 30,16 55,38 72,66 17,29 26,63 26,104 0,38 -10,73 -31,106 -21,32 -51,57 -89,73 -38,16 -85,24 -142,24 -82,0 -146,-19 -190,-58 -44,-38 -71,-93 -79,-166zm-1882 1231l-150 -473 122 0 89 310 81 -310 121 0 79 310 90 -310 124 0 -152 473 -121 0 -81 -304 -80 304 -122 0zm593 -242c0,-42 10,-82 31,-121 20,-39 49,-69 87,-89 37,-21 79,-31 126,-31 71,0 130,23 176,69 46,47 68,106 68,177 0,72 -23,131 -69,179 -46,47 -104,70 -174,70 -44,0 -85,-10 -125,-29 -39,-20 -69,-49 -89,-87 -21,-38 -31,-84 -31,-138zm129 6c0,47 11,84 33,108 22,26 50,38 82,38 33,0 60,-12 82,-38 23,-24 34,-61 34,-108 0,-47 -11,-83 -34,-108 -22,-25 -49,-37 -82,-37 -32,0 -60,12 -82,37 -22,25 -33,61 -33,108zm577 236l-125 0 0 -473 116 0 0 67c20,-32 38,-53 54,-63 16,-9 34,-14 54,-14 29,0 57,8 83,23l-39 109c-21,-13 -41,-20 -59,-20 -17,0 -32,5 -44,14 -13,10 -22,27 -29,53 -7,25 -11,78 -11,158l0 146zm231 0l0 -653 125 0 0 347 147 -167 154 0 -161 173 173 300 -135 0 -120 -213 -58 62 0 151 -125 0z"/>
   <path class="fil1" d="M17868 13700l0 -553 380 0 0 93 -268 0 0 132 231 0 0 93 -231 0 0 235 -112 0zm448 -273c0,-57 9,-104 26,-142 12,-28 29,-54 51,-76 22,-23 45,-39 71,-50 35,-15 75,-22 120,-22 81,0 146,25 195,76 49,51 73,121 73,211 0,89 -24,159 -72,210 -49,50 -114,76 -195,76 -82,0 -148,-25 -196,-76 -49,-50 -73,-119 -73,-207zm115 -4c0,63 15,110 44,142 29,33 65,49 110,49 44,0 81,-16 110,-48 28,-32 42,-80 42,-145 0,-63 -13,-110 -41,-141 -28,-32 -65,-47 -111,-47 -46,0 -83,16 -112,47 -28,32 -42,79 -42,143zm862 73l108 33c-17,61 -44,106 -83,136 -38,29 -87,44 -147,44 -73,0 -133,-25 -181,-75 -47,-51 -71,-119 -71,-206 0,-92 24,-164 72,-215 47,-50 110,-76 187,-76 68,0 123,20 165,60 25,24 44,58 56,102l-110 26c-6,-28 -20,-51 -41,-67 -21,-17 -46,-25 -75,-25 -41,0 -75,14 -100,44 -26,29 -39,77 -39,143 0,69 13,119 38,149 25,29 58,44 98,44 30,0 56,-9 77,-28 21,-19 37,-49 46,-89zm204 -349l112 0 0 299c0,48 1,79 4,93 5,22 16,41 33,54 18,14 43,21 74,21 31,0 54,-7 70,-19 16,-13 26,-29 29,-48 3,-19 5,-50 5,-94l0 -306 112 0 0 291c0,66 -3,113 -9,140 -6,28 -17,51 -33,70 -17,19 -38,34 -65,45 -27,11 -63,17 -106,17 -53,0 -93,-6 -120,-19 -27,-12 -48,-28 -64,-47 -16,-20 -26,-40 -31,-62 -8,-31 -11,-78 -11,-140l0 -295zm528 374l109 -11c6,36 19,63 39,80 20,17 47,25 81,25 36,0 63,-7 81,-22 18,-15 27,-33 27,-54 0,-13 -4,-24 -12,-33 -7,-9 -20,-17 -40,-24 -13,-4 -42,-12 -88,-24 -60,-15 -102,-33 -126,-55 -34,-30 -50,-68 -50,-111 0,-29 8,-55 23,-80 16,-24 39,-43 69,-56 30,-13 66,-19 109,-19 69,0 121,15 156,46 35,31 53,72 55,123l-112 4c-5,-29 -15,-49 -31,-62 -15,-12 -39,-18 -70,-18 -32,0 -57,6 -75,20 -12,8 -18,20 -18,34 0,13 6,24 17,34 14,12 48,24 102,37 54,13 94,26 120,40 26,13 46,32 61,56 14,24 22,53 22,88 0,31 -9,61 -27,89 -17,27 -42,48 -74,61 -32,14 -72,21 -120,21 -70,0 -124,-16 -161,-49 -38,-32 -60,-79 -67,-140zm544 179l0 -553 409 0 0 93 -297 0 0 123 276 0 0 94 -276 0 0 149 307 0 0 94 -419 0zm514 -553l204 0c46,0 81,4 105,11 32,9 60,26 83,51 23,24 41,54 53,89 12,35 18,79 18,131 0,45 -6,84 -17,117 -14,40 -34,73 -59,98 -20,19 -46,33 -79,44 -24,8 -57,12 -98,12l-210 0 0 -553zm112 93l0 366 83 0c31,0 54,-2 67,-5 18,-5 33,-12 45,-23 12,-11 22,-29 29,-53 8,-25 12,-59 12,-102 0,-42 -4,-75 -12,-98 -7,-23 -18,-40 -31,-53 -14,-13 -31,-22 -52,-26 -15,-4 -46,-6 -91,-6l-50 0zm-3267 1116c0,-35 9,-69 26,-102 17,-33 42,-58 74,-75 32,-18 67,-26 106,-26 61,0 110,19 149,59 39,39 58,89 58,149 0,61 -20,111 -59,151 -39,40 -88,60 -147,60 -37,0 -72,-9 -105,-25 -33,-17 -59,-41 -76,-73 -17,-32 -26,-71 -26,-118zm109 6c0,40 9,70 28,91 19,22 42,32 70,32 27,0 50,-10 69,-32 19,-21 28,-51 28,-92 0,-39 -9,-69 -28,-90 -19,-21 -42,-32 -69,-32 -28,0 -51,11 -70,32 -19,21 -28,51 -28,91zm751 200l-105 0 0 -204c0,-44 -3,-72 -7,-84 -5,-13 -12,-23 -22,-30 -11,-7 -23,-10 -37,-10 -19,0 -36,5 -50,15 -15,10 -25,23 -30,40 -6,16 -9,47 -9,92l0 181 -105 0 0 -401 98 0 0 59c35,-45 79,-67 132,-67 24,0 45,4 64,12 20,9 35,19 45,32 10,14 17,28 20,45 4,16 6,40 6,71l0 249zm689 0l-98 0 0 -59c-16,23 -36,40 -58,51 -22,12 -45,18 -67,18 -46,0 -86,-19 -119,-56 -33,-37 -49,-89 -49,-155 0,-68 16,-120 48,-155 32,-36 72,-53 121,-53 45,0 84,18 116,55l0 -199 106 0 0 553zm-282 -208c0,42 6,73 17,93 17,27 41,41 72,41 24,0 45,-10 62,-31 17,-21 25,-52 25,-93 0,-46 -8,-80 -24,-100 -17,-20 -38,-30 -64,-30 -25,0 -46,10 -63,30 -17,20 -25,50 -25,90zm618 81l105 18c-13,39 -35,68 -64,88 -29,20 -66,31 -110,31 -69,0 -121,-23 -154,-69 -26,-36 -40,-82 -40,-138 0,-66 18,-118 52,-156 35,-38 79,-56 132,-56 59,0 106,19 141,59 34,39 50,99 49,181l-265 0c1,31 9,55 26,73 16,17 36,26 60,26 17,0 31,-4 42,-13 11,-9 20,-24 26,-44zm6 -107c-1,-31 -9,-54 -24,-70 -15,-16 -33,-24 -55,-24 -23,0 -42,8 -57,25 -15,17 -22,40 -22,69l158 0zm374 -167l0 84 -72 0 0 162c0,33 0,53 2,58 1,5 4,10 9,13 5,4 11,6 18,6 10,0 24,-4 43,-10l9 82c-25,10 -53,16 -84,16 -19,0 -36,-4 -51,-10 -16,-6 -27,-15 -34,-25 -7,-10 -12,-24 -15,-41 -2,-13 -3,-38 -3,-75l0 -176 -49 0 0 -84 49 0 0 -79 106 -63 0 142 72 0zm153 124l-96 -17c11,-39 30,-68 56,-87 26,-19 66,-28 118,-28 47,0 82,5 105,16 23,12 40,26 49,43 9,17 14,49 14,95l-1 123c0,35 1,61 5,78 3,17 9,35 19,54l-105 0c-3,-7 -7,-18 -11,-31 -1,-7 -3,-11 -3,-13 -18,18 -38,31 -58,40 -21,9 -43,14 -66,14 -41,0 -73,-12 -97,-34 -24,-22 -36,-50 -36,-85 0,-22 6,-42 17,-60 11,-18 26,-31 45,-41 20,-9 48,-17 84,-24 50,-10 84,-18 103,-26l0 -11c0,-21 -5,-35 -15,-44 -10,-9 -29,-13 -57,-13 -19,0 -34,3 -44,11 -11,7 -19,21 -26,40zm142 85c-14,5 -35,10 -64,16 -30,7 -49,13 -58,19 -14,10 -21,22 -21,37 0,15 6,28 17,39 11,10 25,16 42,16 19,0 37,-7 55,-19 12,-10 21,-21 25,-35 3,-9 4,-26 4,-52l0 -21zm208 -263l0 -98 106 0 0 98 -106 0zm0 455l0 -401 106 0 0 401 -106 0zm215 0l0 -553 106 0 0 553 -106 0zm176 -113l107 -16c4,20 13,36 27,46 14,11 34,16 58,16 28,0 48,-5 62,-15 9,-7 14,-16 14,-28 0,-8 -2,-15 -7,-20 -6,-5 -18,-10 -36,-14 -85,-19 -139,-36 -162,-52 -32,-22 -48,-52 -48,-90 0,-35 14,-64 41,-88 28,-24 70,-35 128,-35 54,0 95,9 122,27 26,18 45,44 55,79l-100 19c-4,-16 -12,-28 -24,-36 -12,-9 -29,-13 -52,-13 -28,0 -48,4 -60,12 -8,5 -12,12 -12,21 0,8 4,14 11,20 9,7 42,16 99,29 56,13 96,29 118,48 23,18 34,45 34,78 0,37 -16,69 -46,95 -31,26 -76,40 -137,40 -54,0 -97,-11 -129,-33 -32,-22 -53,-52 -63,-90z"/>
   <path class="fil1" d="M20279 9799l0 -471 96 0 0 391 238 0 0 80 -334 0zm382 -234c0,-49 7,-89 22,-122 10,-25 25,-46 44,-66 19,-19 39,-33 61,-42 30,-13 64,-19 103,-19 70,0 125,22 168,65 42,44 62,104 62,181 0,77 -20,137 -62,180 -42,44 -97,65 -167,65 -71,0 -127,-21 -169,-64 -41,-43 -62,-103 -62,-178zm99 -4c0,54 12,95 37,123 25,27 56,41 95,41 38,0 69,-13 94,-41 25,-28 37,-69 37,-124 0,-54 -12,-95 -36,-122 -24,-27 -56,-40 -95,-40 -40,0 -72,14 -96,41 -24,27 -36,68 -36,122zm558 238l-170 -475 104 0 120 352 116 -352 102 0 -169 475 -103 0zm320 0l0 -475 351 0 0 81 -255 0 0 105 237 0 0 80 -237 0 0 129 265 0 0 80 -361 0zm-1734 396l85 0 0 51c11,-18 26,-31 45,-42 18,-11 39,-16 62,-16 40,0 74,16 102,47 28,31 41,75 41,131 0,57 -14,102 -42,134 -28,32 -62,48 -102,48 -19,0 -36,-4 -51,-12 -16,-7 -32,-20 -49,-38l0 172 -91 0 0 -475zm90 167c0,39 7,67 23,86 15,18 33,27 55,27 21,0 39,-8 53,-25 14,-17 21,-45 21,-84 0,-36 -7,-63 -22,-80 -14,-18 -32,-27 -53,-27 -22,0 -41,9 -55,26 -15,18 -22,43 -22,77zm404 177l-90 0 0 -344 84 0 0 49c14,-23 27,-38 39,-45 11,-8 25,-11 39,-11 21,0 41,6 60,17l-28 79c-15,-10 -30,-15 -43,-15 -13,0 -23,4 -32,11 -9,7 -16,20 -21,38 -5,18 -8,57 -8,115l0 106zm150 -176c0,-30 8,-60 23,-88 14,-28 36,-50 63,-65 27,-15 57,-22 91,-22 52,0 95,17 128,51 33,34 50,76 50,128 0,52 -17,95 -51,129 -33,35 -75,52 -126,52 -32,0 -62,-7 -90,-22 -29,-14 -51,-35 -65,-62 -15,-28 -23,-62 -23,-101zm94 5c0,34 8,60 24,78 16,18 36,27 60,27 23,0 43,-9 59,-27 16,-18 24,-44 24,-79 0,-34 -8,-59 -24,-78 -16,-18 -36,-27 -59,-27 -24,0 -44,9 -60,27 -16,19 -24,45 -24,79zm632 -71l-90 16c-3,-18 -10,-31 -20,-40 -11,-9 -25,-14 -42,-14 -23,0 -41,8 -54,24 -14,16 -20,42 -20,79 0,40 7,69 20,86 14,17 32,25 55,25 17,0 32,-4 43,-14 11,-10 18,-27 23,-51l89 15c-9,41 -27,72 -53,93 -26,21 -62,32 -106,32 -50,0 -90,-16 -120,-48 -30,-32 -45,-76 -45,-132 0,-57 15,-101 45,-133 30,-31 71,-47 122,-47 42,0 75,9 100,27 24,18 42,45 53,82zm267 133l91 16c-11,33 -30,58 -55,76 -25,17 -57,26 -94,26 -60,0 -104,-20 -133,-59 -22,-31 -34,-71 -34,-119 0,-57 15,-101 45,-134 29,-32 67,-48 113,-48 51,0 91,17 121,51 29,33 43,85 42,155l-227 0c0,27 8,48 22,63 13,15 31,22 52,22 14,0 26,-3 35,-11 10,-8 17,-20 22,-38zm6 -92c-1,-26 -8,-46 -21,-60 -13,-14 -28,-21 -47,-21 -20,0 -36,8 -49,22 -13,15 -19,34 -19,59l136 0zm132 104l91 -14c4,18 12,31 24,40 12,10 28,14 50,14 23,0 41,-4 53,-13 8,-6 12,-14 12,-24 0,-7 -3,-13 -7,-17 -4,-5 -15,-9 -30,-12 -74,-17 -120,-31 -140,-45 -27,-18 -41,-44 -41,-77 0,-30 12,-55 36,-76 23,-20 60,-30 109,-30 47,0 82,8 105,23 23,15 38,38 47,68l-85 16c-4,-13 -11,-24 -21,-31 -11,-7 -25,-10 -44,-10 -25,0 -42,3 -52,10 -7,4 -11,10 -11,18 0,7 3,12 9,17 9,6 37,14 86,25 48,11 82,25 101,41 20,16 29,38 29,67 0,32 -13,59 -40,82 -26,22 -65,34 -116,34 -47,0 -84,-10 -112,-29 -27,-19 -45,-44 -53,-77zm368 0l92 -14c3,18 11,31 23,40 12,10 29,14 50,14 24,0 41,-4 53,-13 8,-6 12,-14 12,-24 0,-7 -2,-13 -6,-17 -5,-5 -15,-9 -31,-12 -73,-17 -120,-31 -139,-45 -28,-18 -41,-44 -41,-77 0,-30 12,-55 35,-76 24,-20 60,-30 109,-30 47,0 82,8 105,23 23,15 39,38 48,68l-86 16c-4,-13 -11,-24 -21,-31 -10,-7 -25,-10 -44,-10 -24,0 -41,3 -52,10 -7,4 -10,10 -10,18 0,7 3,12 9,17 8,6 37,14 85,25 49,11 83,25 102,41 19,16 29,38 29,67 0,32 -14,59 -40,82 -26,22 -65,34 -117,34 -47,0 -84,-10 -111,-29 -28,-19 -45,-44 -54,-77z"/>
   <path class="fil1" d="M14262 14577l92 28c-14,52 -38,91 -71,117 -33,25 -75,38 -126,38 -63,0 -115,-22 -155,-65 -41,-43 -61,-102 -61,-177 0,-79 20,-140 61,-184 41,-44 94,-65 161,-65 58,0 105,17 141,51 22,20 38,50 49,88l-95 22c-5,-24 -17,-44 -35,-58 -18,-14 -39,-21 -65,-21 -35,0 -64,12 -86,38 -22,25 -32,66 -32,122 0,60 10,103 32,128 22,26 50,38 84,38 26,0 48,-8 66,-24 18,-16 32,-42 40,-76zm175 175l0 -475 201 0c51,0 88,5 111,13 23,9 41,24 55,45 14,22 21,47 21,75 0,36 -11,65 -31,88 -21,24 -52,38 -94,44 21,12 38,26 51,40 14,14 32,40 54,77l58 93 -114 0 -69 -104c-25,-37 -41,-60 -51,-70 -9,-9 -18,-16 -28,-19 -11,-4 -27,-6 -49,-6l-19 0 0 199 -96 0zm96 -274l71 0c45,0 74,-2 86,-6 11,-4 20,-10 26,-20 7,-9 10,-21 10,-36 0,-16 -4,-28 -13,-38 -8,-10 -20,-16 -36,-19 -8,-1 -31,-2 -70,-2l-74 0 0 121zm382 274l0 -475 351 0 0 80 -255 0 0 106 237 0 0 80 -237 0 0 128 264 0 0 81 -360 0zm869 0l-103 0 -41 -108 -190 0 -40 108 -101 0 184 -475 101 0 190 475zm-175 -189l-66 -175 -64 175 130 0zm284 189l0 -395 -140 0 0 -80 376 0 0 80 -140 0 0 395 -96 0zm295 0l0 -475 96 0 0 475 -96 0zm309 0l-170 -475 104 0 120 351 116 -351 102 0 -169 475 -103 0zm320 0l0 -475 351 0 0 80 -255 0 0 106 237 0 0 80 -237 0 0 128 265 0 0 81 -361 0z"/>
   <path class="fil1" d="M19230 6744l0 -42c-10,15 -23,27 -40,36 -17,9 -34,13 -53,13 -19,0 -35,-4 -50,-12 -15,-9 -26,-20 -33,-35 -7,-15 -10,-36 -10,-63l0 -178 74 0 0 130c0,39 1,63 4,72 3,9 8,16 15,21 7,6 16,8 28,8 12,0 24,-3 34,-10 10,-7 17,-16 20,-26 4,-11 6,-36 6,-76l0 -119 74 0 0 281 -69 0zm119 -79l74 -11c3,14 10,25 20,32 9,8 23,11 40,11 19,0 34,-3 43,-10 7,-5 10,-12 10,-20 0,-6 -2,-10 -5,-14 -4,-3 -12,-7 -25,-10 -60,-13 -98,-25 -114,-36 -22,-15 -33,-36 -33,-63 0,-25 10,-45 29,-62 19,-16 49,-24 89,-24 38,0 67,6 85,18 19,13 32,31 39,56l-70 13c-3,-11 -8,-19 -17,-25 -8,-6 -20,-9 -36,-9 -19,0 -33,3 -42,8 -6,4 -8,9 -8,15 0,6 2,10 7,14 7,5 30,12 69,21 40,9 68,20 83,33 16,13 24,31 24,55 0,26 -11,48 -32,66 -22,19 -54,28 -96,28 -38,0 -68,-8 -91,-23 -22,-16 -37,-36 -43,-63zm327 -239l0 -69 74 0 0 69 -74 0zm0 318l0 -281 74 0 0 281 -74 0zm405 0l-74 0 0 -143c0,-30 -2,-50 -5,-59 -3,-9 -8,-15 -15,-20 -8,-5 -16,-8 -26,-8 -13,0 -25,4 -35,11 -11,7 -18,16 -21,28 -4,11 -6,33 -6,64l0 127 -74 0 0 -281 68 0 0 42c25,-32 56,-47 93,-47 17,0 32,2 45,8 14,6 24,14 31,23 7,9 12,19 15,31 3,12 4,28 4,50l0 174zm68 18l85 10c1,10 4,17 9,21 8,5 19,8 34,8 19,0 34,-3 43,-9 7,-4 12,-10 15,-19 2,-6 4,-17 4,-34l0 -41c-22,31 -51,46 -84,46 -38,0 -68,-16 -90,-48 -17,-25 -26,-56 -26,-94 0,-47 12,-83 34,-107 23,-25 51,-37 85,-37 34,0 63,15 85,45l0 -40 70 0 0 252c0,33 -3,58 -9,74 -5,16 -13,29 -23,39 -9,9 -23,16 -39,21 -16,6 -37,8 -62,8 -48,0 -82,-8 -102,-24 -19,-16 -29,-37 -29,-62 0,-3 0,-6 0,-9zm66 -164c0,30 6,51 18,65 11,14 25,21 42,21 18,0 33,-7 46,-21 12,-14 19,-35 19,-63 0,-29 -6,-51 -18,-65 -12,-14 -27,-21 -46,-21 -17,0 -32,7 -43,21 -12,14 -18,35 -18,63zm-1230 608l0 -66 168 0 0 154c-16,16 -40,30 -71,43 -31,12 -62,18 -94,18 -41,0 -76,-9 -106,-26 -30,-17 -52,-41 -68,-73 -15,-31 -22,-66 -22,-103 0,-41 8,-76 25,-108 17,-31 42,-55 74,-72 25,-13 56,-19 93,-19 48,0 85,10 112,30 27,20 45,48 52,84l-77 14c-6,-19 -16,-34 -31,-45 -15,-11 -34,-16 -56,-16 -34,0 -62,11 -82,32 -20,22 -30,54 -30,97 0,46 10,80 31,103 20,23 47,35 80,35 16,0 33,-4 49,-10 16,-6 31,-14 42,-23l0 -49 -89 0zm241 142l0 -387 164 0c41,0 71,3 90,10 19,7 34,19 45,37 12,18 17,38 17,61 0,29 -8,53 -25,72 -17,19 -43,31 -77,36 17,10 31,20 42,32 11,12 26,33 44,63l48 76 -94 0 -56 -85c-20,-30 -34,-49 -41,-57 -8,-7 -15,-13 -24,-16 -8,-3 -21,-4 -39,-4l-16 0 0 162 -78 0zm78 -224l58 0c37,0 61,-1 70,-4 9,-3 17,-9 22,-17 5,-7 8,-17 8,-29 0,-13 -4,-23 -11,-31 -7,-8 -17,-13 -29,-16 -7,0 -26,-1 -57,-1l-61 0 0 98zm312 224l0 -387 286 0 0 65 -208 0 0 86 194 0 0 65 -194 0 0 105 216 0 0 66 -294 0zm360 0l0 -387 287 0 0 65 -208 0 0 86 193 0 0 65 -193 0 0 105 215 0 0 66 -294 0zm361 -387l142 0c32,0 57,2 74,7 22,7 42,19 58,36 16,17 28,38 37,62 8,25 12,56 12,92 0,32 -4,59 -12,82 -9,28 -23,51 -41,69 -13,13 -32,23 -55,30 -17,6 -40,9 -69,9l-146 0 0 -387zm78 65l0 256 58 0c22,0 38,-1 47,-3 13,-4 23,-9 32,-17 8,-7 15,-20 20,-37 5,-17 8,-41 8,-71 0,-30 -3,-53 -8,-69 -5,-16 -13,-28 -22,-37 -10,-9 -22,-15 -36,-18 -11,-3 -32,-4 -64,-4l-35 0z"/>
   <path class="fil1" d="M5940 8877l110 -17c5,21 14,38 28,48 15,12 35,17 60,17 29,0 50,-5 64,-16 10,-7 15,-17 15,-29 0,-8 -3,-15 -8,-21 -6,-5 -18,-10 -37,-14 -88,-20 -144,-37 -168,-54 -33,-22 -49,-53 -49,-93 0,-36 14,-66 43,-91 28,-24 72,-36 131,-36 57,0 99,9 127,28 27,18 46,46 56,82l-102 19c-5,-16 -13,-29 -26,-37 -12,-9 -30,-13 -53,-13 -29,0 -50,4 -62,12 -9,6 -13,13 -13,22 0,8 4,15 11,20 10,7 44,18 103,31 58,13 99,29 122,49 23,19 35,46 35,81 0,38 -16,71 -48,98 -31,27 -78,41 -141,41 -56,0 -101,-11 -134,-34 -33,-23 -54,-54 -64,-93zm756 117l0 -62c-15,22 -35,39 -59,52 -25,13 -51,20 -78,20 -28,0 -53,-6 -75,-18 -22,-13 -38,-30 -48,-52 -10,-22 -15,-53 -15,-92l0 -263 109 0 0 191c0,59 2,94 7,107 4,14 11,24 22,32 10,7 24,11 40,11 19,0 36,-5 51,-15 15,-10 25,-23 30,-39 6,-15 8,-52 8,-112l0 -175 110 0 0 415 -102 0zm211 -415l102 0 0 61c13,-20 31,-37 54,-50 22,-13 47,-19 75,-19 48,0 89,19 122,56 34,38 51,91 51,158 0,69 -17,123 -51,161 -34,39 -75,58 -123,58 -23,0 -44,-5 -62,-14 -19,-9 -38,-24 -59,-46l0 207 -109 0 0 -572zm108 201c0,47 9,81 27,104 19,22 41,33 67,33 26,0 47,-10 64,-31 17,-20 25,-54 25,-100 0,-44 -9,-76 -26,-97 -17,-22 -39,-32 -64,-32 -27,0 -49,10 -67,31 -18,21 -26,51 -26,92zm622 83l109 18c-14,40 -36,71 -66,92 -31,20 -68,31 -114,31 -72,0 -125,-24 -160,-71 -27,-37 -40,-85 -40,-143 0,-68 17,-122 53,-161 36,-39 81,-58 136,-58 62,0 110,20 146,61 35,40 52,103 51,187l-274 0c1,32 10,58 26,76 17,18 38,27 63,27 17,0 32,-5 43,-14 12,-9 21,-25 27,-45zm6 -111c-1,-32 -9,-56 -24,-73 -16,-16 -35,-25 -57,-25 -24,0 -44,9 -59,27 -16,17 -23,41 -23,71l163 0zm303 242l-110 0 0 -415 102 0 0 59c17,-28 33,-46 47,-54 14,-9 30,-13 47,-13 25,0 49,7 72,20l-33 96c-19,-12 -36,-18 -52,-18 -15,0 -28,4 -39,12 -11,9 -19,24 -25,46 -6,22 -9,69 -9,139l0 128zm-1889 680l112 35c-17,63 -46,109 -85,140 -40,30 -91,46 -152,46 -76,0 -139,-26 -187,-78 -49,-52 -74,-123 -74,-213 0,-95 25,-169 74,-222 49,-52 114,-79 194,-79 70,0 126,21 170,62 26,25 46,60 59,106l-115 27c-6,-30 -20,-53 -42,-70 -21,-17 -47,-26 -78,-26 -42,0 -77,15 -103,46 -27,30 -40,79 -40,147 0,73 13,124 39,155 26,30 60,46 102,46 30,0 57,-10 79,-30 22,-19 38,-50 47,-92zm211 211l0 -571 243 0c61,0 106,5 133,15 28,10 50,29 67,55 16,26 25,56 25,90 0,43 -13,78 -38,106 -25,28 -62,46 -112,53 24,14 45,30 61,48 16,17 38,48 65,93l70 111 -138 0 -83 -125c-29,-44 -50,-72 -61,-84 -10,-11 -22,-19 -34,-23 -13,-4 -32,-7 -59,-7l-23 0 0 239 -116 0zm116 -330l85 0c56,0 90,-2 104,-7 14,-4 24,-12 32,-24 8,-11 12,-26 12,-43 0,-19 -5,-34 -16,-46 -10,-12 -24,-20 -43,-23 -9,-1 -37,-2 -84,-2l-90 0 0 145zm975 330l-125 0 -49 -130 -229 0 -47 130 -123 0 222 -571 122 0 229 571zm-211 -227l-80 -211 -77 211 157 0zm222 227l0 -104 301 -371 -266 0 0 -96 418 0 0 89 -313 385 325 0 0 97 -465 0zm688 0l0 -240 -209 -331 135 0 135 226 131 -226 133 0 -209 331 0 240 -116 0z"/>
   <path class="fil1" d="M17255 16898l72 8c1,9 4,14 8,18 6,4 16,6 28,6 17,0 29,-2 37,-7 6,-3 10,-8 13,-16 2,-5 3,-15 3,-29l0 -34c-19,26 -43,38 -71,38 -32,0 -57,-13 -76,-40 -15,-21 -22,-48 -22,-79 0,-40 10,-70 29,-91 19,-21 43,-32 71,-32 30,0 54,13 73,39l0 -34 58 0 0 213c0,28 -2,49 -7,63 -4,13 -11,24 -19,32 -8,8 -19,14 -33,19 -14,4 -32,6 -53,6 -40,0 -69,-7 -86,-20 -16,-14 -25,-32 -25,-53 0,-2 0,-5 0,-7zm57 -139c0,25 4,44 14,55 10,12 22,18 36,18 15,0 28,-6 39,-18 10,-12 16,-30 16,-53 0,-25 -5,-43 -16,-55 -10,-12 -22,-18 -38,-18 -15,0 -27,6 -37,18 -10,11 -14,29 -14,53zm214 2c0,-21 5,-41 15,-60 10,-20 25,-35 44,-45 19,-10 39,-16 63,-16 36,0 65,12 88,35 23,24 34,53 34,89 0,36 -12,65 -35,89 -23,24 -52,35 -87,35 -22,0 -42,-5 -62,-14 -20,-10 -35,-25 -45,-44 -10,-19 -15,-42 -15,-69zm64 3c0,24 6,42 17,54 11,13 25,19 41,19 16,0 30,-6 41,-19 11,-12 17,-30 17,-54 0,-23 -6,-41 -17,-54 -11,-12 -25,-18 -41,-18 -16,0 -30,6 -41,18 -11,13 -17,31 -17,54zm215 -3c0,-21 5,-41 15,-60 10,-20 25,-35 44,-45 19,-10 39,-16 63,-16 36,0 65,12 88,35 23,24 34,53 34,89 0,36 -12,65 -35,89 -23,24 -52,35 -87,35 -22,0 -42,-5 -62,-14 -20,-10 -35,-25 -45,-44 -10,-19 -15,-42 -15,-69zm64 3c0,24 6,42 17,54 11,13 25,19 41,19 16,0 30,-6 41,-19 11,-12 17,-30 17,-54 0,-23 -6,-41 -17,-54 -11,-12 -25,-18 -41,-18 -16,0 -30,6 -41,18 -11,13 -17,31 -17,54zm447 118l-58 0 0 -34c-10,13 -21,23 -35,30 -13,7 -26,10 -39,10 -28,0 -51,-11 -71,-33 -19,-22 -29,-52 -29,-92 0,-40 10,-70 29,-91 19,-21 42,-32 71,-32 27,0 50,11 69,33l0 -118 63 0 0 327zm-167 -123c0,26 3,44 10,55 10,17 24,25 42,25 15,0 27,-6 37,-18 10,-13 15,-31 15,-56 0,-27 -5,-47 -15,-59 -9,-12 -22,-18 -37,-18 -15,0 -27,6 -37,18 -10,12 -15,30 -15,53zm-938 634l0 -327 139 0c35,0 60,3 76,9 16,5 29,16 38,31 10,15 14,32 14,51 0,25 -7,45 -21,61 -15,16 -36,26 -65,30 15,9 26,18 36,28 9,10 21,27 37,53l40 64 -79 0 -47 -72c-17,-25 -29,-41 -35,-48 -7,-6 -13,-11 -20,-13 -7,-3 -18,-4 -34,-4l-13 0 0 137 -66 0zm66 -189l49 0c31,0 51,-1 59,-4 8,-3 14,-7 19,-14 4,-6 6,-15 6,-24 0,-11 -3,-20 -9,-27 -5,-7 -14,-11 -24,-13 -6,-1 -22,-1 -49,-1l-51 0 0 83zm264 189l0 -327 242 0 0 55 -176 0 0 73 163 0 0 55 -163 0 0 88 182 0 0 56 -248 0zm287 -106l64 -7c4,22 12,38 24,48 11,10 27,15 47,15 22,0 38,-5 48,-14 11,-9 16,-19 16,-31 0,-8 -2,-14 -6,-20 -5,-5 -13,-10 -24,-14 -8,-3 -25,-7 -53,-14 -35,-9 -60,-20 -74,-33 -20,-18 -30,-40 -30,-66 0,-16 5,-32 14,-47 10,-14 23,-25 41,-33 18,-7 39,-11 64,-11 41,0 72,9 92,27 21,18 32,42 33,73l-66 2c-3,-17 -9,-29 -18,-36 -9,-8 -23,-11 -42,-11 -19,0 -34,4 -44,11 -7,6 -11,12 -11,21 0,8 3,14 10,20 8,7 28,14 61,22 32,7 55,15 71,23 15,8 27,19 36,33 8,15 13,32 13,53 0,18 -6,36 -16,52 -10,17 -25,29 -44,37 -19,8 -43,12 -71,12 -42,0 -73,-10 -95,-29 -23,-19 -36,-47 -40,-83zm395 106l0 -272 -96 0 0 -55 259 0 0 55 -96 0 0 272 -67 0z"/>
   <path class="fil1" d="M22237 12852l78 24c-12,44 -32,76 -60,98 -28,21 -63,32 -106,32 -53,0 -96,-18 -130,-55 -34,-36 -51,-85 -51,-148 0,-66 17,-117 51,-154 34,-37 79,-55 135,-55 49,0 88,14 119,43 18,17 32,42 41,74l-80 18c-5,-20 -14,-36 -29,-48 -15,-12 -34,-18 -55,-18 -29,0 -53,10 -72,32 -18,21 -27,55 -27,102 0,51 9,86 27,108 18,21 42,32 71,32 21,0 39,-7 55,-21 15,-13 26,-35 33,-64zm147 147l0 -398 80 0 0 157 157 0 0 -157 81 0 0 398 -81 0 0 -174 -157 0 0 174 -80 0zm401 0l0 -398 295 0 0 67 -214 0 0 89 199 0 0 67 -199 0 0 108 221 0 0 67 -302 0zm371 0l0 -398 294 0 0 67 -214 0 0 89 199 0 0 67 -199 0 0 108 222 0 0 67 -302 0zm370 0l0 -398 170 0c42,0 73,4 92,11 20,7 35,20 47,38 11,18 17,39 17,63 0,29 -9,54 -26,74 -18,19 -44,31 -78,36 17,10 31,22 42,34 12,12 27,33 46,64l48 78 -96 0 -57 -87c-21,-31 -35,-50 -43,-58 -7,-8 -15,-14 -24,-17 -9,-3 -22,-4 -41,-4l-16 0 0 166 -81 0zm81 -230l60 0c38,0 62,-1 72,-4 9,-4 17,-9 22,-17 6,-8 8,-18 8,-30 0,-14 -3,-24 -10,-33 -8,-8 -18,-13 -31,-15 -6,-1 -26,-2 -58,-2l-63 0 0 101zm321 230l0 -398 273 0 0 67 -193 0 0 95 167 0 0 67 -167 0 0 169 -80 0zm339 -398l81 0 0 216c0,34 1,56 3,66 3,17 11,30 24,39 13,10 31,15 53,15 22,0 39,-4 51,-14 11,-9 18,-20 20,-34 3,-14 4,-36 4,-68l0 -220 81 0 0 209c0,48 -3,82 -7,102 -4,19 -12,36 -24,50 -11,13 -27,24 -46,32 -20,8 -45,12 -77,12 -38,0 -66,-4 -86,-13 -19,-9 -35,-20 -46,-34 -12,-14 -19,-29 -23,-44 -5,-23 -8,-57 -8,-101l0 -213zm404 398l0 -395 81 0 0 328 199 0 0 67 -280 0z"/>
   <path class="fil1" d="M4584 12853l0 -84 91 0 0 84 -91 0zm0 388l0 -342 91 0 0 342 -91 0zm494 0l-90 0 0 -174c0,-37 -2,-61 -6,-71 -4,-11 -10,-20 -19,-26 -8,-6 -19,-9 -31,-9 -16,0 -30,5 -43,13 -12,9 -21,20 -26,34 -4,14 -7,40 -7,79l0 154 -90 0 0 -342 84 0 0 50c30,-38 67,-57 113,-57 20,0 38,4 55,11 17,7 29,16 38,27 8,11 14,24 17,38 4,14 5,35 5,61l0 212zm248 -342l0 72 -62 0 0 139c0,28 1,44 2,49 1,4 4,8 8,11 4,3 9,5 15,5 9,0 21,-3 37,-9l7 70c-21,9 -44,14 -71,14 -16,0 -31,-3 -44,-8 -13,-6 -22,-13 -28,-22 -7,-8 -11,-20 -13,-35 -2,-11 -3,-32 -3,-64l0 -150 -42 0 0 -72 42 0 0 -68 90 -53 0 121 62 0zm261 234l90 15c-11,33 -29,59 -54,76 -25,17 -57,26 -94,26 -60,0 -104,-20 -132,-58 -23,-32 -34,-71 -34,-118 0,-57 15,-102 44,-134 30,-32 67,-48 113,-48 50,0 91,17 120,50 29,34 43,86 42,155l-226 0c1,27 8,48 22,63 14,15 31,22 52,22 14,0 26,-4 35,-11 10,-8 17,-21 22,-38zm5 -91c0,-27 -7,-47 -20,-60 -13,-14 -28,-21 -47,-21 -19,0 -36,7 -48,22 -13,14 -20,34 -19,59l134 0zm250 199l-90 0 0 -342 84 0 0 49c14,-23 27,-38 39,-45 11,-7 24,-11 39,-11 21,0 40,6 60,17l-28 79c-16,-10 -30,-15 -43,-15 -13,0 -23,4 -32,11 -9,7 -16,19 -21,37 -5,19 -8,57 -8,115l0 105zm368 -108l91 15c-12,33 -30,59 -55,76 -25,17 -57,26 -94,26 -59,0 -104,-20 -132,-58 -23,-32 -34,-71 -34,-118 0,-57 15,-102 45,-134 29,-32 67,-48 112,-48 51,0 91,17 120,50 29,34 44,86 42,155l-226 0c1,27 8,48 22,63 14,15 31,22 52,22 14,0 26,-4 35,-11 10,-8 17,-21 22,-38zm6 -91c-1,-27 -8,-47 -21,-60 -13,-14 -28,-21 -47,-21 -19,0 -35,7 -48,22 -13,14 -19,34 -19,59l135 0zm131 103l91 -14c4,18 11,31 23,40 12,9 29,14 50,14 23,0 41,-5 53,-13 8,-6 12,-14 12,-24 0,-7 -3,-13 -7,-17 -4,-5 -15,-9 -30,-12 -73,-17 -119,-31 -139,-45 -27,-18 -41,-44 -41,-77 0,-29 12,-54 36,-75 23,-20 59,-30 108,-30 47,0 82,8 105,23 22,15 38,38 47,68l-85 16c-4,-14 -11,-24 -21,-31 -10,-7 -25,-11 -44,-11 -24,0 -41,4 -52,10 -7,5 -10,11 -10,19 0,6 3,12 9,16 8,6 37,15 85,26 48,11 82,24 101,40 19,16 28,38 28,67 0,32 -13,59 -39,81 -26,23 -65,34 -116,34 -47,0 -84,-10 -111,-28 -27,-19 -45,-45 -53,-77zm555 -246l0 72 -62 0 0 139c0,28 1,44 2,49 1,4 4,8 8,11 4,3 9,5 15,5 9,0 21,-3 37,-9l7 70c-21,9 -45,14 -71,14 -16,0 -31,-3 -44,-8 -13,-6 -23,-13 -29,-22 -6,-8 -10,-20 -12,-35 -2,-11 -3,-32 -3,-64l0 -150 -42 0 0 -72 42 0 0 -68 90 -53 0 121 62 0zm63 -46l0 -84 90 0 0 84 -90 0zm0 388l0 -342 90 0 0 342 -90 0zm494 0l-90 0 0 -174c0,-37 -2,-61 -6,-71 -4,-11 -10,-20 -19,-26 -8,-6 -19,-9 -31,-9 -16,0 -30,5 -43,13 -12,9 -21,20 -26,34 -4,14 -7,40 -7,79l0 154 -90 0 0 -342 84 0 0 50c30,-38 67,-57 113,-57 20,0 38,4 55,11 17,7 29,16 38,27 8,11 14,24 17,38 4,14 5,35 5,61l0 212zm83 22l104 13c2,12 6,20 12,25 8,6 22,10 40,10 24,0 42,-4 54,-11 7,-5 13,-12 18,-23 2,-7 4,-21 4,-41l0 -50c-27,37 -61,55 -103,55 -46,0 -82,-19 -109,-58 -21,-31 -32,-69 -32,-114 0,-58 14,-101 42,-132 27,-30 62,-45 103,-45 42,0 77,19 105,56l0 -49 84 0 0 307c0,40 -3,71 -10,90 -7,20 -16,36 -28,47 -12,12 -28,21 -48,27 -20,7 -46,10 -76,10 -58,0 -99,-10 -124,-30 -24,-20 -36,-45 -36,-76 0,-3 0,-7 0,-11zm81 -200c0,37 7,63 21,80 14,17 32,25 52,25 22,0 41,-8 56,-26 15,-17 23,-42 23,-76 0,-36 -7,-62 -22,-79 -14,-17 -33,-26 -55,-26 -22,0 -40,9 -54,26 -14,16 -21,42 -21,76zm-2745 915l0 -472 153 0c57,0 95,2 113,7 27,7 49,22 68,46 18,24 27,54 27,92 0,29 -5,53 -16,73 -10,20 -24,35 -40,47 -16,11 -32,18 -49,22 -23,4 -56,7 -99,7l-62 0 0 178 -95 0zm95 -392l0 134 52 0c38,0 63,-3 75,-7 13,-5 23,-13 30,-24 7,-10 11,-23 11,-37 0,-17 -5,-31 -15,-42 -10,-11 -23,-18 -39,-21 -11,-2 -34,-3 -68,-3l-46 0zm344 392l0 -472 350 0 0 80 -254 0 0 104 236 0 0 80 -236 0 0 128 263 0 0 80 -359 0zm440 0l0 -472 201 0c50,0 87,4 110,13 23,8 41,23 55,45 13,21 20,46 20,74 0,36 -10,65 -31,88 -21,23 -52,37 -93,43 21,12 38,26 51,40 13,14 31,40 54,77l57 92 -113 0 -69 -103c-24,-37 -41,-60 -50,-70 -9,-9 -19,-16 -29,-19 -10,-4 -26,-5 -48,-5l-19 0 0 197 -96 0zm96 -273l70 0c46,0 74,-1 86,-5 11,-4 20,-11 26,-20 7,-10 10,-22 10,-36 0,-16 -4,-28 -13,-38 -8,-10 -20,-16 -35,-19 -8,-1 -31,-1 -70,-1l-74 0 0 119zm355 120l93 -9c6,31 17,53 34,68 17,15 40,22 69,22 30,0 53,-7 69,-20 15,-13 23,-28 23,-45 0,-11 -3,-21 -10,-29 -6,-7 -18,-14 -34,-20 -11,-4 -36,-11 -76,-21 -51,-12 -86,-28 -107,-47 -29,-26 -43,-57 -43,-95 0,-24 7,-46 20,-67 14,-21 33,-37 59,-48 25,-11 56,-17 92,-17 59,0 104,13 134,40 30,26 45,61 47,105l-96 3c-4,-25 -13,-42 -26,-53 -13,-10 -33,-16 -60,-16 -27,0 -49,6 -64,17 -10,8 -15,18 -15,30 0,11 4,21 14,29 12,10 41,20 87,31 46,11 81,23 103,34 22,12 39,28 52,48 12,21 19,46 19,75 0,27 -8,53 -23,76 -15,24 -36,42 -64,53 -27,12 -61,17 -102,17 -60,0 -106,-13 -138,-41 -32,-27 -51,-68 -57,-120zm445 -80c0,-49 7,-89 22,-122 10,-24 25,-45 43,-64 19,-20 39,-34 61,-43 30,-13 64,-19 102,-19 70,0 125,22 167,65 42,43 63,103 63,180 0,77 -21,137 -62,180 -42,43 -97,64 -166,64 -71,0 -127,-21 -168,-64 -41,-43 -62,-102 -62,-177zm98 -4c0,54 12,94 37,122 25,28 56,42 94,42 38,0 70,-14 94,-42 25,-27 37,-68 37,-123 0,-54 -12,-94 -36,-121 -24,-27 -55,-40 -95,-40 -39,0 -71,13 -95,40 -24,27 -36,68 -36,122zm434 237l0 -472 93 0 194 316 0 -316 88 0 0 472 -95 0 -191 -311 0 311 -89 0z"/>
   <path class="fil1" d="M21900 6864l0 -504 215 0c53,0 93,5 117,14 24,9 44,25 59,48 14,23 22,50 22,80 0,37 -11,69 -34,93 -22,25 -55,40 -99,47 22,13 40,27 54,42 15,15 34,43 58,82l61 98 -121 0 -73 -110c-26,-39 -44,-63 -54,-74 -10,-10 -20,-17 -31,-21 -10,-3 -28,-5 -51,-5l-21 0 0 210 -102 0zm102 -290l76 0c48,0 79,-3 91,-7 12,-4 22,-11 29,-21 6,-10 10,-23 10,-38 0,-17 -5,-30 -14,-41 -9,-10 -22,-17 -38,-20 -8,-1 -33,-1 -74,-1l-80 0 0 128zm406 290l0 -504 373 0 0 86 -271 0 0 111 252 0 0 86 -252 0 0 136 281 0 0 85 -383 0zm443 -163l99 -10c6,33 18,58 36,73 18,16 43,23 74,23 32,0 57,-6 74,-20 16,-14 24,-30 24,-49 0,-12 -3,-22 -10,-30 -7,-9 -19,-16 -36,-22 -12,-4 -39,-11 -81,-22 -55,-14 -93,-30 -115,-50 -31,-28 -46,-62 -46,-102 0,-25 7,-50 22,-72 14,-22 35,-39 62,-51 28,-12 61,-18 99,-18 63,0 111,14 142,42 32,28 49,66 51,112l-102 4c-5,-26 -14,-45 -28,-56 -14,-12 -36,-17 -64,-17 -29,0 -52,6 -69,18 -11,8 -16,18 -16,31 0,12 5,23 15,31 13,11 44,22 93,34 50,12 86,24 110,36 24,13 42,30 55,51 14,22 20,49 20,81 0,28 -8,56 -24,81 -16,25 -38,44 -68,56 -29,12 -65,18 -109,18 -64,0 -113,-14 -147,-44 -34,-29 -54,-72 -61,-128zm496 163l0 -504 163 0c62,0 102,3 121,8 29,8 53,24 72,49 20,26 30,58 30,98 0,31 -6,57 -17,78 -11,22 -26,38 -43,50 -17,12 -35,20 -53,24 -24,5 -59,7 -105,7l-66 0 0 190 -102 0zm102 -418l0 143 55 0c40,0 67,-3 81,-8 13,-5 24,-13 31,-25 8,-11 12,-24 12,-39 0,-18 -6,-34 -16,-46 -11,-11 -25,-19 -41,-22 -12,-2 -37,-3 -73,-3l-49 0zm367 418l0 -504 373 0 0 86 -271 0 0 111 252 0 0 86 -252 0 0 136 281 0 0 85 -383 0zm792 -186l98 31c-15,55 -40,96 -75,123 -35,27 -80,41 -134,41 -67,0 -122,-23 -165,-69 -43,-46 -65,-108 -65,-188 0,-83 22,-149 65,-195 43,-47 100,-70 171,-70 62,0 112,19 150,55 23,22 40,53 52,93l-101 24c-6,-26 -18,-47 -37,-62 -19,-15 -42,-22 -69,-22 -37,0 -68,13 -91,40 -23,26 -35,70 -35,130 0,63 12,109 34,136 23,27 53,40 90,40 27,0 50,-8 70,-25 19,-18 33,-45 42,-82zm299 186l0 -418 -149 0 0 -86 399 0 0 86 -148 0 0 418 -102 0z"/>
   <path class="fil1" d="M11872 2139l-53 -10c6,-22 16,-38 31,-48 14,-11 36,-16 65,-16 27,0 47,3 60,9 12,6 22,14 27,24 5,10 8,27 8,53l-1 69c0,20 1,34 3,44 2,9 5,19 10,30l-58 0c-2,-4 -4,-10 -6,-18 -1,-3 -2,-5 -2,-7 -10,10 -21,18 -33,23 -11,5 -23,7 -36,7 -23,0 -41,-6 -55,-19 -13,-12 -20,-28 -20,-47 0,-13 3,-24 10,-34 6,-10 14,-17 25,-23 11,-5 26,-9 47,-13 28,-6 47,-10 57,-15l0 -6c0,-11 -2,-20 -8,-25 -6,-4 -16,-7 -32,-7 -10,0 -19,2 -25,6 -6,5 -10,12 -14,23zm79 48c-7,2 -19,5 -36,9 -16,3 -27,7 -32,10 -8,5 -11,12 -11,21 0,8 3,15 9,21 6,6 14,9 23,9 11,0 21,-3 31,-10 7,-6 12,-12 14,-20 2,-5 2,-14 2,-29l0 -11zm159 107l-71 -224 57 0 42 146 39 -146 57 0 37 146 43 -146 58 0 -72 224 -56 0 -39 -144 -38 144 -57 0zm423 -71l60 10c-8,21 -20,38 -36,49 -17,12 -37,17 -62,17 -39,0 -68,-13 -86,-38 -15,-20 -22,-46 -22,-77 0,-37 9,-67 29,-88 19,-21 44,-31 73,-31 33,0 60,11 79,33 19,22 28,56 28,101l-149 0c1,18 6,31 15,41 9,10 20,15 34,15 9,0 17,-3 23,-8 6,-5 11,-13 14,-24zm4 -60c-1,-17 -5,-30 -13,-39 -9,-9 -19,-14 -31,-14 -13,0 -24,5 -32,14 -8,10 -13,23 -12,39l88 0zm86 68l59 -9c3,11 8,20 16,26 7,6 18,8 32,8 16,0 27,-2 35,-8 5,-4 8,-9 8,-16 0,-4 -2,-8 -5,-11 -3,-3 -9,-5 -19,-8 -48,-10 -79,-20 -91,-29 -18,-12 -27,-29 -27,-50 0,-20 8,-36 23,-49 15,-14 39,-20 71,-20 31,0 54,5 69,15 15,10 25,25 30,44l-55 11c-3,-9 -7,-16 -14,-20 -7,-5 -16,-7 -29,-7 -15,0 -27,2 -33,6 -5,3 -7,7 -7,12 0,4 2,8 6,11 5,4 24,9 55,17 32,7 54,16 67,26 12,11 18,25 18,44 0,21 -8,38 -26,53 -17,15 -42,22 -76,22 -30,0 -54,-6 -72,-18 -18,-13 -30,-29 -35,-50zm247 -52c0,-20 5,-39 15,-57 9,-19 23,-33 41,-43 18,-9 38,-14 60,-14 33,0 61,11 83,33 21,22 32,50 32,83 0,34 -11,62 -33,85 -21,22 -49,33 -82,33 -21,0 -40,-4 -59,-14 -18,-9 -33,-23 -42,-41 -10,-18 -15,-39 -15,-65zm61 3c0,22 5,39 16,51 10,12 23,18 39,18 15,0 28,-6 39,-18 10,-12 15,-29 15,-51 0,-22 -5,-39 -15,-51 -11,-12 -24,-18 -39,-18 -16,0 -29,6 -39,18 -11,12 -16,29 -16,51zm212 -112l55 0 0 30c19,-23 43,-35 70,-35 14,0 26,3 37,9 10,6 19,14 26,26 10,-12 20,-20 32,-26 11,-6 23,-9 36,-9 16,0 30,3 42,10 11,7 20,16 25,29 4,10 6,25 6,47l0 143 -59 0 0 -128c0,-22 -2,-37 -6,-43 -5,-9 -14,-13 -25,-13 -8,0 -16,3 -24,8 -7,5 -12,12 -15,22 -4,10 -5,25 -5,46l0 108 -59 0 0 -123c0,-22 -2,-36 -4,-42 -2,-6 -5,-11 -9,-14 -5,-3 -11,-5 -18,-5 -10,0 -18,3 -25,7 -7,5 -13,13 -16,22 -3,9 -4,24 -4,46l0 109 -60 0 0 -224zm518 153l59 10c-7,21 -19,38 -36,49 -16,12 -37,17 -61,17 -39,0 -68,-13 -87,-38 -14,-20 -22,-46 -22,-77 0,-37 10,-67 29,-88 20,-21 44,-31 74,-31 33,0 59,11 79,33 19,22 28,56 27,101l-148 0c1,18 5,31 15,41 9,10 20,15 33,15 10,0 18,-3 24,-8 6,-5 11,-13 14,-24zm4 -60c-1,-17 -5,-30 -14,-39 -8,-9 -18,-14 -30,-14 -13,0 -24,5 -32,14 -9,10 -13,23 -13,39l89 0zm-1669 460c0,-31 5,-58 14,-79 7,-16 17,-30 29,-43 12,-12 25,-21 40,-28 19,-8 41,-12 67,-12 45,0 82,14 109,43 27,28 41,67 41,118 0,50 -14,89 -41,117 -27,28 -63,42 -109,42 -46,0 -82,-14 -109,-42 -27,-28 -41,-66 -41,-116zm64 -2c0,35 8,62 25,80 16,18 36,27 61,27 25,0 46,-9 62,-27 16,-18 24,-45 24,-81 0,-35 -8,-62 -24,-79 -15,-18 -36,-26 -62,-26 -26,0 -46,9 -62,26 -16,18 -24,45 -24,80zm285 155l0 -309 212 0 0 52 -150 0 0 73 130 0 0 53 -130 0 0 131 -62 0zm263 0l0 -309 213 0 0 52 -150 0 0 73 129 0 0 53 -129 0 0 131 -63 0zm262 0l0 -309 62 0 0 309 -62 0zm320 -114l60 18c-9,35 -25,60 -46,76 -22,17 -49,25 -82,25 -41,0 -75,-14 -102,-42 -26,-28 -39,-66 -39,-115 0,-52 13,-92 40,-120 26,-29 61,-43 104,-43 38,0 69,11 93,34 14,13 24,32 31,57l-61 15c-4,-16 -12,-29 -23,-38 -12,-10 -26,-14 -43,-14 -23,0 -41,8 -55,24 -15,17 -22,43 -22,80 0,39 7,67 21,84 14,16 33,25 55,25 17,0 31,-6 43,-16 12,-11 21,-27 26,-50zm114 114l0 -309 229 0 0 52 -167 0 0 69 155 0 0 52 -155 0 0 84 173 0 0 52 -235 0z"/>
   <path class="fil1" d="M12124 16849l0 -50c-12,18 -28,32 -48,42 -20,11 -41,16 -63,16 -23,0 -43,-5 -61,-15 -17,-10 -30,-23 -38,-41 -8,-18 -12,-43 -12,-74l0 -212 88 0 0 154c0,47 2,75 5,86 3,11 9,19 18,25 8,6 19,10 33,10 15,0 28,-5 40,-13 12,-8 20,-18 25,-31 4,-12 6,-42 6,-90l0 -141 89 0 0 334 -82 0zm141 -94l89 -14c3,17 11,30 23,39 11,9 27,13 48,13 23,0 40,-4 52,-12 7,-6 11,-14 11,-24 0,-6 -2,-12 -6,-16 -5,-5 -14,-9 -30,-12 -71,-16 -116,-30 -135,-43 -27,-18 -40,-44 -40,-76 0,-29 11,-53 34,-73 23,-20 59,-29 107,-29 45,0 79,7 102,22 22,15 37,37 45,66l-83 16c-3,-13 -10,-23 -20,-30 -10,-7 -24,-11 -43,-11 -23,0 -40,4 -50,10 -7,5 -10,11 -10,18 0,6 3,12 9,16 8,6 35,14 82,25 48,11 81,24 99,39 19,16 28,38 28,66 0,31 -13,57 -38,79 -26,22 -64,33 -114,33 -46,0 -82,-9 -108,-27 -27,-19 -44,-44 -52,-75zm389 -285l0 -82 89 0 0 82 -89 0zm0 379l0 -334 89 0 0 334 -89 0zm483 0l-88 0 0 -171c0,-36 -2,-59 -6,-69 -4,-11 -10,-19 -18,-25 -9,-6 -19,-9 -31,-9 -16,0 -29,4 -42,13 -12,8 -20,19 -25,33 -5,14 -7,39 -7,77l0 151 -88 0 0 -334 82 0 0 49c29,-38 66,-56 110,-56 20,0 38,3 54,10 16,7 29,16 37,27 8,11 14,23 17,37 4,14 5,34 5,59l0 208zm81 21l101 12c2,12 6,20 12,25 8,6 22,9 40,9 23,0 40,-3 51,-10 8,-5 14,-12 18,-22 3,-8 4,-21 4,-41l1 -49c-27,37 -60,55 -101,55 -45,0 -80,-19 -107,-57 -20,-30 -30,-67 -30,-112 0,-56 13,-99 40,-128 27,-30 61,-44 101,-44 41,0 75,18 102,54l0 -47 82 0 0 299c0,40 -3,69 -9,89 -7,19 -16,34 -28,45 -11,12 -27,20 -47,27 -19,6 -44,9 -74,9 -57,0 -97,-10 -121,-29 -23,-20 -35,-44 -35,-74 0,-3 0,-7 0,-11zm79 -195c0,35 7,61 21,78 14,16 31,24 51,24 21,0 39,-8 54,-25 15,-17 22,-42 22,-75 0,-34 -7,-60 -21,-77 -14,-16 -32,-25 -54,-25 -21,0 -38,8 -52,25 -14,16 -21,41 -21,75zm-1753 893l-165 -461 101 0 117 341 113 -341 99 0 -164 461 -101 0zm312 0l0 -461 341 0 0 78 -248 0 0 102 231 0 0 78 -231 0 0 125 257 0 0 78 -350 0zm724 -170l90 28c-14,51 -37,88 -69,113 -32,24 -73,37 -122,37 -61,0 -112,-21 -151,-63 -40,-42 -59,-99 -59,-172 0,-76 19,-136 59,-179 40,-42 92,-63 156,-63 57,0 103,16 138,50 21,20 37,48 47,85l-92 22c-6,-24 -17,-43 -34,-57 -18,-14 -39,-20 -63,-20 -34,0 -62,12 -84,36 -21,25 -32,65 -32,119 0,59 11,100 32,125 21,25 48,37 82,37 25,0 46,-8 64,-24 18,-15 30,-40 38,-74zm274 170l0 -383 -137 0 0 -78 366 0 0 78 -136 0 0 383 -93 0zm259 -228c0,-47 7,-86 21,-118 10,-24 25,-45 43,-63 18,-19 38,-33 59,-42 29,-12 62,-18 100,-18 68,0 122,21 163,63 41,42 61,101 61,176 0,75 -20,133 -61,175 -40,42 -94,63 -162,63 -69,0 -123,-20 -164,-62 -40,-42 -60,-100 -60,-174zm96 -3c0,53 12,92 36,119 24,27 55,41 92,41 37,0 68,-14 91,-41 24,-26 36,-66 36,-120 0,-53 -11,-92 -35,-118 -23,-26 -54,-39 -92,-39 -39,0 -70,13 -93,39 -24,26 -35,66 -35,119zm424 231l0 -461 196 0c49,0 85,4 107,13 23,8 40,22 54,44 13,21 20,45 20,72 0,35 -10,63 -30,86 -21,23 -51,37 -91,43 20,11 36,24 49,38 13,14 31,39 53,75l56 90 -111 0 -67 -101c-24,-35 -40,-58 -49,-67 -9,-9 -18,-16 -28,-19 -10,-4 -26,-5 -47,-5l-19 0 0 192 -93 0zm93 -266l69 0c45,0 72,-2 84,-6 11,-3 19,-10 26,-19 6,-9 9,-21 9,-35 0,-15 -4,-28 -12,-37 -9,-10 -20,-16 -35,-18 -8,-1 -31,-2 -68,-2l-73 0 0 117z"/>
   <path class="fil1" d="M15085 17589l51 -8c2,10 6,18 13,23 6,5 15,7 27,7 13,0 23,-2 30,-7 4,-3 6,-8 6,-14 0,-3 -1,-6 -3,-9 -3,-2 -8,-5 -17,-7 -41,-9 -67,-17 -78,-24 -15,-11 -22,-25 -22,-43 0,-17 6,-31 19,-42 13,-11 34,-17 61,-17 26,0 46,4 58,13 13,8 22,21 26,38l-47 9c-2,-8 -6,-14 -12,-18 -5,-4 -13,-6 -24,-6 -13,0 -23,2 -29,6 -4,3 -6,6 -6,10 0,4 2,7 6,9 4,4 20,8 47,15 27,6 46,13 56,22 11,9 16,22 16,38 0,17 -7,32 -22,45 -14,12 -36,19 -65,19 -26,0 -46,-6 -61,-16 -16,-11 -26,-25 -30,-43zm222 54l0 -263 51 0 0 263 -51 0zm213 -60l50 8c-6,18 -17,32 -31,42 -13,10 -31,15 -52,15 -33,0 -58,-11 -73,-33 -13,-17 -19,-39 -19,-66 0,-31 8,-56 24,-74 17,-18 38,-27 63,-27 28,0 51,9 67,28 17,19 24,48 24,86l-126 0c0,15 4,27 12,35 7,9 17,13 29,13 8,0 14,-2 20,-7 5,-4 9,-11 12,-20zm3 -52c-1,-14 -4,-25 -12,-33 -7,-8 -16,-11 -26,-11 -11,0 -20,4 -27,12 -7,8 -11,19 -11,32l76 0zm201 52l51 8c-7,18 -17,32 -31,42 -14,10 -31,15 -52,15 -34,0 -58,-11 -74,-33 -13,-17 -19,-39 -19,-66 0,-31 8,-56 25,-74 16,-18 37,-27 63,-27 28,0 50,9 67,28 16,19 24,48 23,86l-126 0c0,15 4,27 12,35 8,9 18,13 29,13 8,0 15,-2 20,-7 5,-4 9,-11 12,-20zm3 -52c0,-14 -4,-25 -11,-33 -7,-8 -16,-11 -26,-11 -11,0 -20,4 -28,12 -7,8 -10,19 -10,32l75 0zm90 -79l47 0 0 28c6,-10 14,-17 25,-23 10,-6 22,-9 34,-9 22,0 41,9 57,26 15,17 23,42 23,73 0,32 -8,56 -23,74 -16,18 -35,27 -57,27 -11,0 -20,-2 -29,-7 -8,-4 -17,-11 -27,-21l0 95 -50 0 0 -263zm49 92c0,22 5,38 13,48 9,10 19,16 31,16 12,0 22,-5 29,-15 8,-9 12,-25 12,-46 0,-20 -4,-35 -12,-45 -8,-9 -18,-14 -30,-14 -12,0 -22,4 -30,14 -8,10 -13,24 -13,42z"/>
  </g>
 </g>
</svg>
