<?xml version="1.0" encoding="UTF-8"?>
<!DOCTYPE svg PUBLIC "-//W3C//DTD SVG 1.1//EN" "http://www.w3.org/Graphics/SVG/1.1/DTD/svg11.dtd">
<!-- Creator: CorelDRAW X7 -->
<svg xmlns="http://www.w3.org/2000/svg" xml:space="preserve" width="3300px" height="2550px" version="1.1" style="shape-rendering:geometricPrecision; text-rendering:geometricPrecision; image-rendering:optimizeQuality; fill-rule:evenodd; clip-rule:evenodd"
viewBox="0 0 3300 2550"
 xmlns:xlink="http://www.w3.org/1999/xlink">
 <defs>
  <style type="text/css">
   <![CDATA[
    .fil2 {fill:#C5C6C6;fill-rule:nonzero}
    .fil1 {fill:#B2B3B3;fill-rule:nonzero}
    .fil0 {fill:#E31E24;fill-rule:nonzero}
   ]]>
  </style>
 </defs>
 <g id="Слой_x0020_1">
  <metadata id="CorelCorpID_0Corel-Layer"/>
  <path class="fil0" d="M3117 1030l-68 132 -130 -200c32,-1 56,-3 70,-5l0 5c-15,5 -22,12 -22,23 0,7 4,17 13,31l66 102 44 -85c10,-20 15,-34 15,-42 0,-14 -11,-23 -31,-29l0 -5c-1,0 5,1 18,2 17,2 31,2 40,2 14,0 30,-1 49,-4l0 5c-24,10 -46,33 -64,68z"/>
  <path class="fil1" d="M2901 1537l0 6 -2605 20 15 -27 2512 -10 189 -341 -107 -165c-22,-34 -45,-54 -69,-58l0 -5c13,2 32,4 57,5l144 223 -167 296c-7,13 -10,25 -10,33 0,8 3,13 10,17 8,5 15,7 22,7 1,0 4,0 9,-1z"/>
  <path class="fil1" d="M2796 1059l-145 0c-1,10 -1,17 -1,19 0,27 8,49 22,66 15,16 35,24 59,24 19,0 37,-5 53,-16 16,-10 28,-25 38,-43l13 0c-19,55 -56,83 -110,83 -32,0 -57,-11 -75,-34 -17,-23 -26,-51 -26,-85 0,-33 8,-61 24,-83 16,-22 37,-33 63,-33 21,0 40,8 56,24 15,15 25,41 29,78zm-143 -23l112 0c-1,-15 -6,-29 -15,-41 -9,-11 -22,-17 -39,-17 -16,0 -28,5 -39,16 -10,11 -17,25 -19,42z"/>
  <path class="fil0" d="M2845 1059l-28 0c-1,-38 -11,-66 -30,-84 34,14 53,42 58,84z"/>
  <path class="fil0" d="M2626 1160l-2 2c-31,-19 -47,-47 -47,-86 0,-15 3,-30 9,-44 5,-14 17,-28 35,-42l2 1c-14,23 -20,51 -20,83 0,33 7,62 23,86z"/>
  <path class="fil0" d="M2313 961l175 224c-24,0 -46,1 -67,4l0 -6c12,-3 17,-8 17,-16 0,-7 -6,-19 -19,-35l-23 -29 -22 24c-12,13 -18,25 -18,35 0,10 5,17 16,21l0 6c-27,-3 -44,-4 -50,-4 -12,0 -29,1 -51,4l0 -6c21,-6 47,-27 79,-63l31 -35 -60 -78c-16,-20 -37,-35 -62,-45l0 -5c7,2 25,3 54,4z"/>
  <path class="fil1" d="M2514 1185l-174 -224 9 0c17,0 35,-1 53,-4l0 5c-9,3 -13,8 -13,15 0,6 5,16 15,29l22 29 20 -22c12,-14 18,-24 18,-31 0,-8 -6,-14 -18,-20l0 -5c16,3 35,4 55,4 10,0 26,-1 46,-4l0 5c-26,10 -53,30 -80,60l-26 30 46 62 8 9c14,18 26,31 36,39 9,8 21,15 36,21l0 6c-6,-1 -15,-2 -28,-3 -12,-1 -20,-1 -25,-1z"/>
  <path class="fil1" d="M2214 1059l-145 0c-1,10 -1,17 -1,19 0,27 7,49 22,66 15,16 34,24 58,24 20,0 38,-5 54,-16 16,-10 28,-25 37,-43l14 0c-19,55 -56,83 -110,83 -33,0 -58,-11 -75,-34 -18,-23 -26,-51 -26,-85 0,-33 8,-61 24,-83 16,-22 37,-33 63,-33 21,0 39,8 55,24 16,15 26,41 30,78zm-143 -23l112 0c-1,-15 -6,-29 -15,-41 -9,-11 -23,-17 -40,-17 -15,0 -28,5 -38,16 -11,11 -17,25 -19,42z"/>
  <path class="fil0" d="M2263 1059l-28 0c-1,-38 -11,-66 -30,-84 34,14 53,42 58,84z"/>
  <path class="fil0" d="M2043 1160l-1 2c-31,-19 -47,-47 -47,-86 0,-15 3,-30 8,-44 6,-14 18,-28 36,-42l1 1c-13,23 -19,51 -19,83 0,33 7,62 22,86z"/>
  <path class="fil1" d="M1867 806l0 299c0,28 1,47 4,56 3,9 8,18 15,26 -11,-3 -20,-8 -26,-16 -7,-7 -11,-16 -13,-28 -2,-10 -3,-29 -3,-56l0 -210c0,-19 -1,-32 -3,-39 -1,-7 -5,-14 -11,-20 -6,-6 -13,-9 -23,-11l0 -5c7,0 17,1 30,2 7,1 17,1 30,2z"/>
  <path class="fil0" d="M1969 1173l2 6c-10,8 -21,12 -33,12 -18,0 -30,-6 -38,-20 -9,-13 -13,-35 -13,-66l0 -299c13,-1 22,-2 27,-2 -2,36 -3,61 -3,77l0 210c0,26 0,43 1,53 2,10 6,17 12,23 6,6 15,10 26,10 7,0 13,-2 19,-4z"/>
  <path class="fil1" d="M1635 1109l-28 -58 -119 0 -29 58c0,0 -1,1 -2,4 0,0 -2,3 -5,9 -4,9 -6,18 -6,27 0,16 9,27 26,34l0 6c-3,0 -10,-1 -18,-2 -13,-1 -24,-2 -34,-2 -9,0 -20,1 -33,2 -9,1 -15,2 -18,2l0 -6c23,-12 44,-36 63,-73l104 -202c-8,-17 -19,-29 -33,-38 -13,-9 -30,-13 -48,-14l0 -6 11 0c9,0 23,1 40,2 18,2 30,3 35,3l159 330c-21,0 -45,2 -73,4l0 -6c16,-3 23,-11 23,-26 0,-10 -5,-27 -15,-48zm-134 -82l95 0 -46 -96 -49 96z"/>
  <path class="fil0" d="M1725 1185l-159 -330 31 0c4,10 10,24 18,40 8,18 13,28 14,32 1,2 2,4 3,6l73 153c26,53 54,86 83,97l0 6c-29,-3 -50,-4 -63,-4z"/>
  <path class="fil1" d="M2508 1478l0 -223c11,-1 19,-2 25,-2l-2 17c26,-13 50,-20 73,-20 14,0 27,4 37,11 10,7 16,15 19,25 2,9 4,24 4,45l0 147c-9,1 -17,1 -25,2 1,-26 2,-44 2,-55l0 -100c0,-20 -3,-34 -9,-43 -6,-8 -17,-13 -33,-13 -17,0 -39,7 -68,21l0 128c0,33 12,52 37,58l0 6c-25,-2 -45,-4 -60,-4z"/>
  <path class="fil0" d="M2486 1255l0 223c-22,1 -40,3 -56,4l0 -6c9,-3 17,-8 23,-17 7,-8 10,-27 10,-58l0 -77c0,-21 -3,-36 -7,-46 -5,-10 -16,-17 -31,-21l0 -6c10,1 30,2 61,4z"/>
  <path class="fil0" d="M2686 1478l0 -153c0,-21 -2,-36 -5,-45 -2,-9 -9,-17 -20,-23 14,1 26,6 34,15 9,9 13,29 13,61l0 73c0,18 1,30 3,38 2,8 7,15 14,21 6,6 14,10 23,11l0 6c-6,0 -18,-1 -34,-2 -16,-1 -25,-2 -28,-2z"/>
  <path class="fil1" d="M2346 1352l-145 0c-1,11 -1,17 -1,20 0,27 8,49 23,65 14,16 34,25 58,25 19,0 37,-6 53,-16 16,-11 28,-25 38,-43l13 0c-19,55 -56,82 -110,82 -32,0 -57,-11 -75,-34 -17,-22 -26,-51 -26,-85 0,-33 8,-61 24,-83 17,-21 37,-32 63,-32 21,0 40,8 56,23 15,16 25,42 29,78zm-143 -23l112 0c-1,-15 -6,-28 -15,-40 -9,-12 -22,-18 -39,-18 -16,0 -28,6 -39,16 -10,11 -17,25 -19,42z"/>
  <path class="fil0" d="M2395 1352l-28 0c-1,-38 -11,-66 -30,-84 34,14 54,42 58,84z"/>
  <path class="fil0" d="M2176 1453l-1 2c-32,-18 -48,-47 -48,-86 0,-15 3,-29 9,-43 5,-14 17,-29 35,-43l2 2c-13,23 -20,50 -20,82 0,33 8,62 23,86z"/>
  <path class="fil2" d="M1991 1189l0 70 54 0c10,0 17,-1 22,-3 6,-2 12,-7 19,-14l8 0c-13,18 -22,29 -27,33 -6,4 -14,6 -24,6l-52 0 0 120c0,17 1,30 3,36 2,7 6,12 12,17 7,5 16,7 28,7 23,0 43,-11 60,-33l7 4c-18,33 -43,50 -75,50 -14,0 -26,-3 -35,-9 -10,-7 -16,-15 -20,-24 -3,-10 -4,-24 -4,-43l0 -188c9,-10 17,-19 24,-29z"/>
  <path class="fil0" d="M1924 1397l0 -116 -20 0 0 -3 43 -41 0 179c0,20 2,35 6,42 4,9 9,15 16,19 -17,-1 -29,-8 -36,-19 -6,-11 -9,-31 -9,-61z"/>
  <path class="fil1" d="M1619 1369c0,-41 8,-71 24,-91 17,-20 40,-30 69,-30 27,0 50,9 68,27 17,18 26,47 26,88 0,45 -9,76 -28,94 -20,18 -42,27 -67,27 -26,0 -47,-9 -65,-28 -18,-19 -27,-48 -27,-87zm26 -5c0,38 6,64 17,78 12,13 29,20 50,20 20,0 37,-7 49,-21 13,-14 19,-40 19,-78 0,-63 -23,-95 -68,-95 -45,0 -67,32 -67,96z"/>
  <path class="fil0" d="M1799 1459c19,-21 29,-51 29,-90 0,-20 -3,-40 -7,-58 -5,-19 -13,-32 -22,-41 36,21 55,52 55,94 0,40 -19,72 -55,95z"/>
  <path class="fil0" d="M1626 1271c-19,21 -29,53 -29,95 0,42 10,74 29,97 -36,-21 -54,-54 -54,-98 0,-44 18,-76 54,-94z"/>
  <path class="fil0" d="M1256 1095l60 4 0 379c-17,0 -37,2 -60,4l0 -6c15,-3 25,-11 30,-21 5,-10 7,-28 7,-53l0 -234c0,-17 0,-29 -2,-36 -1,-7 -5,-13 -11,-19 -7,-6 -14,-11 -24,-13l0 -5z"/>
  <path class="fil1" d="M1338 1478l0 -379c6,0 15,-1 26,-2 -2,34 -4,61 -4,81l0 164 128 136 -10 0c-7,0 -14,1 -21,2 -6,-9 -15,-20 -26,-31l-71 -76 0 45c0,17 3,30 9,40 5,9 15,15 30,18l0 6c-25,-2 -45,-3 -61,-4z"/>
  <path class="fil0" d="M1573 1476l0 6c-27,-2 -46,-3 -55,-4l-135 -143 36 -27c14,-10 21,-21 21,-31 0,-11 -6,-18 -19,-21l0 -5c10,1 18,2 25,2l36 2c8,0 20,-1 36,-2 16,-2 26,-2 29,-2l0 5c-22,2 -52,19 -92,49l-41 31 86 91c28,30 52,46 73,49z"/>
  <path class="fil1" d="M1179 1352l-146 0c0,11 0,17 0,20 0,27 7,49 22,65 15,16 34,25 58,25 20,0 37,-6 53,-16 16,-11 29,-25 38,-43l14 0c-20,55 -56,82 -110,82 -33,0 -58,-11 -75,-34 -18,-22 -27,-51 -27,-85 0,-33 9,-61 25,-83 16,-21 37,-32 63,-32 21,0 39,8 55,23 16,16 26,42 30,78zm-143 -23l111 0c-1,-15 -6,-28 -14,-40 -10,-12 -23,-18 -40,-18 -15,0 -28,6 -38,16 -11,11 -17,25 -19,42z"/>
  <path class="fil0" d="M1228 1352l-28 0c-1,-38 -11,-66 -30,-84 34,14 53,42 58,84z"/>
  <path class="fil0" d="M1008 1453l-1 2c-32,-18 -47,-47 -47,-86 0,-15 2,-29 8,-43 6,-14 18,-29 36,-43l1 2c-13,23 -20,50 -20,82 0,33 8,62 23,86z"/>
  <path class="fil1" d="M800 1478l0 -223c7,-1 15,-2 25,-4 -1,8 -2,22 -2,42 22,-28 37,-42 47,-42 5,0 15,3 30,9 13,5 21,8 26,8 6,0 13,-4 20,-13 1,0 1,-1 2,-1 0,-1 1,-2 2,-3l8 4c-10,22 -23,33 -39,33 -6,0 -16,-3 -32,-10 -6,-3 -11,-5 -15,-5 -10,0 -20,7 -32,20 6,-2 10,-3 14,-3 6,0 17,4 33,11 11,5 19,7 24,7 3,0 7,-1 10,-3 -10,13 -20,20 -29,20 -5,0 -12,-3 -22,-7 -15,-8 -25,-11 -30,-11 -6,0 -12,3 -17,9l0 96c0,21 3,37 10,46 7,10 18,16 33,18l0 6c-24,-2 -46,-4 -66,-4z"/>
  <path class="fil0" d="M778 1255l0 223c-31,1 -52,2 -63,4l0 -6c17,-6 28,-13 33,-22 5,-9 7,-26 7,-49l0 -81c0,-23 -3,-39 -9,-48 -6,-10 -16,-17 -31,-20l0 -5c7,1 27,2 63,4z"/>
  <path class="fil0" d="M656 1478l-13 0 -187 -206 72 -57c24,-20 37,-35 37,-45 0,-9 -7,-15 -21,-21l0 -6c10,0 23,1 38,3 15,1 25,2 32,2 6,0 14,-1 24,-2 14,-1 28,-2 40,-3l0 6c-29,8 -61,25 -96,52l-21 16c-2,2 -3,3 -4,3l-66 54 125 138c38,42 66,64 85,64l0 6c-29,-2 -44,-4 -45,-4z"/>
  <path class="fil1" d="M438 1287l174 191 -34 0 -154 -171 0 111c0,17 3,30 9,39 5,9 15,15 30,19l0 6c-28,-2 -49,-4 -65,-4l0 -330c29,-1 50,-3 65,-5l0 6c-16,4 -26,11 -31,21 -5,11 -8,34 -8,70l0 57 14 -10z"/>
  <path class="fil0" d="M375 1148l0 330c-11,0 -32,2 -64,4l0 -6c25,-5 38,-24 38,-58l0 -208c0,-18 -3,-32 -8,-41 -5,-9 -15,-16 -30,-20l0 -6c20,3 41,4 64,5z"/>
 </g>
</svg>
